<svg width="259" height="258" viewBox="0 0 259 258" fill="none" xmlns="http://www.w3.org/2000/svg">
<path d="M212.756 253.46C227.589 221.04 233.188 186.928 231.659 150.073C230.666 126.066 222.446 104.127 206.958 90.8806C157.279 48.4358 113.398 94.2818 113.398 94.2818C98.5857 77.1765 74.0638 65.4614 36.8144 81.4131C24.901 86.5247 13.5633 98.2398 7.16979 111.387C0.220274 125.648 0.0217217 142.972 0.00186598 159.441C-0.0179898 176.685 5.44234 212.626 11.4388 228.359C15.2908 238.443 22.5779 255.727 25.8342 257.577L212.756 253.46Z" fill="#ED7E1C"/>
<path d="M136.387 129.206C103.069 140.563 63.7154 131.931 40.5834 102.872C35.9769 97.2231 32.5021 91.0971 30.0202 84.6528C32.244 83.2605 34.5076 82.087 36.8108 81.1323C74.0602 65.7177 98.5821 77.035 113.394 93.5435C113.394 93.5435 150.128 56.5087 194.426 81.5699C190.097 88.77 185.769 95.9701 179.911 102.414C168.315 115.601 152.59 123.319 136.387 129.206Z" fill="#F6A460"/>
<path d="M107.601 29.8951C103.689 14.7391 110.777 8.41413 117.171 6.34559C123.584 4.27705 130.832 7.35997 135.2 12.5313C137.662 15.4551 139.568 19.1546 143.043 20.7458C145.267 21.7602 147.789 21.7403 150.231 21.6408C158.352 21.3027 166.513 20.2883 174.574 21.3027C182.635 22.3171 190.856 25.6984 195.542 32.4012C199.572 38.1494 200.684 45.807 205.668 50.7396C214.464 59.4315 230.23 55.1353 240.177 62.4547C243.751 65.0802 246.273 69.1377 247.067 73.5134C248.775 82.981 242.719 93.0055 245.975 102.075C248.596 109.355 256.757 114.228 257.412 121.945C257.809 126.719 254.97 131.373 251.019 133.998C247.047 136.624 242.143 137.479 237.398 137.36C225.961 137.101 214.762 131.373 207.793 122.243C204.497 117.927 202.134 112.955 198.877 108.639C195.621 104.303 191.094 100.484 185.713 99.947C183.628 99.7481 181.523 100.046 179.419 100.086C170.742 100.245 162.124 95.5315 157.518 88.1126C152.812 80.5346 151.78 77.5909 145.307 71.5046C133.83 60.7243 125.848 75.0649 112.267 63.0514C106.965 58.3574 113.279 43.0025 109.666 36.8963C107.898 33.893 114.371 32.1228 111.016 31.3272L107.601 29.8951Z" fill="#3F3C36"/>
<path d="M109.725 15.278C107.799 7.97843 113.676 0.937444 120.884 0.102072C125.272 -0.415063 129.74 1.07667 133.314 3.58279C137.324 6.36736 139.806 11.0415 144.036 13.468C149.178 16.4117 155.254 15.099 160.714 13.9653C165.301 13.0304 169.868 12.1155 174.574 12.7321C182.635 13.7664 190.24 18.3211 194.827 25.0837C200.565 33.5766 199.354 45.4906 208.924 51.3382C218.356 57.1062 230.031 55.4753 240.038 59.493C247.266 62.3969 253.818 68.9407 252.845 77.2944C251.793 86.4835 243.314 94.4792 249.311 103.668C251.872 107.606 255.645 110.709 257.571 115.065C259.259 118.904 258.901 123.121 256.737 126.701C251.197 135.85 239.542 135.432 231.024 131.176C229.971 130.659 230.905 129.087 231.937 129.605C240.435 133.861 254.215 133.662 256.657 122.106C258.425 113.713 249.132 108.7 246.233 101.838C243.195 94.6383 247.782 87.9951 250.026 81.332C251.455 77.0756 251.555 72.7396 249.073 68.8412C246.571 64.8633 242.341 62.2179 237.973 60.7262C229.276 57.7626 219.765 58.3394 211.267 54.6598C203.583 51.3183 200.128 45.3116 197.865 37.5347C196.614 33.2385 195.383 29.002 192.702 25.3422C190.141 21.8416 186.646 19.0372 182.774 17.1277C178.882 15.2183 174.534 14.2238 170.186 14.3829C165.619 14.5421 161.191 15.8946 156.704 16.6106C152.574 17.267 148.245 17.5056 144.353 15.7355C140.144 13.8061 137.722 9.82818 134.386 6.82482C130.295 3.14521 124.319 0.658987 118.839 2.40929C113.716 4.04025 110.003 9.49005 111.413 14.8404C111.77 15.9344 110.023 16.4117 109.725 15.278Z" fill="#3F3C36"/>
<path d="M111.132 16.3115C103.09 14.5015 94.8697 18.7182 91.9906 26.5747C89.3299 33.8344 92.6061 40.2986 95.8228 46.6833C98.265 51.5563 100.608 56.8469 99.3571 62.3962C98.126 67.8858 93.8769 71.7643 88.6151 73.3356C82.2812 75.2251 71.2215 75.1058 71.2215 84.3148C71.2215 91.137 76.9201 96.8056 75.7486 103.827C74.9345 108.64 71.0229 110.788 66.5157 111.186C63.9344 111.425 61.3333 111.206 58.7521 111.504C54.2845 112.021 52.0805 114.587 50.8296 118.824C49.5986 122.981 46.8783 131.096 40.7628 128.271C37.3476 126.7 38.0227 121.011 41.9541 120.832C43.1256 120.773 43.1256 122.603 41.9541 122.662C39.4324 122.782 40.4848 125.049 41.1599 125.845C42.2917 127.197 43.5426 127.157 45.0715 126.242C46.6401 125.308 47.474 123.537 48.0697 121.867C49.0029 119.221 49.3603 116.357 50.9091 113.951C53.3315 110.152 57.7196 109.634 61.8694 109.535C64.2918 109.475 66.8532 109.634 69.1962 108.899C73.0482 107.705 74.4381 104.224 73.9814 100.445C73.2865 94.5381 68.9778 89.4463 69.4543 83.3402C69.8316 78.487 73.6042 75.4638 77.9129 73.9522C84.1079 71.7842 91.4545 72.5002 95.6242 66.4338C103.05 55.6536 90.3426 44.9131 89.2307 34.2123C87.94 21.6619 99.5159 11.8562 111.608 14.5612C112.76 14.7999 112.283 16.5701 111.132 16.3115Z" fill="#3F3C36"/>
<path d="M174.015 96.9446C184.399 96.4274 192.957 104.821 192.977 115.223C192.977 121.707 189.8 128.112 193.354 134.258C195.042 137.182 198.08 139.907 201.575 140.125C203.679 140.265 206.38 139.29 206.956 136.963C207.77 133.681 202.826 130.877 201.873 134.934C201.595 136.068 199.847 135.59 200.125 134.457C201.475 128.768 209.358 130.976 208.882 136.505C208.306 143.268 199.728 142.671 195.757 139.668C193.017 137.619 191.051 134.596 190.217 131.274C189.224 127.296 190.217 123.279 190.813 119.321C192.441 108.58 185.67 98.1976 174.055 98.7744C172.843 98.8142 172.843 97.0042 174.015 96.9446Z" fill="#3F3C36"/>
<path d="M124.773 38.228C123.582 39.1032 122.371 38.7849 122.371 38.7849C122.291 37.9893 120.723 37.2733 120.723 37.2733C120.921 36.9948 121.855 36.1595 121.577 35.9805L124.773 38.228Z" fill="#3F3C36"/>
<path d="M125.229 39.0052C124.335 39.6019 123.204 39.9002 122.131 39.6616C121.834 39.6019 121.556 39.3234 121.496 39.0251C121.397 38.5676 120.662 38.2494 120.265 38.0704C119.669 37.7919 119.769 37.056 120.086 36.6383C120.205 36.4991 120.324 36.3598 120.444 36.2206C120.602 36.0416 120.702 35.7433 120.702 36.0416C120.781 36.2604 120.88 36.4792 120.96 36.6781C120.94 36.6582 120.92 36.6383 120.92 36.6184C120.185 35.7234 121.456 34.4305 122.211 35.3256C123.045 36.3399 121.953 37.1355 121.357 37.8914C121.297 37.414 121.238 36.9366 121.178 36.4593C122.032 36.8571 123.045 37.5333 123.243 38.5079C123.025 38.2891 122.826 38.0903 122.608 37.8715C123.084 37.9709 123.799 37.7322 124.315 37.3941C125.288 36.7775 126.202 38.3687 125.229 39.0052Z" fill="#3F3C36"/>
<path d="M135.395 82.487L118.279 16.0352C118.279 16.0352 88.5945 35.1095 92.1289 61.5033L106.028 57.6048C106.028 57.6048 103.427 70.6923 100.905 83.561C98.5423 95.6143 108.986 106.275 121.059 104.147C121.218 104.127 121.376 104.087 121.535 104.067C131.543 102.257 137.936 92.3523 135.395 82.487Z" fill="#F6A460"/>
<path d="M134.858 43.7233C132.237 46.9057 127.551 47.3433 124.374 44.7178C121.197 42.0924 120.761 37.3984 123.382 34.216C126.002 31.0337 130.688 30.5961 133.865 33.2215C137.022 35.847 137.479 40.5609 134.858 43.7233Z" fill="#F6A460"/>
<path d="M125.605 39.8847C127.928 38.4526 130.271 37.0405 132.634 35.6681C133.647 35.0714 134.56 36.6427 133.547 37.2394C131.185 38.6118 128.861 40.0438 126.518 41.456C125.526 42.0726 124.612 40.5013 125.605 39.8847Z" fill="#3F3C36"/>
<path d="M106.047 57.6036L100.944 84.1366L116.094 54.0234L106.047 57.6036Z" fill="#3F3C36"/>
<path d="M100.112 43.2064C100.112 43.2064 104.838 44.3004 111.35 42.57C112.601 42.2318 113.773 43.3258 113.515 44.5788C112.939 47.1844 110.258 50.9635 99.8937 52.3756L100.112 43.2064Z" fill="white"/>
<path d="M100.391 42.1916C103.508 42.8679 106.983 42.4701 110.041 41.8137C112.721 41.2369 115.302 42.3508 114.329 45.5331C112.642 51.1222 105.017 52.6935 100.152 53.4095C98.8221 53.6084 98.2463 51.5597 99.5964 51.3608C103.131 50.8437 111.053 49.71 112.185 45.2348C112.681 43.3055 109.921 44.0215 108.69 44.2204C107.241 44.4591 105.772 44.5983 104.302 44.6182C102.813 44.6381 101.284 44.5585 99.8347 44.2403C98.4845 43.9419 99.0603 41.8933 100.391 42.1916Z" fill="#ED7E1C"/>
<path d="M105.71 28.8834C102.056 31.9664 98.4625 35.467 95.4841 39.1864C95.2657 38.6692 95.0473 38.1521 94.8488 37.635C96.7351 37.7941 98.6412 37.9532 100.547 38.1123C101.699 38.2117 101.719 40.0217 100.547 39.9422C98.6412 39.783 96.7549 39.6239 94.8488 39.4648C94.0148 39.3853 93.6971 38.53 94.2134 37.9134C97.1917 34.1741 100.786 30.6934 104.439 27.6105C105.313 26.8348 106.603 28.1276 105.71 28.8834Z" fill="#3F3C36"/>
<path d="M186.745 150.052C187.102 164.154 186.367 178.256 184.441 192.238C182.734 204.669 179.855 217.101 173.084 227.821C172.468 228.816 170.88 227.901 171.515 226.906C178.207 216.325 181.006 204.033 182.694 191.761C184.58 177.957 185.295 163.995 184.938 150.052C184.898 148.879 186.725 148.879 186.745 150.052Z" fill="#3F3C36"/>
<path d="M192.662 151.163C191.808 154.962 190.2 158.443 187.817 161.526C187.122 162.441 185.534 161.546 186.248 160.611C188.532 157.647 190.081 154.326 190.895 150.686C191.153 149.532 192.92 150.01 192.662 151.163Z" fill="#3F3C36"/>
<path d="M52.1002 148.76C53.6688 173.184 55.3963 197.987 64.2917 221.039C64.7086 222.133 62.9613 222.611 62.5443 221.517C53.5894 198.325 51.862 173.324 50.2934 148.76C50.2139 147.606 52.0208 147.606 52.1002 148.76Z" fill="#3F3C36"/>
<path d="M50.6907 160.117C46.9578 157.114 44.5553 152.917 43.8206 148.163C43.6419 147.01 45.3892 146.532 45.5679 147.686C46.2628 152.161 48.447 156 51.9614 158.824C52.8947 159.56 51.604 160.833 50.6907 160.117Z" fill="#3F3C36"/>
<path d="M116.595 44.239C115.086 45.9296 112.981 46.8644 110.718 46.8843C109.546 46.9042 109.546 45.0743 110.718 45.0743C112.524 45.0545 114.113 44.3185 115.304 42.966C116.099 42.0909 117.369 43.3638 116.595 44.239Z" fill="#3F3C36"/>
<path d="M117.229 32.343C114.866 30.8712 112.046 30.6524 109.505 31.8458C108.452 32.343 107.539 30.7717 108.591 30.2745C111.709 28.8026 115.203 28.9418 118.142 30.7717C119.135 31.3883 118.221 32.9596 117.229 32.343Z" fill="#3F3C36"/>
<path d="M115.642 31.4495C115.702 32.1059 115.642 32.7623 115.424 33.3789C115.245 33.896 114.61 34.2739 114.094 33.9159C113.796 33.717 113.518 33.5579 113.16 33.5181C112.843 33.4783 112.525 33.5778 112.207 33.5778C111.254 33.5976 111.075 32.802 110.996 32.0462C110.917 31.2904 110.917 30.4749 111.81 30.1965C112.565 29.9777 113.557 30.4153 114.272 30.6142C114.908 30.7932 115.186 31.6683 114.669 32.1258C113.974 32.7424 112.962 32.7822 112.287 32.086C111.473 31.2308 112.763 29.9578 113.577 30.7932C113.538 30.7534 113.418 30.8131 113.379 30.833C113.518 31.3302 113.637 31.8473 113.776 32.3446C113.478 32.265 113.18 32.1855 112.902 32.1059C112.763 32.0661 112.604 32.0263 112.465 31.9866C112.187 31.9667 112.168 31.9269 112.406 31.8871C112.505 31.7877 112.624 31.6683 112.724 31.5689C112.763 31.3899 112.763 31.3899 112.763 31.5291C112.763 31.6286 112.783 31.728 112.783 31.8275C112.783 31.907 112.902 32.3844 112.763 32.1258C112.664 32.0264 112.545 31.907 112.446 31.8076C112.485 31.8275 112.505 31.8473 112.545 31.8672C112.386 31.8275 112.247 31.7877 112.088 31.7479C112.525 31.7678 113.041 31.6683 113.538 31.7479C114.054 31.8274 114.55 32.0462 114.987 32.3446C114.55 32.5236 114.094 32.7026 113.657 32.8816C113.816 32.3844 113.875 31.9468 113.816 31.4297C113.756 30.9324 114.272 30.5147 114.729 30.5147C115.265 30.5346 115.583 30.9523 115.642 31.4495Z" fill="#3F3C36"/>
<path d="M115.244 34.8079C113.735 34.5692 112.226 34.6289 110.757 34.9869C109.625 35.2454 109.129 33.4951 110.28 33.2366C112.107 32.8189 113.894 32.7592 115.741 33.0576C116.873 33.2565 116.396 35.0068 115.244 34.8079Z" fill="#3F3C36"/>
<path d="M117.006 22.7365C115.636 22.1995 114.246 22.0603 112.817 22.3984C111.685 22.657 111.189 20.9067 112.34 20.6481C114.068 20.2503 115.835 20.3299 117.483 20.9862C118.575 21.4039 118.098 23.1542 117.006 22.7365Z" fill="#3F3C36"/>
<path d="M137.265 90.8404C136.034 87.3199 134.823 83.7994 133.592 80.2988C133.215 79.185 134.962 78.7076 135.339 79.8215C136.57 83.3419 137.781 86.8624 139.013 90.363C139.41 91.457 137.643 91.9343 137.265 90.8404Z" fill="#3F3C36"/>
</svg>
