<svg width="207" height="171" viewBox="0 0 207 171" fill="none" xmlns="http://www.w3.org/2000/svg">
<path d="M20.3808 51.3561C19.4274 50.7753 18.4959 50.1507 17.6192 49.4494C16.9837 48.9453 15.6029 48.0796 15.2851 47.3234C14.6276 45.7673 17.148 46.5234 18.0466 46.6659C19.1315 46.8412 20.2164 47.0385 21.3013 47.2467C21.641 47.3125 21.8711 46.9947 21.7287 46.6988C20.4246 43.8825 19.5699 40.9456 19.1096 37.8772C18.9233 38.0197 18.737 38.1621 18.5617 38.3046C20.7643 39.9264 22.9451 41.5812 25.0929 43.2688C25.3779 43.4879 25.8272 43.3017 25.7176 42.9071C25.1368 40.6716 25.0929 38.4799 25.608 36.2334C25.3998 36.2882 25.1916 36.343 24.9834 36.3978C26.6271 38.1512 28.2709 39.8936 29.9147 41.6469C30.2434 41.9976 30.7804 41.4716 30.4516 41.11C28.8079 39.3566 27.1641 37.6142 25.5203 35.8608C25.334 35.6636 24.9505 35.7513 24.8957 36.0252C24.3478 38.4032 24.3806 40.7483 25.0053 43.1044C25.2135 42.9839 25.4217 42.8633 25.6299 42.7428C23.4272 41.0113 21.2027 39.3237 18.9452 37.658C18.6493 37.4389 18.3535 37.8005 18.3973 38.0854C18.8576 41.2195 19.7562 44.2112 21.0821 47.0823C21.2246 46.896 21.367 46.7097 21.5095 46.5344C19.7014 46.1837 17.8932 45.855 16.0741 45.6249C15.318 45.5262 14.2988 45.3399 14.0468 46.2714C13.7728 47.3015 15.1755 48.2987 15.7892 48.8686C17.0823 50.063 18.5069 51.0931 20.0082 52.0137C20.4137 52.2547 20.7972 51.6082 20.3808 51.3561Z" fill="#FFBD1A"/>
<path d="M152.769 36.4609C153.547 33.8856 154.807 31.5734 156.538 29.5242C156.319 29.4365 156.111 29.3488 155.892 29.2612C156.089 31.7159 156.286 34.1706 156.484 36.6253C156.506 36.965 156.867 37.1074 157.13 36.8883C160.188 34.3788 163.486 32.198 166.993 30.357C166.807 30.2145 166.62 30.0721 166.445 29.9296C166.072 32.6693 165.349 35.2993 164.242 37.8417C164.1 38.1595 164.407 38.5759 164.757 38.3567C167.037 36.9211 169.48 35.9568 172.11 35.4308C171.957 35.2774 171.804 35.124 171.65 34.9705C170.763 37.4581 169.579 39.7704 168.111 41.9621C167.837 42.3675 168.494 42.7401 168.757 42.3456C170.269 40.0991 171.464 37.7211 172.373 35.1678C172.483 34.8719 172.165 34.6527 171.913 34.7075C169.206 35.2445 166.708 36.2417 164.374 37.7102C164.549 37.8855 164.713 38.0499 164.889 38.2252C166.018 35.628 166.785 32.9432 167.168 30.1378C167.212 29.82 166.927 29.5461 166.62 29.7105C163.059 31.5844 159.716 33.798 156.615 36.3513C156.834 36.439 157.043 36.5266 157.262 36.6143C157.064 34.1596 156.867 31.7049 156.67 29.2502C156.648 28.9543 156.253 28.7132 156.023 28.9872C154.204 31.1351 152.878 33.5569 152.056 36.2527C151.903 36.7239 152.626 36.9211 152.769 36.4609Z" fill="#FFBD1A"/>
<path d="M88.1566 8.37551C87.8169 6.08518 87.795 3.82773 88.058 1.52645C87.8389 1.61412 87.6306 1.70179 87.4115 1.78946C89.1539 3.69623 90.8853 5.61397 92.6277 7.52075C92.8359 7.75087 93.1537 7.59746 93.2523 7.35637C94.3044 4.83592 95.7947 2.61134 97.7125 0.67169C97.5042 0.616897 97.296 0.562105 97.0878 0.507312C97.4056 2.50176 97.7234 4.50716 98.0412 6.50161C98.096 6.86324 98.5563 6.8194 98.7316 6.58927C100.288 4.47429 102.184 2.72093 104.419 1.3292C104.233 1.21961 104.046 1.11003 103.849 1.00044C103.718 3.14831 103.389 5.24138 102.874 7.32349C102.753 7.79471 103.477 7.99196 103.597 7.52075C104.134 5.37288 104.463 3.2031 104.605 0.989486C104.627 0.704565 104.277 0.518271 104.035 0.660731C101.69 2.11821 99.7179 3.9702 98.085 6.18381C98.3152 6.21669 98.5453 6.2386 98.7754 6.27148C98.4576 4.27703 98.1398 2.27163 97.822 0.277184C97.7782 -0.00773659 97.3727 -0.0734876 97.1974 0.112807C95.181 2.15109 93.6469 4.48524 92.54 7.12624C92.7483 7.07145 92.9565 7.01666 93.1647 6.96186C91.4223 5.05509 89.6908 3.13735 87.9484 1.23057C87.7073 0.967569 87.3348 1.1977 87.3019 1.49358C87.0389 3.86061 87.0827 6.18381 87.4334 8.53989C87.4991 9.04398 88.2224 8.84672 88.1566 8.37551Z" fill="#FFBD1A"/>
<path d="M83.6229 161.52C84.3352 164.303 85.0475 167.098 85.7598 169.881C85.8365 170.177 86.3077 170.265 86.4502 169.969C87.5789 167.657 88.7186 165.345 89.8473 163.032C89.65 163.054 89.4528 163.087 89.2555 163.109C91.3705 165.213 93.8143 166.824 96.5758 167.953C96.8388 168.062 97.1237 167.744 97.0361 167.492C96.2361 165.235 95.9183 162.934 96.0717 160.545C95.9183 160.665 95.7539 160.786 95.6005 160.906C97.6497 161.432 99.688 161.958 101.737 162.495C102.066 162.583 102.318 162.232 102.165 161.947C100.806 159.372 99.436 156.797 98.0771 154.222C97.847 153.794 97.2004 154.178 97.4306 154.605C98.7894 157.18 100.159 159.756 101.518 162.331C101.661 162.145 101.803 161.958 101.945 161.783C99.8962 161.257 97.858 160.731 95.8087 160.194C95.5567 160.128 95.3485 160.315 95.3375 160.556C95.1841 163.021 95.5128 165.377 96.3238 167.712C96.4772 167.558 96.6306 167.405 96.784 167.251C94.143 166.166 91.8198 164.61 89.7925 162.605C89.6281 162.441 89.3103 162.462 89.2007 162.682C88.072 164.994 86.9323 167.306 85.8036 169.618C86.0337 169.651 86.2639 169.673 86.494 169.706C85.7817 166.923 85.0694 164.128 84.3571 161.345C84.2256 160.852 83.5023 161.049 83.6229 161.52Z" fill="#FFBD1A"/>
<path d="M198.991 116.185C201.676 116.7 204.12 117.796 206.267 119.495C206.322 119.286 206.377 119.078 206.432 118.87C203.418 120.086 200.416 121.303 197.402 122.519C197.15 122.618 197.018 122.936 197.238 123.144C199.714 125.555 201.643 128.349 203.013 131.516C203.155 131.33 203.298 131.144 203.44 130.968C201.051 130.179 198.64 129.533 196.175 129.029C195.846 128.963 195.594 129.281 195.747 129.576C197.128 132.316 198.509 135.056 199.89 137.795C199.999 137.609 200.109 137.423 200.218 137.226C197.884 137.039 195.638 136.579 193.424 135.845C192.964 135.691 192.767 136.415 193.227 136.568C195.506 137.324 197.829 137.784 200.229 137.971C200.536 137.993 200.668 137.642 200.558 137.401C199.177 134.661 197.796 131.922 196.416 129.182C196.273 129.368 196.131 129.555 195.988 129.73C198.454 130.234 200.865 130.881 203.254 131.67C203.604 131.779 203.802 131.396 203.681 131.122C202.289 127.9 200.306 125.04 197.786 122.596C197.731 122.804 197.676 123.012 197.621 123.221C200.635 122.004 203.637 120.788 206.651 119.571C206.881 119.484 207.067 119.144 206.815 118.947C204.569 117.161 202.037 115.988 199.21 115.451C198.717 115.374 198.52 116.098 198.991 116.185Z" fill="#FFBD1A"/>
<path d="M185.183 133.851C181.709 137.905 170.773 134.256 160.757 125.687C150.741 117.117 145.426 106.882 148.9 102.827C152.374 98.7725 163.31 102.422 173.326 110.991C183.342 119.561 188.657 129.796 185.183 133.851Z" fill="#4F3422"/>
<path d="M114.074 137.468C110.6 141.522 99.6635 137.873 89.6474 129.304C79.6313 120.734 74.3165 110.499 77.7903 106.444C81.2642 102.39 92.2007 106.039 102.217 114.608C112.233 123.167 117.548 133.402 114.074 137.468Z" fill="#4F3422"/>
<path d="M146.173 61.9965C150.71 56.32 159.948 49.8216 166.907 47.7505C173.876 45.6793 181.986 46.7204 187.465 51.4873C193.623 56.857 195.443 65.6457 195.695 73.8098C196.264 91.431 191.136 114.214 186.248 131.156C183.947 124.022 176.616 113.458 170.424 109.228C164.233 104.987 155.904 103.573 149.044 106.619C144.168 108.789 140.398 112.986 137.976 117.742C135.554 122.487 136.102 96.4171 135.368 101.688C132.946 101.053 130.305 108.274 127.883 107.639C127.883 107.639 117.659 128.547 114.755 135.879C111.446 128.208 102.799 119.978 94.997 116.953C87.2055 113.929 78.7784 113.03 70.4609 112.154C74.5265 104.855 78.6141 97.5459 81.9126 89.8749C83.7098 85.7107 85.2768 81.4369 87.4137 77.437C95.249 62.7636 111.533 52.5174 128.146 53.4708C135.982 53.9201 144.223 57.2405 148.036 64.1005L146.173 61.9965Z" fill="#FFBD1A"/>
<path d="M108.945 130.904C105.219 143.944 93.9427 154.53 80.6939 157.412C73.7243 158.935 66.2725 157.916 61.6699 151.977C51.0512 138.301 57.8564 116.46 62.0535 101.71C67.1821 83.6834 74.1517 61.613 85.0554 46.3697C85.0554 46.3697 82.3376 42.8192 79.598 36.1783C78.3159 33.0552 78.1515 29.5046 79.3569 26.3595C80.5624 23.2144 84.3759 20.9351 87.4333 22.3377C86.3156 20.7049 87.6854 18.3269 89.5374 17.6694C91.4003 17.0119 93.4496 17.5379 95.3454 18.0749C94.1071 16.99 94.7317 14.7654 96.1453 13.9216C97.559 13.0778 99.3452 13.2532 100.945 13.6257C105.329 14.6558 109.372 17.0448 112.463 20.3104C114.205 22.1515 112.452 25.1431 110.008 24.4856C106.786 23.6199 103.871 22.5569 101.548 21.4392C102.556 22.1076 105.548 24.2555 108.233 26.502C110.369 28.2773 108.485 31.6853 105.833 30.8306C103.74 30.1621 101.833 29.3512 101.011 28.8033C104.945 32.8908 108.945 37.0988 111.246 42.2822C115.783 52.4736 113 64.2649 110.26 75.07C106.435 90.1927 103.203 108.702 99.8274 123.934C99.8384 123.934 105.986 126.915 108.945 130.904Z" fill="#F6A460"/>
<path d="M108.454 52.9431C110.142 47.1022 111.742 40.5491 108.553 35.289C106.219 31.4426 101.594 29.0974 96.8932 28.6262C92.192 28.155 87.436 29.3495 83.1841 31.2782C79.8089 32.8124 76.6528 34.8068 74.0118 37.3053C66.6916 44.2202 63.9519 54.2143 58.4727 62.488C55.9194 66.3453 51.5688 70.2356 46.8896 69.0521C44.8184 68.5261 43.1746 67.0796 41.2679 66.1481C37.0927 64.0989 31.8545 64.6797 27.6574 66.707C23.4603 68.7343 20.1399 72.0218 17.1154 75.4299C11.4936 81.7749 6.49657 89.0513 5.45552 97.2373C4.41446 105.423 8.28281 114.607 16.3263 117.971C18.9783 119.089 21.9042 119.516 24.7753 119.932C30.9559 120.842 37.9146 122.267 41.1473 127.296C42.6596 129.642 43.1637 132.568 45.2129 134.529C46.4841 135.735 48.2155 136.436 49.9799 136.83C56.1495 138.189 62.6369 136.052 68.0504 132.973C71.5243 131 74.8228 128.546 76.8172 125.225C79.4911 120.787 79.502 115.439 80.2363 110.388C80.7842 106.684 81.7485 103.023 83.1293 99.5057C83.7539 97.9168 84.4882 96.3168 85.7593 95.1333C87.0305 93.9388 88.9702 93.2265 90.6797 93.7635C91.6988 94.0813 92.5317 94.7936 93.5289 95.1881C95.7425 96.0648 98.3616 95.1771 100.203 93.7416C105.452 89.6541 105.835 82.3557 105.561 75.9669C105.287 69.5781 105.035 62.4441 109.583 57.6881L108.454 52.9431Z" fill="#4F3422"/>
<path d="M86.2509 31.8919C75.5773 29.0865 65.4736 37.5355 60.4437 46.1817C57.8465 50.6638 55.852 55.7595 51.9289 59.31C47.3483 63.4523 40.9375 64.0003 35.0967 62.9373C32.1927 62.4113 29.4969 61.2825 26.6477 60.5812C24.0286 59.9347 21.5848 60.2853 19.1521 61.4141C14.1988 63.7153 9.42092 66.97 6.53884 71.6931C3.55813 76.5806 0.895213 82.6078 0.182911 88.3062C-0.474598 93.5882 0.654126 99.0784 3.34992 103.67C6.18816 108.492 10.7469 112.24 15.9851 114.157C22.5273 116.557 29.5955 115.67 36.335 114.771C36.8062 114.705 36.8172 113.96 36.335 114.015C30.4174 114.804 24.2587 115.626 18.385 114.113C13.2783 112.798 8.64287 109.697 5.4649 105.489C2.10065 101.029 0.445914 95.3635 0.785627 89.7965C1.14726 83.9666 3.7773 78.049 6.6265 73.0191C9.4538 68.0001 14.1112 64.6249 19.2616 62.1811C22.5602 60.6141 25.4422 60.888 28.8175 62.0168C31.3269 62.8496 33.8584 63.551 36.4884 63.9016C40.9814 64.4934 45.7593 64.1318 49.7482 61.8195C53.6494 59.5511 56.1041 55.6937 58.2081 51.8363C61.0025 46.7078 63.6655 41.7764 68.1913 37.919C73.0569 33.7658 79.6101 30.9166 86.0427 32.6042C86.5139 32.7466 86.7221 32.0234 86.2509 31.8919Z" fill="#4F3422"/>
<path d="M20.9066 115.211C24.8955 116.088 28.457 118.268 31.087 121.391C34.0787 124.953 34.7691 128.898 35.6457 133.314C36.358 136.931 37.9908 139.911 41.2674 141.763C44.3358 143.506 48.0617 144.251 51.5465 144.492C58.0449 144.93 64.8392 143.067 69.8691 138.837C76.236 133.468 77.5839 125.402 77.6825 117.479C77.7483 112.197 77.4853 106.937 78.0003 101.666C78.5154 96.3842 80.4879 90.2584 86.263 88.768C86.7342 88.6475 86.537 87.9242 86.0658 88.0447C77.6387 90.2145 77.0469 100.603 76.9154 107.704C76.7401 116.46 78.1756 126.487 73.0471 134.191C68.9267 140.383 61.4859 143.582 54.2094 143.802C50.4287 143.911 46.407 143.319 42.9441 141.785C41.114 140.974 39.4045 139.813 38.2539 138.158C36.8731 136.185 36.4786 133.775 36.0731 131.451C35.3608 127.331 34.1225 123.693 31.3062 120.515C28.6213 117.49 25.0489 115.375 21.1038 114.499C20.6326 114.378 20.4353 115.112 20.9066 115.211Z" fill="#4F3422"/>
<path d="M78.1208 93.1521C81.5727 91.87 83.9069 95.3877 85.3753 97.9301C86.5479 99.9464 87.7862 101.941 89.9889 102.927C94.2846 104.856 98.3502 102.368 100.597 98.6862C105.539 90.5879 105.67 79.0047 99.8077 71.3776C99.5118 70.9941 98.8652 71.3776 99.1611 71.7612C104.936 79.2677 104.827 90.8728 99.6871 98.73C98.1968 101.009 95.9503 102.872 93.1011 102.861C90.0656 102.85 88.0492 100.933 86.5698 98.478C84.7726 95.4973 82.1974 90.8509 77.9345 92.4398C77.4743 92.5933 77.6715 93.3165 78.1208 93.1521Z" fill="#4F3422"/>
<path d="M84.4764 33.1847C77.8246 27.2781 68.2578 28.8013 61.1567 32.9875C56.9925 35.4422 53.2447 38.6749 49.8147 42.0611C46.1217 45.7213 42.5602 51.6608 36.9494 52.3183C33.9797 52.6689 30.451 50.8608 30.6154 47.4746C30.6921 46.05 31.5907 44.4939 33.0701 44.1761C34.7577 43.8145 36.6207 45.0309 36.7302 46.7733C36.7631 47.2554 37.5083 47.2554 37.4864 46.7733C37.2563 43.1241 32.2482 42.2255 30.4949 45.3158C28.2484 49.2608 32.0838 53.0525 35.9741 53.1511C41.9574 53.3045 45.8148 47.2226 49.5078 43.4638C53.8584 39.0147 58.8006 34.708 64.51 32.0998C70.7344 29.2616 78.5698 28.9438 83.9613 33.7327C84.312 34.0395 84.849 33.5135 84.4764 33.1847Z" fill="#4F3422"/>
<path d="M99.5867 30.3686C103.093 29.8754 106.414 31.9576 109.833 32.4397C112.43 32.8014 115.082 32.6808 117.646 32.1219C122.895 30.9932 127.597 28.0125 131.125 23.9907C134.007 20.7032 137.963 15.6732 135.509 11.2241C133.47 7.54203 128.539 3.21343 124.002 3.70656C122.117 3.90381 120.583 5.438 121.043 7.43245C121.515 9.47073 123.761 10.1282 125.482 9.21868C125.909 8.98855 125.525 8.342 125.098 8.57213C122.216 10.0844 120.298 5.74484 123.268 4.62707C124.451 4.17777 125.832 4.51749 126.983 4.93391C129.536 5.86538 131.837 7.59682 133.547 9.6899C134.599 10.983 135.717 12.6377 135.662 14.3801C135.618 15.8376 134.796 17.2403 134.106 18.4786C132.868 20.7141 131.333 22.7853 129.547 24.6044C125.679 28.5495 120.561 31.2452 115.027 31.7932C112.2 32.0781 109.395 31.7932 106.688 30.9603C104.244 30.2151 101.998 29.2946 99.4004 29.6563C98.9072 29.7111 99.1154 30.4343 99.5867 30.3686Z" fill="#4F3422"/>
<path d="M95.0503 60.5825C95.8941 62.2921 97.0009 63.9249 98.4584 65.4043L103.313 59.0703L110.096 73.0314C112.496 77.9737 118.874 79.4531 123.159 76.0121C123.225 75.9573 123.301 75.9025 123.367 75.8368C127.433 72.5383 127.564 66.3686 123.696 62.84L94.9517 36.6602C94.9517 36.6602 90.1409 49.5912 94.7544 59.936L95.0503 60.5825Z" fill="#F6A460"/>
<path d="M94.7578 59.9378C95.9304 56.1242 97.9906 50.8313 101.399 53.1216C101.804 53.2969 101.322 55.4996 100.566 56.1352C98.5385 57.4393 96.4783 58.8419 95.0537 60.5843L94.7578 59.9378Z" fill="#F6A460"/>
<path d="M94.7361 60.7695C95.6566 62.5777 96.7963 64.1995 98.199 65.668C98.3853 65.8652 98.6483 65.7775 98.7907 65.5912C100.413 63.4763 102.023 61.3722 103.645 59.2572C103.426 59.2572 103.207 59.2572 102.999 59.2572C105.07 63.5201 107.141 67.7829 109.212 72.0348C110.319 74.3032 111.645 76.2758 114.023 77.3935C117.256 78.9058 120.905 78.3141 123.656 76.1004C124.028 75.7936 123.502 75.2676 123.119 75.5635C119.875 78.1826 115.163 78.1168 112.127 75.1799C110.725 73.8211 109.99 71.9143 109.146 70.1829C107.316 66.4131 105.475 62.6434 103.645 58.8737C103.503 58.5888 103.152 58.6764 102.999 58.8737C101.377 60.9887 99.766 63.0927 98.1442 65.2077C98.3414 65.1858 98.5387 65.1529 98.7359 65.131C97.3771 63.7064 96.2812 62.1393 95.3936 60.386C95.1635 59.9586 94.5169 60.3421 94.7361 60.7695Z" fill="#4F3422"/>
<path d="M94.5916 36.5627C91.8849 43.8939 91.315 52.8799 94.4382 60.1235C94.6245 60.5618 95.282 60.1892 95.0847 59.7399C92.0492 52.6826 92.6958 43.883 95.3149 36.7599C95.4792 36.3106 94.756 36.1134 94.5916 36.5627Z" fill="#4F3422"/>
<path d="M94.7578 59.9354C94.8564 60.1546 94.9551 60.3628 95.0537 60.5819C95.4044 60.1546 95.7879 59.7381 96.2153 59.3546C97.1029 56.6478 98.8015 54.3246 101.541 53.5137C101.53 53.3165 101.486 53.174 101.399 53.1302C97.9906 50.8289 95.9304 56.1218 94.7578 59.9354Z" fill="#4F3422"/>
<path d="M96.2109 59.3557C97.4931 58.1613 99.0382 57.1202 100.561 56.1339C101.153 55.6408 101.57 54.2052 101.537 53.5039C98.7971 54.3258 97.0986 56.638 96.2109 59.3557Z" fill="#ED7E1C"/>
<path d="M111.445 43.3895C111.336 45.6579 109.418 47.4113 107.15 47.3127C104.881 47.2031 103.128 45.2854 103.227 43.0169C103.336 40.7485 105.254 38.9952 107.522 39.0938C109.802 39.1924 111.555 41.1102 111.445 43.3895Z" fill="#F6A460"/>
<path d="M106.921 45.046C107.48 43.6434 108.039 42.2407 108.62 40.8489C108.806 40.3996 108.083 40.2134 107.897 40.6517C107.316 42.0434 106.757 43.4461 106.198 44.8488C106.012 45.2981 106.746 45.4953 106.921 45.046Z" fill="#4F3422"/>
<path d="M103.316 59.0727L109.848 72.464L106.571 54.1523L103.316 59.0727Z" fill="#4F3422"/>
<path d="M97.6175 47.1037C97.1244 48.2544 96.6422 49.405 96.149 50.5556C96.0175 50.8625 96.3134 51.3118 96.6641 51.0707C97.2559 50.6543 97.8915 50.3694 98.5928 50.205C99.064 50.0954 98.8668 49.3721 98.3955 49.4817C97.6284 49.657 96.9271 49.9748 96.2806 50.4241C96.4559 50.5995 96.6203 50.7639 96.7956 50.9392C97.2887 49.7885 97.7709 48.6379 98.264 47.4873C98.4503 47.0489 97.8038 46.6654 97.6175 47.1037Z" fill="#4F3422"/>
<path d="M93.6588 48.6624C93.3629 51.1062 93.067 53.5389 92.7711 55.9827C92.7492 56.1799 92.9574 56.3772 93.1437 56.3553C93.8012 56.3005 94.5135 55.8841 95.1162 55.643C95.5546 55.4676 95.3683 54.7334 94.919 54.9197C94.393 55.1279 93.7026 55.5663 93.1437 55.6101C93.2643 55.7306 93.3958 55.8621 93.5163 55.9827C93.8122 53.5389 94.1081 51.1062 94.4039 48.6624C94.4697 48.1802 93.7136 48.1802 93.6588 48.6624Z" fill="#4F3422"/>
<path d="M95.4788 43.5533C96.2897 44.3094 97.3636 44.682 98.4705 44.5395C98.9417 44.4738 98.9526 43.7286 98.4705 43.7834C97.5499 43.9039 96.6952 43.6519 96.0158 43.0163C95.6541 42.6985 95.1281 43.2245 95.4788 43.5533Z" fill="#4F3422"/>
<path d="M180.89 127.901C176.091 138.345 167.061 146.783 156.3 150.848C147.653 154.114 136.75 154.125 130.383 147.451C126.164 143.035 124.805 136.657 124.093 130.586C123.534 125.786 123.26 120.965 123.293 116.132C123.315 112.264 123.523 108.384 123.413 104.516C123.139 94.8506 122.35 84.8126 120.082 75.4102C117.298 63.86 112.674 52.244 104.247 43.8607C104.093 43.7073 103.94 43.5758 103.797 43.4443C102.472 42.2936 103.524 40.1239 105.255 40.4088C106.285 40.5841 107.337 40.9129 108.082 41.5485C111.644 44.5621 111.742 43.4552 116.838 48.1016C113.167 45.2086 109.868 41.8553 107.041 38.1404C106.263 37.1103 107.151 35.6309 108.422 35.8939C111.874 36.6171 118.624 41.5156 122.526 44.0032C122.526 44.0032 112.356 35.4117 112.356 34.283C112.356 32.4091 115.326 33.1433 117.518 34.1953C121.846 36.2884 128.038 40.1458 133.09 43.6306C134.153 44.3648 135.336 42.8744 134.372 42.0087C131.796 39.6965 128.465 37.8226 126.262 37.8116C125.846 37.8116 125.441 37.7568 125.068 37.5815C123.052 36.6172 124.136 34.7432 125.473 34.4364C126.427 34.2172 130.438 34.535 131.347 34.8967C139.544 38.1513 142.152 41.5485 148.705 51.1591C152.596 56.8684 155.171 63.3559 157.275 69.931C162.031 84.7907 166.721 99.0038 167.192 114.598C173.373 116.888 178.852 122.773 180.89 127.901Z" fill="#F6A460"/>
<path d="M123.894 124.318C123.433 116.691 123.981 109.053 123.664 101.426C123.368 94.0945 122.743 86.7633 121.351 79.5526C118.919 66.9394 114.305 53.833 105.275 44.3868C104.552 43.6307 103.051 42.6115 103.774 41.439C104.53 40.2116 106.568 41.0006 107.489 41.5924C108.475 42.228 109.33 43.0718 110.327 43.7074C112.552 45.143 114.601 46.5895 116.573 48.3757C116.749 48.2004 116.924 48.025 117.11 47.8387C114.82 46.0196 112.672 44.0471 110.689 41.8992C110.163 41.3294 109.648 40.7486 109.144 40.1459C108.815 39.7623 107.368 38.3597 107.379 37.9432C107.796 37.4063 108.201 36.8583 108.618 36.3214C108.815 36.3762 109.023 36.431 109.22 36.4967C109.768 36.6173 110.316 36.9241 110.82 37.1652C114.908 39.1048 118.568 41.8883 122.36 44.3211C122.71 44.5512 123.149 44.0142 122.82 43.7293C120.058 41.3952 117.319 39.0281 114.743 36.4967C114.239 36.0036 113.286 35.2913 112.99 34.6228C112.223 32.8475 115.324 33.7023 116.157 33.9982C119.664 35.2584 122.973 37.5049 126.107 39.4665C127.773 40.5075 129.417 41.5705 131.039 42.6663C131.904 43.2471 133.165 44.617 134.315 44.0471C137.022 42.7102 132.507 39.9815 131.521 39.3678C130.283 38.6007 128.935 37.8884 127.499 37.5816C126.874 37.4501 126.173 37.5268 125.57 37.3515C123.324 36.7049 124.705 34.8858 126.14 34.7324C128.891 34.4475 131.521 35.2474 133.954 36.42C140.507 39.6089 144.397 45.4717 148.386 51.3235C148.66 51.7181 149.306 51.3455 149.033 50.94C145.329 45.5046 141.636 39.7514 135.729 36.4858C133.154 35.0611 130.787 34.1735 127.85 33.9982C126.327 33.9105 122.918 34.031 123.653 36.5734C123.927 37.5378 124.968 38.009 125.866 38.1405C128.211 38.4692 130.085 39.2254 132.047 40.5952C132.551 40.9459 133.033 41.3184 133.504 41.702C133.822 41.965 135.367 43.0937 133.296 43.2691C132.726 43.3239 130.962 41.6801 130.447 41.3404C128.496 40.0473 126.513 38.787 124.507 37.5706C121.538 35.7844 118.053 33.242 114.535 32.7708C112.957 32.5626 111.281 33.505 112.442 35.105C113.922 37.1323 116.102 38.8199 117.965 40.4746C119.39 41.7458 120.836 42.9951 122.294 44.2334C122.447 44.0362 122.601 43.8389 122.754 43.6416C120.135 41.954 117.582 40.1678 114.919 38.5459C113.659 37.7789 112.376 37.0227 111.039 36.3981C110.185 36.0036 109.034 35.368 108.059 35.4557C107.27 35.5214 106.601 36.1241 106.448 36.9022C106.229 38.0309 107.259 38.9514 107.894 39.7404C110.47 42.9184 113.406 45.7786 116.606 48.3209C116.979 48.6168 117.505 48.1237 117.143 47.784C115.324 46.1402 113.472 44.6717 111.379 43.3896C109.418 42.1842 107.708 40.1568 105.286 39.9706C103.566 39.85 102.273 41.5486 103.149 43.1376C103.829 44.3649 105.33 45.406 106.262 46.4689C107.555 47.9593 108.738 49.5373 109.834 51.1701C118.513 64.1779 121.625 80.4074 122.666 95.7383C123.313 105.25 122.612 114.751 123.192 124.252C123.17 124.8 123.927 124.8 123.894 124.318Z" fill="#4F3422"/>
<path d="M180.56 127.715C175.87 137.764 167.432 145.939 157.131 150.114C147.531 154.004 134.326 154.114 128.354 144.164C124.836 138.312 124.332 130.959 123.894 124.307C123.861 123.825 123.105 123.825 123.138 124.307C123.543 130.477 124.047 137.052 126.732 142.717C129.044 147.616 133.198 151.1 138.425 152.525C149.219 155.473 160.945 150.574 169.185 143.703C174.281 139.452 178.401 134.104 181.207 128.088C181.415 127.66 180.768 127.277 180.56 127.715Z" fill="#4F3422"/>
<path d="M103.491 42.8853C104.696 43.0278 105.836 42.2388 106.197 41.0881C106.34 40.6279 105.616 40.4306 105.474 40.8909C105.211 41.7456 104.367 42.2388 103.491 42.1401C103.008 42.0744 103.008 42.8305 103.491 42.8853Z" fill="#4F3422"/>
<path d="M106.94 38.1068C108.321 38.7424 109.888 38.3369 110.797 37.1205C111.093 36.737 110.436 36.3534 110.151 36.737C109.504 37.6027 108.299 37.8986 107.313 37.4493C106.885 37.263 106.502 37.9096 106.94 38.1068Z" fill="#4F3422"/>
<path d="M113.122 35.1783C114.284 35.3865 115.391 34.9372 116.092 33.9838C116.377 33.6003 115.73 33.2167 115.445 33.6003C114.963 34.2578 114.119 34.5865 113.319 34.4441C112.848 34.3674 112.64 35.0906 113.122 35.1783Z" fill="#4F3422"/>
<path d="M124.41 35.8826C125.638 36.299 126.931 36.0251 127.906 35.1922C128.279 34.8744 127.742 34.3484 127.369 34.6553C126.591 35.3128 125.561 35.4772 124.608 35.1484C124.147 35.0059 123.95 35.7292 124.41 35.8826Z" fill="#4F3422"/>
<path d="M86.3304 23.0267C92.9055 23.465 98.9326 27.0266 102.494 32.5606C102.757 32.9661 103.404 32.5935 103.141 32.177C99.4258 26.4019 93.1794 22.7308 86.3304 22.2706C85.8482 22.2377 85.8482 22.9938 86.3304 23.0267Z" fill="#4F3422"/>
<path d="M94.7003 18.7535C97.1879 19.4767 99.544 20.4959 101.779 21.8109C102.196 22.0629 102.579 21.4054 102.163 21.1643C99.8727 19.8164 97.4618 18.7644 94.8976 18.0302C94.4373 17.8877 94.2291 18.611 94.7003 18.7535Z" fill="#4F3422"/>
<path d="M106.59 25.8089C106.217 27.4308 107.456 29.0636 109.111 29.1512C109.593 29.1732 109.593 28.428 109.111 28.3951C107.949 28.3294 107.05 27.1349 107.313 26.0062C107.423 25.5349 106.7 25.3377 106.59 25.8089Z" fill="#4F3422"/>
<path d="M110.884 19.1478C110.293 20.671 111.279 22.4792 112.868 22.8189C113.339 22.9175 113.536 22.1942 113.065 22.0956C111.849 21.8326 111.158 20.4957 111.608 19.345C111.783 18.8957 111.06 18.7094 110.884 19.1478Z" fill="#4F3422"/>
<path d="M100.497 121.75C99.5769 125.323 99.018 128.939 98.8208 132.621C98.7989 133.103 99.544 133.103 99.5769 132.621C99.7632 129.005 100.322 125.454 101.221 121.947C101.341 121.487 100.618 121.29 100.497 121.75Z" fill="#4F3422"/>
<path d="M167.452 109.842C167.331 115.902 167.211 121.962 167.09 128.011C167.079 128.493 167.835 128.493 167.846 128.011C167.967 121.951 168.087 115.891 168.208 109.842C168.208 109.36 167.463 109.36 167.452 109.842Z" fill="#4F3422"/>
<path d="M117.779 55.9348C118.623 55.4087 119.466 54.8827 120.321 54.3677C120.738 54.1156 120.354 53.4581 119.938 53.7211C119.094 54.2471 118.25 54.7622 117.395 55.2882C116.99 55.5402 117.373 56.1868 117.779 55.9348Z" fill="#FFBD1A"/>
<path d="M123.499 52.0442C124.167 51.5182 124.836 50.9812 125.504 50.4552C125.888 50.1593 125.351 49.6224 124.967 49.9182C124.299 50.4443 123.63 50.9812 122.962 51.5072C122.589 51.8141 123.126 52.3401 123.499 52.0442Z" fill="#FFBD1A"/>
<path d="M128.507 48.9777C129.274 48.5504 130.041 48.123 130.808 47.6956C131.235 47.4545 130.852 46.808 130.424 47.049C129.657 47.4764 128.89 47.9038 128.123 48.3312C127.707 48.5613 128.079 49.2079 128.507 48.9777Z" fill="#FFBD1A"/>
<path d="M138.041 43.9124C138.644 43.9124 139.236 43.9124 139.839 43.9124C140.321 43.9124 140.321 43.1562 139.839 43.1562C139.236 43.1562 138.644 43.1562 138.041 43.1562C137.559 43.1562 137.559 43.9124 138.041 43.9124Z" fill="#FFBD1A"/>
<path d="M81.4851 26.6558C81.9782 26.2065 82.4823 25.7682 82.9755 25.3189C83.3371 24.9901 82.8001 24.4641 82.4385 24.7819C81.9454 25.2312 81.4413 25.6696 80.9481 26.1189C80.5865 26.4476 81.1235 26.9736 81.4851 26.6558Z" fill="#FFBD1A"/>
<path d="M89.1532 20.5066C89.7011 19.871 90.3586 19.3778 91.1257 19.0272C91.564 18.819 91.1805 18.1724 90.7422 18.3806C89.9312 18.7642 89.208 19.3011 88.6162 19.9806C88.3094 20.3312 88.8354 20.8682 89.1532 20.5066Z" fill="#FFBD1A"/>
<path d="M98.3296 15.7523C99.2391 15.1934 100.149 14.6346 101.058 14.0866C101.475 13.8346 101.091 13.188 100.675 13.4401C99.7651 13.999 98.8556 14.5579 97.946 15.1058C97.5406 15.3578 97.9241 16.0044 98.3296 15.7523Z" fill="#FFBD1A"/>
<path d="M99.9375 50.0725C100.639 51.7929 101.844 53.3162 103.357 54.4011C104.463 55.1901 106.359 55.5407 106.874 54.2915C107.389 53.0422 105.844 51.9683 104.584 51.4861C103.094 50.9163 101.592 50.3464 100.102 49.7656L99.9375 50.0725Z" fill="white"/>
<path d="M91.7861 82.8594C90.2739 84.4264 89.0027 86.2236 88.0055 88.1633C87.7534 88.6674 87.5014 89.2372 87.6657 89.7742C87.9397 90.7166 89.3205 90.9029 90.1095 90.3221C90.8985 89.7413 91.1944 88.7112 91.3588 87.7469C91.5998 86.2017 92.0163 84.4045 91.7861 82.8594Z" fill="white"/>
<path d="M87.0295 67.5508C85.4406 69.1398 84.0817 70.9589 83.0187 72.9424C82.7448 73.4574 82.4818 74.0382 82.6352 74.5971C82.8982 75.5724 84.3118 75.8025 85.1447 75.2217C85.9666 74.6409 86.3063 73.5889 86.4816 72.5917C86.7665 71.0027 87.2378 69.1507 87.0295 67.5508Z" fill="white"/>
<path d="M68.9045 99.2344C67.3156 100.823 65.9567 102.642 64.8937 104.626C64.6198 105.141 64.3568 105.722 64.5102 106.281C64.7732 107.256 66.1868 107.486 67.0197 106.905C67.8416 106.325 68.1813 105.273 68.3566 104.275C68.6415 102.686 69.1128 100.834 68.9045 99.2344Z" fill="white"/>
</svg>
