<svg width="73" height="72" viewBox="0 0 73 72" fill="none" xmlns="http://www.w3.org/2000/svg">
<path d="M36.5 44C44.232 44 50.5 50.268 50.5 58C50.5 65.732 44.232 72 36.5 72C28.768 72 22.5 65.732 22.5 58C22.5 50.268 28.768 44 36.5 44Z" fill="#926247"/>
<path d="M14.5 22C22.232 22 28.5 28.268 28.5 36C28.5 43.732 22.232 50 14.5 50C6.76801 50 0.5 43.732 0.5 36C0.5 28.268 6.76801 22 14.5 22Z" fill="#926247"/>
<path d="M36.5 3.0598e-07C44.232 1.36992e-07 50.5 6.26801 50.5 14C50.5 21.732 44.232 28 36.5 28C28.768 28 22.5 21.732 22.5 14C22.5 6.26801 28.768 4.74968e-07 36.5 3.0598e-07Z" fill="#926247"/>
<path d="M58.5 22C66.232 22 72.5 28.268 72.5 36C72.5 43.732 66.232 50 58.5 50C50.768 50 44.5 43.732 44.5 36C44.5 28.268 50.768 22 58.5 22Z" fill="#926247"/>
</svg>