<svg width="382" height="375" viewBox="0 0 382 375" fill="none" xmlns="http://www.w3.org/2000/svg">
<path d="M166.169 57.9807C233.497 80.9719 256.704 59.2109 307.142 72.6765C324.68 77.3645 366.956 89.0679 356.566 165.09C355.053 176.195 364.578 192.105 370.713 201.348C376.515 210.075 404.726 287.311 307.125 306.346C230.737 321.241 155.38 333.842 79.3076 305.864C52.7754 296.105 22.2867 286.031 7.24182 261.278C-6.42325 238.802 -0.106063 196.31 20.7905 177.392C83.1977 120.887 38.9109 99.1754 86.988 64.7634C105.79 51.3144 131.391 46.111 166.169 57.9807Z" fill="#F5F5F5"/>
<path d="M23.9467 148.747C25.6257 141.432 28.1194 133.985 30.2805 126.62C30.7127 125.124 31.1782 123.578 32.1258 122.148C34.0542 119.239 37.4289 118.208 39.9225 118.774C47.686 120.536 49.7807 128.997 46.7218 137.343C44.411 143.677 39.2742 151.423 32.7575 155.447C30.4966 156.843 27.8201 157.907 25.925 157.275C22.8661 156.278 23.2152 151.939 23.9467 148.747Z" fill="#F5F5F5"/>
<path d="M379.922 159.653C378.077 163.793 375.101 168.231 371.893 171.506C367.936 175.529 360.655 177.89 361.702 169.112C362.55 161.814 364.445 154.932 366.207 147.833C366.872 145.14 367.853 142.397 369.798 140.419C371.76 138.441 374.918 137.427 377.412 138.657C378.974 139.438 380.055 140.951 380.737 142.564C382.848 147.601 382.133 154.716 379.922 159.653Z" fill="#F5F5F5"/>
<path d="M249.198 169.407C251.515 172.548 252.013 173.677 255.019 175.248C259.194 177.431 263.158 174.75 265.974 170.939C280.356 151.424 291.942 110.097 294.01 110.231C349.261 114.252 354.757 130.224 310.212 219.333C287.576 264.337 235.754 244.784 226.887 234.883C225.929 233.811 211.911 234.769 229.166 226.036C230.123 225.557 222.731 222.531 222.061 221.669C217.79 216.077 224.55 209.317 220.835 203.361C232.383 193.805 242.629 182.563 249.198 169.407Z" fill="#CFD9B5"/>
<path d="M201.53 179.94C201.703 179.422 202.182 179.097 202.641 178.81C212.063 172.701 222.616 168.372 233.608 166.113L245.807 165.098C247.722 167.338 249.599 169.598 251.438 171.915C244.371 187.562 232.957 201.139 219.896 212.821C213.193 202.94 207.161 192.579 201.875 181.874C201.607 181.242 201.301 180.552 201.53 179.94Z" fill="#3F3C36"/>
<path d="M196.322 115.557C217.407 129.652 236.003 147.999 253.775 165.56C244.448 177.644 232.9 189.25 219.399 196.393C240.676 228.126 269.134 301.512 267.199 329.702C266.797 335.734 267.506 342.092 264.71 347.454C261.895 352.855 256.858 356.379 251.228 358.964C247.302 338.741 241.825 318.786 235.371 299.233C213.654 231.362 196.475 162.477 165.068 99.1641C176.137 103.358 186.498 108.988 196.322 115.557Z" fill="#9BB168"/>
<path d="M157.866 96.6538C160.298 97.4199 162.711 98.2434 165.067 99.1435C196.474 162.475 213.653 231.342 235.37 299.212C241.824 318.765 247.301 338.72 251.227 358.943C248.45 360.227 245.52 361.261 242.647 362.18C219.168 369.649 194.732 373 170.065 373.9C168.744 280.674 147.084 187.295 126.612 91.6172C137.03 91.7321 147.621 93.4557 157.866 96.6538Z" fill="white"/>
<path d="M52.1747 135.587C61.3288 116.072 76.4771 103.452 94.1916 96.9405C104.38 93.2061 115.411 91.4826 126.652 91.6166C147.124 187.313 168.765 280.673 170.105 373.9C151.089 374.589 131.938 373.804 112.998 372.329C110.546 372.138 107.808 371.793 106.238 369.897C104.188 367.427 105.184 363.75 106.084 360.666C111.581 341.822 109.531 321.695 106.908 302.237C102.637 270.524 97.026 238.982 90.0742 207.728C89.538 205.334 89.0018 202.902 88.657 200.451C85.5546 201.983 82.4713 203.534 79.388 205.066C68.4338 210.562 42.427 196.908 39.0373 208.686C36.969 182.526 40.5502 160.368 52.1747 135.587Z" fill="#9BB168"/>
<path d="M292.921 89.0489C287.386 85.6018 281.852 82.1738 276.336 78.7266C275.379 78.1329 276.26 76.62 277.217 77.2137C282.752 80.6608 288.286 84.0888 293.802 87.536C294.759 88.1297 293.878 89.6617 292.921 89.0489Z" fill="#3F3C36"/>
<path d="M39.5356 215.199C44.6872 224.239 67.017 221.213 89.4235 208.439C111.83 195.666 125.81 177.989 120.658 168.95C115.507 159.911 93.1771 162.937 70.7706 175.71C48.3641 188.484 34.3841 206.179 39.5356 215.199Z" fill="#3F3C36"/>
<path d="M104.765 166.095C109.552 171.305 117.404 181.32 122.192 186.51C131.001 175.939 143.603 168.604 157.142 166.172C179.223 162.208 193.222 186.932 193.797 188.234C193.797 188.234 189.641 202.425 184.604 195.147C183.513 193.577 181.119 195.013 181.981 196.718C186.903 206.465 178.706 212.134 175.297 206.389C176.274 215.792 172.31 227.876 167.196 235.804C157.564 250.742 145.824 262.826 127.822 266.867C86.131 276.251 58.3049 240.401 46.0483 207.117C50.2998 197.254 82.8179 167.436 104.765 166.095Z" fill="#CFD9B5"/>
<path d="M123.014 186.492C115.43 197.427 109.896 209.569 106.659 222.496C106.391 223.587 104.687 223.128 104.974 222.036C108.249 208.975 113.841 196.68 121.501 185.611C122.133 184.692 123.665 185.554 123.014 186.492Z" fill="#3F3C36"/>
<path d="M108.9 213.59C106.372 215.314 104.438 217.631 103.117 220.388C102.638 221.403 101.125 220.523 101.604 219.508C103.059 216.482 105.243 213.973 108 212.077C108.958 211.445 109.839 212.958 108.9 213.59Z" fill="#3F3C36"/>
<path d="M119.507 170.366C114.643 161.748 110.564 152.69 105.699 144.072C105.144 143.095 106.657 142.214 107.212 143.191C112.077 151.809 116.156 160.867 121.02 169.485C121.575 170.462 120.063 171.343 119.507 170.366Z" fill="#3F3C36"/>
<path d="M133.547 175.839C133.547 175.839 145.784 162.74 152.564 158.067C164.188 150.081 165.261 145.293 170.929 138.265C172.423 136.426 175.43 137.575 175.507 140.027C175.66 145.312 173.132 152.015 170.508 155.749C168.057 159.235 171.255 164.176 175.353 163.218C190.559 159.656 208.944 155.022 220.856 154.754C224.092 154.677 228.899 156.745 227.865 159.963C227.501 161.073 226.486 161.705 225.509 162.222C216.355 167.144 202.203 170.802 191.229 172.813C196.228 173.828 208.12 170.649 210.284 177.122C212.123 182.637 207.661 187.463 202.471 187.463C205.784 186.429 222.273 199.375 173.189 212.838L133.547 175.839Z" fill="#CFD9B5"/>
<path d="M132.916 175.209C139.14 168.564 145.613 161.937 153.043 156.652C158.578 152.707 162.791 148.149 166.64 142.614C168.364 140.144 172.003 133.594 175.546 137.769C177.231 139.742 176.312 143.265 175.795 145.544C175.009 149.125 173.535 152.419 171.696 155.56C170.739 157.188 170.068 158.567 171.083 160.405C172.424 162.799 174.741 162.435 177.02 161.899C181.253 160.903 185.485 159.888 189.717 158.931C197.09 157.245 204.483 155.637 211.97 154.622C216.662 153.99 224.495 152.209 227.981 156.69C232.347 162.282 220.359 165.653 216.988 166.897C208.734 169.942 200.097 172.03 191.46 173.639C191.46 173.083 191.46 172.509 191.46 171.953C197.052 172.911 205.344 169.904 209.806 174.634C215.13 180.265 208.753 188.04 202.472 188.327C201.476 188.365 201.303 186.853 202.242 186.604C204.961 185.876 207.853 188.959 208.466 191.315C210.094 197.386 202.567 202.077 198.239 204.433C190.502 208.665 181.885 211.327 173.42 213.664C172.328 213.97 171.869 212.266 172.96 211.978C181.367 209.642 189.966 207.038 197.627 202.786C200.882 200.967 204.942 198.554 206.474 194.934C207.451 192.636 205.746 187.485 202.721 188.308C202.644 187.733 202.567 187.159 202.491 186.584C210.189 186.221 212.89 175.496 204.482 174.041C200.02 173.275 195.462 174.424 191.019 173.658C190.177 173.504 190.196 172.126 191.019 171.972C197.818 170.708 204.559 169.119 211.166 167.051C214.479 166.016 217.773 164.848 220.952 163.469C222.293 162.876 223.901 162.32 225.108 161.459C228.44 159.065 226.295 156.747 223.442 155.962C220.876 155.254 218.022 155.713 215.418 155.981C211.741 156.364 208.083 156.958 204.425 157.648C197.339 158.969 190.292 160.597 183.283 162.244C179.05 163.24 172.424 166.361 169.59 161.305C168.69 159.716 168.594 157.82 169.322 156.135C170.643 153.109 172.52 150.6 173.516 147.344C174.071 145.525 174.531 143.629 174.626 141.733C174.646 141.235 174.818 140.048 174.588 139.569C173.056 136.275 171.064 139.512 170.413 140.374C169.034 142.212 167.77 144.146 166.43 146.004C163.404 150.236 159.823 153.817 155.667 156.92C147.873 162.78 140.863 169.31 134.199 176.454C133.395 177.277 132.15 176.032 132.916 175.209Z" fill="#3F3C36"/>
<path d="M194.696 173.217C190.349 173.715 186.251 175.19 182.191 176.683C181.138 177.066 180.678 175.381 181.731 174.998C185.983 173.447 190.196 171.991 194.716 171.474C195.826 171.321 195.807 173.083 194.696 173.217Z" fill="#3F3C36"/>
<path d="M204.157 188.211C198.009 189.053 192.072 190.719 186.404 193.247C185.389 193.707 184.489 192.194 185.523 191.734C191.326 189.13 197.377 187.387 203.697 186.525C204.789 186.372 205.267 188.058 204.157 188.211Z" fill="#3F3C36"/>
<path d="M171.695 139.531C172.481 143.591 169.474 147.842 165.165 147.747C164.035 147.727 164.035 145.966 165.165 146.004C168.267 146.08 170.585 142.978 170.01 139.991C169.8 138.899 171.485 138.42 171.695 139.531Z" fill="#3F3C36"/>
<path d="M224.363 156.612C223.079 156.573 221.796 156.612 220.552 156.995C219.939 157.186 219.345 157.32 219 157.914C218.483 158.239 218.464 158.584 218.962 158.967C219.115 159.523 219.479 159.772 220.073 159.676C222.294 159.925 224.631 159.81 226.871 159.867C228.001 159.906 228.001 161.648 226.871 161.61C224.477 161.553 221.95 161.706 219.575 161.361C218.349 161.189 217.162 160.538 216.875 159.235C216.051 155.29 221.796 154.754 224.343 154.85C225.492 154.888 225.492 156.65 224.363 156.612Z" fill="#3F3C36"/>
<path d="M174.033 167.55C174.416 169.025 174.78 170.499 175.163 171.974C175.45 173.065 173.746 173.525 173.478 172.433C173.095 170.959 172.731 169.484 172.348 168.01C172.06 166.918 173.765 166.458 174.033 167.55Z" fill="white"/>
<path d="M175.965 182.39C176.558 184.19 176.52 186.105 175.85 187.886C175.447 188.939 173.762 188.48 174.164 187.426C174.739 185.913 174.777 184.4 174.279 182.849C173.915 181.796 175.62 181.336 175.965 182.39Z" fill="white"/>
<path d="M177.729 196.774C177.902 198.9 178.074 201.045 178.246 203.171C178.342 204.301 176.58 204.282 176.503 203.171C176.331 201.045 176.159 198.9 175.986 196.774C175.891 195.664 177.633 195.664 177.729 196.774Z" fill="white"/>
<path d="M304.487 112.377C303.817 113.967 303.357 115.671 303.146 117.376C303.012 118.487 301.25 118.487 301.404 117.376C301.653 115.327 302.17 113.392 302.974 111.477C303.414 110.443 304.927 111.343 304.487 112.377Z" fill="white"/>
<path d="M219.934 13.5588L223.113 15.2823C225.047 16.7187 224.779 17.1974 225.22 19.553L226.331 26.6005C226.369 26.8303 226.714 26.8303 226.752 26.6005L227.843 19.5913C228.284 17.2357 228.226 16.7187 230.142 15.2632L233.148 13.5396C233.263 13.463 233.263 13.2907 233.148 13.1949L229.758 11.5671C227.863 10.1308 227.977 9.17324 227.537 6.81769L226.752 0.172357C226.714 -0.0574524 226.369 -0.0574524 226.331 0.172357L225.411 7.06665C224.99 9.40305 224.741 10.3797 222.864 11.8161L219.915 13.1949C219.819 13.3098 219.819 13.4822 219.934 13.5588Z" fill="white"/>
<path d="M244.317 25.2238L246.749 26.5452C248.223 27.6368 248.032 28.0006 248.357 29.8199L249.2 35.2013C249.238 35.3737 249.487 35.3737 249.526 35.2013L250.368 29.8582C250.694 28.0581 250.675 27.6559 252.13 26.5643L254.428 25.2429C254.524 25.1855 254.524 25.0514 254.428 24.9748L251.824 23.73C250.368 22.6192 250.464 21.8915 250.119 20.1105L249.526 15.0355C249.487 14.8632 249.238 14.8632 249.2 15.0355L248.491 20.302C248.166 22.083 247.994 22.8299 246.557 23.9406L244.297 24.9939C244.221 25.0131 244.221 25.1472 244.317 25.2238Z" fill="white"/>
<path d="M221.238 199.301C217.886 193.249 214.496 187.063 209.69 182.027C208.904 181.203 210.149 179.978 210.934 180.782C215.837 185.934 219.342 192.234 222.77 198.42C223.306 199.416 221.793 200.297 221.238 199.301Z" fill="#3F3C36"/>
<path d="M158.022 50.8821C160.645 48.6031 160.894 44.7155 160.397 41.2875C159.918 37.8595 158.884 34.3549 159.65 31.0035C160.416 27.6713 163.863 24.6071 167.367 25.6796C168.191 25.9285 168.957 26.3882 169.819 26.5222C173.113 27.0393 174.587 23.0368 176.713 20.7004C179.164 18.0193 183.78 17.4064 187.074 19.3215C190.387 21.2366 191.995 25.4689 190.712 28.8203C189.908 30.9078 188.414 33.7229 190.463 34.9103C191.076 35.2741 191.804 35.2933 192.512 35.3316C194.676 35.4465 196.917 35.7912 198.775 36.902C200.652 38.0127 202.069 40.0044 201.877 42.0535C201.609 44.8495 198.66 46.4965 196.094 47.8562C193.527 49.2159 190.731 51.2651 191.038 54.0802C191.248 55.8804 192.723 57.4125 193.049 59.1935C193.623 62.3151 190.617 64.843 187.667 66.1644C184.278 67.6773 180.543 68.5391 176.751 68.654C174.626 68.7306 172.423 68.5583 170.412 69.1519C168.402 69.7456 166.544 71.3543 166.563 73.3843L158.022 50.8821Z" fill="#3F3C36"/>
<path d="M146.207 77.6945L130.829 76.6604C134.697 58.2181 152.163 48.2406 163.462 43.6061C169.168 41.2697 173.324 40.293 173.324 40.293L171.62 59.7119L166.909 113.296C165.951 124.097 156.012 131.642 145.307 129.88C145.134 129.861 144.962 129.823 144.79 129.804C131.882 127.64 125.16 113.2 131.844 101.939C138.929 89.9127 146.207 77.6945 146.207 77.6945Z" fill="#CFD9B5"/>
<path d="M180.121 74.0185C176.348 76.2783 171.484 75.0526 169.224 71.2799C166.965 67.5072 168.19 62.6429 171.963 60.3831C175.736 58.1233 180.6 59.349 182.86 63.1217C185.1 66.8944 183.894 71.7779 180.121 74.0185Z" fill="#CFD9B5"/>
<path d="M172.135 66.9718C174.988 66.3782 177.842 65.7845 180.695 65.2291C181.806 65.0185 182.266 66.7037 181.155 66.9144C178.302 67.4698 175.448 68.0634 172.595 68.6571C171.503 68.9061 171.024 67.2017 172.135 66.9718Z" fill="#3F3C36"/>
<path d="M146.187 77.6949L131.633 102.534L157.582 77.6758L146.187 77.6949Z" fill="#3F3C36"/>
<path d="M155.876 48.6999C151.184 50.481 146.396 52.6833 142.126 55.3261C142.126 54.8282 142.126 54.3111 142.126 53.8132C143.983 54.6558 145.822 55.4793 147.679 56.322C148.714 56.7816 147.814 58.2945 146.799 57.8349C144.941 56.9922 143.102 56.1688 141.245 55.3261C140.613 55.0389 140.728 54.1196 141.245 53.8132C145.649 51.0938 150.571 48.834 155.416 47.0147C156.47 46.6125 156.929 48.2978 155.876 48.6999Z" fill="#3F3C36"/>
<path d="M144.982 59.1758L143.833 61.8186C148.295 64.6529 153.331 66.4914 158.54 67.3532C159.46 66.7978 160.341 66.185 161.164 65.4956C155.381 64.7104 149.769 62.5272 144.982 59.1758Z" fill="white"/>
<path d="M144.558 70.2071C147.507 70.5901 150.533 70.3603 153.387 69.5368C152.544 69.0772 151.663 68.6942 150.706 68.4452C148.484 67.9664 146.09 68.5984 144.558 70.2071Z" fill="#ED7E1C"/>
<path d="M143.851 61.7969L140.614 69.2848C141.897 69.7253 143.238 70.0126 144.578 70.1849C146.091 68.5763 148.504 67.9634 150.726 68.4231C151.683 68.6912 152.564 69.055 153.407 69.5147C155.207 68.9976 156.95 68.2698 158.559 67.3123C153.33 66.4888 148.294 64.6503 143.851 61.7969Z" fill="#3F3C36"/>
<path d="M158.386 53.4089C162.197 52.5471 165.951 53.9643 168.326 57.0475C169.015 57.9476 167.483 58.8094 166.813 57.9285C164.936 55.4963 161.833 54.4239 158.865 55.0942C157.754 55.3623 157.295 53.6578 158.386 53.4089Z" fill="#3F3C36"/>
<path d="M162.467 55.2871C162.333 56.034 162.889 56.8384 163.635 56.9724C164.382 57.1065 165.187 56.5702 165.34 55.8425C164.746 56.3979 163.578 55.9766 163.501 55.1722C164.057 55.1148 164.631 55.3637 164.976 55.8042L162.467 55.2871Z" fill="#3F3C36"/>
<path d="M163.327 55.2879C163.231 56.0923 164.246 56.4561 164.476 55.5944C164.955 55.8816 165.453 56.1689 165.932 56.4561C164.821 57.3562 162.906 56.9349 162.638 55.4029C162.542 54.8283 162.868 54.3113 163.48 54.2921C164.285 54.2538 165.051 54.5794 165.568 55.173C166.315 56.0157 165.089 57.2605 164.323 56.4178C164.074 56.1306 163.844 56.0348 163.461 56.0348C163.748 55.671 164.017 55.2879 164.304 54.9241C164.323 55.039 164.515 55.3454 164.687 55.2113C165.338 54.6751 166.391 55.1539 166.142 56.0731C165.836 57.2222 164.687 58.0457 163.48 57.835C162.312 57.6435 161.431 56.4753 161.565 55.2879C161.623 54.8092 161.929 54.407 162.446 54.407C162.887 54.407 163.385 54.8092 163.327 55.2879Z" fill="#3F3C36"/>
<path d="M161.755 56.3025C163.421 56.2642 164.953 56.877 166.159 58.0069C166.983 58.7729 165.738 60.0177 164.915 59.2517C164.034 58.4282 162.942 58.0452 161.736 58.0644C160.625 58.0835 160.625 56.3216 161.755 56.3025Z" fill="#3F3C36"/>
<path d="M196.419 46.2857C193.47 47.1858 192.053 50.7479 194.351 53.1609C195.212 54.061 196.553 54.3674 197.338 55.3632C198.506 56.857 198.296 58.9253 197.568 60.5531C195.308 65.6664 189.142 66.4133 184.258 66.758C183.128 66.8346 183.128 65.0918 184.258 65.0152C187.954 64.7663 192.129 64.4599 194.81 61.5872C196.515 59.7488 196.898 57.4124 194.849 55.6505C194.006 54.9228 193.221 54.6738 192.512 53.6971C189.965 50.1734 192.053 45.7878 195.94 44.6005C197.032 44.2558 197.511 45.9602 196.419 46.2857Z" fill="#3F3C36"/>
<path d="M191.745 40.5398C188.183 39.678 188.47 35.7329 190.022 33.2242C191.63 30.6005 194.273 28.0726 193.622 24.6637C192.818 20.4123 187.685 19.5122 184.832 22.2316C184.008 23.0168 182.782 21.772 183.587 20.9868C186.728 17.9993 191.803 18.095 194.311 21.8677C195.575 23.7637 195.728 26.0426 195.039 28.1875C194.369 30.3132 187.877 37.8203 192.224 38.8545C193.296 39.1035 192.837 40.7887 191.745 40.5398Z" fill="#3F3C36"/>
<path d="M159.534 43.1274C158.941 39.9101 157.064 36.9992 156.834 33.7052C156.643 31.0624 157.504 28.3622 159.094 26.2556C160.415 24.5128 162.579 22.5595 164.897 22.5595C166.237 22.5595 167.041 23.2297 168.133 23.9C170.508 25.3363 173.246 25.3555 175.066 22.9042C175.736 22.0041 177.249 22.885 176.579 23.7851C175.449 25.298 174.012 26.313 172.097 26.6194C169.225 27.0791 167.482 24.8959 164.858 24.8576C160.99 24.8001 158.577 29.3005 158.539 32.8818C158.5 36.2906 160.588 39.3547 161.2 42.6678C161.43 43.7594 159.745 44.2382 159.534 43.1274Z" fill="#3F3C36"/>
<path d="M134.045 130.089C141.514 136.141 152.621 137.079 160.837 131.928C168.804 126.929 172.845 116.971 171.064 107.836C170.853 106.725 172.538 106.265 172.749 107.376C174.664 117.316 170.374 128.021 161.718 133.46C152.794 139.052 140.882 137.883 132.8 131.353C131.919 130.625 133.164 129.381 134.045 130.089Z" fill="#3F3C36"/>
<path d="M139.561 62.5073C143.41 58.3898 148.964 56.5322 154.269 59.0601C159.497 61.5497 162.235 66.9694 162.676 72.5423C162.886 75.166 158.788 75.1468 158.577 72.5423C157.907 63.9053 149.06 58.3324 142.433 65.399C140.652 67.3333 137.761 64.4415 139.561 62.5073Z" fill="#3F3C36"/>
<path d="M167.941 43.6245C170.891 43.95 173.169 46.2673 173.438 49.2356C173.533 50.3655 171.791 50.3464 171.676 49.2356C171.503 47.3014 169.876 45.597 167.941 45.3863C166.831 45.2523 166.831 43.4904 167.941 43.6245Z" fill="#3F3C36"/>
<path d="M250.596 52.5119L307.838 19.4576C311.898 17.1212 316.973 20.0513 316.973 24.7241V90.8327C316.973 95.5247 311.898 98.4547 307.838 96.0992L250.596 63.0449C246.536 60.7085 246.536 54.8675 250.596 52.5119Z" fill="#ED7E1C"/>
<path d="M280.375 151.428C280.375 151.428 288.859 131.262 294.987 100.448C292.306 101.827 288.629 103.685 286.025 105.274C283.42 106.864 279.724 107.113 279.016 104.642C278.633 103.283 279.054 101.483 280.126 100.161C284.263 95.0095 293.302 87.7897 300.522 88.7855C300.445 87.6748 301.805 86.6981 302.935 86.2768C307.052 84.7255 316.704 84.1319 319.864 86.0469C323.005 87.962 324.614 90.1261 324.614 94.3392C326.433 84.7447 318.102 77.4674 313.181 70.6497C312.281 69.4049 311.4 67.892 312.012 66.1492C312.951 63.4873 316.053 63.7362 318.313 64.5214C332.6 69.5006 339.743 91.4283 341.256 104.815C342.788 118.374 345.105 140.11 330.876 174.409C326.988 183.774 316.704 156.962 304.601 159.222C299.967 160.046 281.946 160.256 280.375 151.428Z" fill="#CFD9B5"/>
<path d="M299.622 87.0422C308.796 83.4036 305.157 102.995 304.065 106.557C303.74 107.629 302.035 107.17 302.38 106.097C303.05 103.914 306.612 86.1613 300.101 88.7467C299.048 89.1488 298.588 87.4636 299.622 87.0422Z" fill="#3F3C36"/>
<path d="M310.709 85.1821C318.216 88.0164 316.531 98.1089 316.244 104.467C316.186 105.597 314.444 105.597 314.501 104.467C314.75 99.1813 316.512 89.2229 310.269 86.8673C309.196 86.4843 309.637 84.7799 310.709 85.1821Z" fill="#3F3C36"/>
<path d="M323.752 87.0599C327.238 91.7519 327.065 99.8335 326.031 105.311C325.821 106.421 324.135 105.943 324.346 104.851C325.323 99.7761 325.457 92.269 322.258 87.96C321.569 87.0408 323.082 86.1598 323.752 87.0599Z" fill="#3F3C36"/>
<path d="M318.084 64.3285C318.256 66.6841 320.497 67.814 322.623 67.2969C323.714 67.0288 324.193 68.7141 323.082 68.9822C319.788 69.7865 316.571 67.8331 316.322 64.3285C316.246 63.1986 317.988 63.2178 318.084 64.3285Z" fill="#3F3C36"/>
<path d="M330.876 106.308C332.427 106.117 333.979 105.906 335.511 105.714C336.621 105.58 336.621 107.323 335.511 107.476C333.959 107.668 332.408 107.878 330.876 108.07C329.765 108.204 329.765 106.442 330.876 106.308Z" fill="white"/>
<path d="M313.985 109.39C316.015 108.854 318.064 108.777 320.075 109.352C321.167 109.658 320.707 111.343 319.615 111.037C317.892 110.539 316.187 110.616 314.445 111.075C313.353 111.362 312.893 109.677 313.985 109.39Z" fill="white"/>
<path d="M301.824 111.133C303.337 110.444 304.849 110.157 306.496 110.387C307.607 110.54 307.128 112.225 306.037 112.072C304.907 111.919 303.739 112.168 302.705 112.646C301.69 113.106 300.79 111.593 301.824 111.133Z" fill="white"/>
<path d="M173.841 57.9867C168.307 54.9225 162.772 51.8584 157.237 48.7943C157.639 48.6985 158.042 48.5836 158.444 48.4879C156.72 51.9733 156.816 56.5312 159.861 59.2506C164.055 62.985 170.547 61.204 173.516 56.7993C174.147 55.8609 175.66 56.7419 175.028 57.6803C171.6 62.7361 164.515 64.8618 159.401 61.1274C155.092 57.9675 154.671 52.1648 156.912 47.6069C157.122 47.1665 157.716 47.0707 158.118 47.3005C163.653 50.3647 169.187 53.4288 174.722 56.4929C175.718 57.0291 174.818 58.5421 173.841 57.9867Z" fill="#3F3C36"/>
<path d="M151.146 45.0804C145.611 42.0163 140.077 38.9522 134.542 35.888C134.944 35.7923 135.346 35.6774 135.749 35.5816C134.025 39.0671 134.121 43.625 137.166 46.3444C141.36 50.0788 147.852 48.2978 150.82 43.8931C151.452 42.9547 152.965 43.8356 152.333 44.774C148.905 49.8298 141.819 51.9556 136.706 48.2212C132.397 45.0613 131.976 39.2586 134.216 34.7007C134.427 34.2602 135.021 34.1645 135.423 34.3943C140.958 37.4584 146.492 40.5225 152.027 43.5867C153.023 44.1037 152.142 45.6166 151.146 45.0804Z" fill="#3F3C36"/>
<path d="M156.146 51.2676C153.848 50.0419 151.531 48.7971 149.233 47.5715C148.237 47.0352 149.118 45.5223 150.114 46.0586C152.412 47.2842 154.729 48.529 157.027 49.7547C158.023 50.2909 157.142 51.8038 156.146 51.2676Z" fill="#3F3C36"/>
<path d="M142.871 60.0742C134.713 65.1875 127.78 72.867 126.899 82.4615C126.746 84.2425 126.88 86.2151 128.086 87.5365C129.772 89.375 135 89.4899 137.47 89.0302C146.586 87.3067 152.542 85.0469 160.719 80.6996C163.669 79.1293 167.212 76.1609 169.203 73.4606C171.195 70.7604 172.038 66.9877 170.486 64.0193C166.924 68.4431 162.328 72.1392 156.985 74.0735C153.174 75.4523 139.807 78.3058 140.017 70.971C140.094 68.4623 141.894 66.0684 143.848 64.4789L142.871 60.0742Z" fill="#3F3C36"/>
<path d="M292.498 88.7634C286.829 85.7567 281.18 82.75 275.511 79.7433C274.515 79.2071 275.396 77.6942 276.392 78.2304C282.061 81.2371 287.71 84.2438 293.379 87.2505C294.375 87.7675 293.494 89.2805 292.498 88.7634Z" fill="#3F3C36"/>
<path d="M267.332 74.631C263.004 71.452 258.427 68.6942 253.582 66.3387C252.567 65.8408 253.448 64.3278 254.463 64.8258C259.289 67.1813 263.866 69.939 268.213 73.1181C269.113 73.7884 268.252 75.3013 267.332 74.631Z" fill="#3F3C36"/>
<path d="M200.127 98.0211L204.345 100.33C206.914 102.239 206.56 102.875 207.149 106.033L208.634 115.412C208.681 115.718 209.152 115.718 209.199 115.412L210.66 106.104C211.25 102.97 211.179 102.286 213.724 100.354L217.73 98.0447C217.871 97.9268 217.871 97.6912 217.73 97.5969L213.205 95.429C210.684 93.4967 210.825 92.2242 210.26 89.1136L209.199 80.2298C209.152 79.9234 208.681 79.9234 208.634 80.2298L207.409 89.3964C206.843 92.507 206.537 93.803 204.015 95.7118L200.104 97.5498C199.962 97.6912 199.962 97.9033 200.127 98.0211Z" fill="#FFBD1A"/>
<path d="M94.1582 58.0523L98.3763 60.3617C100.945 62.2704 100.591 62.9067 101.18 66.0643L102.689 75.4195C102.736 75.7259 103.207 75.7259 103.254 75.4195L104.715 66.1115C105.304 62.9774 105.234 62.294 107.779 60.3617L111.785 58.0523C111.926 57.9345 111.926 57.6989 111.785 57.6046L107.26 55.4367C104.739 53.5044 104.88 52.2319 104.315 49.1213L103.278 40.261C103.231 39.9547 102.759 39.9547 102.712 40.261L101.487 49.4277C100.921 52.5382 100.591 53.8343 98.0935 55.743L94.1818 57.581C94.0168 57.7224 94.0168 57.9581 94.1582 58.0523Z" fill="#FFBD1A"/>
</svg>
