<svg width="286" height="286" viewBox="0 0 286 286" fill="none" xmlns="http://www.w3.org/2000/svg">
<rect width="286" height="286" rx="143" fill="white"/>
<path d="M87.3227 74.8633C85.3392 78.5214 81.0133 80.1966 76.9438 81C72.8743 81.8034 68.5654 82.094 64.9405 84.1453C61.9996 85.8205 59.7254 88.641 58.7166 91.8546C58.5285 92.47 58.3746 93.1367 58.5627 93.735C59.1612 95.6837 62.1021 95.3076 63.7607 96.47C65.5048 97.7007 65.368 100.504 64.0856 102.231C62.8032 103.94 60.7513 104.88 58.8534 105.855C56.9554 106.846 54.9891 108.094 54.1855 110.077C53.2279 112.453 54.2881 115.325 56.2544 116.983C58.2208 118.624 60.9052 119.222 63.47 119.188C65.1799 119.171 66.924 118.897 68.4628 118.128C71.5577 116.555 73.2505 113.239 75.2681 110.419C77.2686 107.598 80.3806 104.88 83.7832 105.513C84.1081 105.581 84.4501 105.684 84.604 105.974C84.7921 106.333 84.5869 106.778 84.5527 107.188C84.4843 108.162 85.5102 108.966 86.4848 108.966C87.4765 108.966 88.3486 108.367 89.0667 107.684C91.0673 105.752 92.1445 102.897 91.9222 100.128C91.717 97.6324 90.9476 94.299 93.2388 93.2905C93.8543 93.017 94.5725 93.0341 95.2393 92.9486C99.6508 92.4016 102.404 86.5726 100.027 82.8119C98.5052 80.4017 95.6668 79.2393 93.0165 78.2308L87.3227 74.8633Z" fill="#4F3422"/>
<path d="M90.3156 95.9042C89.8026 97.1691 89.5804 98.4341 89.8197 99.8016C90.1788 101.887 91.1021 102.708 89.5462 104.93C87.084 108.468 83.1513 108.571 79.287 108.656C74.0548 108.759 71.4729 112.571 71.5242 117.579C71.5584 121.152 73.5076 126.519 78.073 125.237C79.3725 124.878 80.7404 123.801 80.843 122.366C80.9797 120.263 78.0901 119.511 76.4486 119.391C75.4398 119.323 75.4569 120.878 76.4486 120.947C79.3383 121.169 79.5093 123.972 76.7393 123.836C75.4911 123.784 74.5677 122.861 74.0206 121.836C73.1144 120.16 72.9605 118.024 73.1486 116.16C73.405 113.767 74.4481 111.254 76.9274 110.468C79.0476 109.784 81.4414 110.434 83.6129 110.092C86.4513 109.648 89.1358 108.109 90.8628 105.802C91.6322 104.759 92.299 103.596 92.1623 102.246C91.94 99.9725 90.8286 98.6734 91.8203 96.2973C92.1965 95.3914 90.6918 94.9811 90.3156 95.9042Z" fill="#4F3422"/>
<path d="M83.7336 79.3751C74.791 79.5803 66.0536 82.4862 58.8893 87.8708C56.6151 89.5802 53.3664 91.9733 55.4524 95.0673C55.897 95.7169 56.5296 96.2297 57.1281 96.7254C57.5727 97.0844 58.2395 97.375 58.5131 97.8878C58.8551 98.5716 58.325 100.982 57.6582 101.426C56.8716 101.939 55.4011 102.076 54.4949 102.332C53.999 102.469 53.3664 102.777 52.8534 102.794C52.2037 103.084 51.6223 102.845 51.1094 102.11C49.5534 101.666 49.3482 101.29 50.4938 100.982C51.4 100.537 50.6135 99.187 49.7073 99.6314C48.2368 100.349 47.1596 101.084 48.0316 102.879C48.7669 104.384 50.4254 104.76 51.9814 104.572C54.2555 104.281 57.4188 103.529 59.4364 102.384C60.8556 101.58 61.4712 100.144 60.8727 98.5887C60.5649 97.7853 59.9665 97.1015 59.368 96.5203C59.0089 96.1784 58.5473 95.8708 58.1711 95.546C57.812 95.2725 57.4701 94.9819 57.1452 94.6571C57.1794 93.5289 57.2136 92.3836 57.2478 91.2554C57.9488 89.9392 60.1888 88.8281 61.4199 87.9905C62.5826 87.2041 63.7966 86.4691 65.0448 85.8024C70.8241 82.7084 77.219 81.0845 83.7507 80.9478C84.7424 80.9136 84.7424 79.358 83.7336 79.3751Z" fill="#4F3422"/>
<path d="M193.298 36.2488C191.383 33.9753 188.117 33.189 185.296 33.9582C182.115 34.83 179.602 37.7701 179.893 41.1547C180.115 43.8214 184.287 43.753 184.065 41.0693C183.894 39.0009 185.911 37.5821 187.98 37.8385C190.271 38.1291 191.332 40.3171 191.024 42.2487C190.613 44.7616 188.288 45.8043 185.894 45.8556C184.321 45.8898 182.663 46.0949 181.534 47.3085C180.235 48.7102 179.893 51.0692 179.482 52.8641C178.884 55.4794 182.919 56.5051 183.518 53.8897C183.723 53.0008 183.945 52.129 184.184 51.2572C184.321 50.7615 184.372 50.2487 184.783 50.0949C185.279 49.9239 185.894 50.0265 186.407 50.0094C187.194 49.9923 187.997 49.9068 188.767 49.7017C191.639 48.9667 194.067 46.7444 194.905 43.8898C195.692 41.2915 195.059 38.3342 193.298 36.2488Z" fill="#C2B1FF"/>
<path d="M181.006 57.4101C178.39 56.7605 177.364 60.8118 179.98 61.4443C182.579 62.0938 183.605 58.0597 181.006 57.4101Z" fill="#C2B1FF"/>
<path d="M22.4337 162.317C19.4756 162.009 16.5859 163.719 15.0813 166.214C13.3885 169.052 13.6279 172.898 16.1927 175.155C18.1932 176.915 21.1513 173.975 19.1336 172.197C17.5777 170.83 18.0393 168.402 19.715 167.155C21.5787 165.77 23.8529 166.608 24.9643 168.214C26.4006 170.3 25.4772 172.676 23.7845 174.368C22.6731 175.479 21.63 176.778 21.6642 178.437C21.6984 180.351 23.1005 182.283 24.0409 183.855C25.4259 186.146 29.0509 184.095 27.6659 181.787C27.2042 181.018 26.7425 180.231 26.3151 179.428C26.0757 178.966 25.7337 178.573 25.9389 178.18C26.1783 177.719 26.6912 177.36 27.0503 176.984C27.5975 176.419 28.1275 175.804 28.5379 175.137C30.0939 172.625 30.2991 169.343 28.9141 166.693C27.6488 164.3 25.1353 162.591 22.4337 162.317Z" fill="#C2B1FF"/>
<path d="M28.2651 186.076C25.9397 187.426 28.0086 191.05 30.334 189.7C32.6595 188.349 30.5905 184.743 28.2651 186.076Z" fill="#C2B1FF"/>
<path d="M269.254 87.9417C266.774 86.3007 263.423 86.4374 260.926 87.9759C258.105 89.7024 256.532 93.2237 257.729 96.3861C258.687 98.8818 262.671 97.6681 261.713 95.1382C260.978 93.2066 262.517 91.275 264.586 90.9502C266.877 90.5913 268.501 92.4032 268.741 94.3348C269.048 96.8647 267.099 98.5057 264.825 99.2237C263.32 99.6852 261.798 100.352 261.046 101.839C260.174 103.548 260.516 105.907 260.619 107.754C260.773 110.437 264.945 110.301 264.791 107.617C264.739 106.711 264.705 105.805 264.705 104.899C264.705 104.386 264.603 103.873 264.962 103.617C265.389 103.326 266.005 103.241 266.501 103.087C267.253 102.848 268.005 102.54 268.689 102.147C271.254 100.642 272.947 97.8391 272.964 94.8647C272.93 92.1297 271.511 89.446 269.254 87.9417Z" fill="#C2B1FF"/>
<path d="M263.321 111.685C260.637 111.788 260.774 115.959 263.458 115.856C266.143 115.754 266.006 111.583 263.321 111.685Z" fill="#C2B1FF"/>
<path d="M89.4101 269.511C75.0302 284.195 49.1599 280.143 38.3878 261.391C29.3084 245.597 32.6255 223.511 38.1655 206.982C46.2189 182.965 61.5735 161.734 77.6805 141.939C93.1205 122.931 106.748 111.495 128.498 98.9823C150.487 86.3328 173.142 78.9653 198.568 83.8884C231.791 90.3157 245.487 118.897 259.354 147.17C273.306 175.648 277.273 210.076 267.869 240.708C263.047 256.417 252.873 266.759 237.98 275.084C224.968 282.349 208.297 282.212 194.635 276.468C180.956 270.708 163.037 265.921 157.377 235.836L89.4101 269.511Z" fill="#E1E1E0"/>
<path d="M168.711 266.092C174.029 270.075 180.321 272.502 186.169 275.562C190.802 277.989 195.898 279.579 200.993 280.639C211.953 282.912 224.607 283.152 234.49 277.169C235.344 276.639 234.558 275.289 233.703 275.818C223.803 281.818 210.91 281.34 200.002 278.827C195.128 277.699 190.392 276.075 185.998 273.682C180.475 270.673 174.576 268.536 169.515 264.742C168.694 264.126 167.907 265.494 168.711 266.092Z" fill="#4F3422"/>
<path d="M212.196 239.427C200.227 260.692 180.939 272.538 169.107 265.889C157.275 259.239 157.377 236.607 169.346 215.342C181.315 194.077 200.603 182.231 212.435 188.881C224.25 195.53 224.148 218.163 212.196 239.427Z" fill="#4F3422"/>
<path d="M105.688 249.631C93.7188 270.895 74.4315 282.741 62.5992 276.092C50.767 269.442 50.8696 246.81 62.8386 225.545C74.8077 204.28 94.0949 192.434 105.927 199.084C117.742 205.733 117.64 228.366 105.688 249.631Z" fill="#4F3422"/>
<path d="M197.933 218.607C196.582 218.983 195.813 217.103 197.027 216.436C198.002 215.889 198.976 215.325 199.917 214.744C199.147 212.522 198.258 210.334 197.266 208.197C196.36 208.488 195.317 208.727 194.223 208.915C191.453 209.376 190.085 205.684 192.496 204.265C193.163 203.872 193.881 203.445 194.616 203.018C193.026 200.18 191.248 197.462 189.298 194.847L186.272 197.12C187.366 196.3 188.358 195.53 189.247 194.778C187.452 192.402 185.52 190.112 183.468 187.975C179.689 190.163 175.363 191.667 171.14 192.18C168.609 192.488 167.583 189.086 169.857 187.924C172.781 186.436 176.235 185.325 179.381 184.06C177.124 182.06 174.73 180.214 172.234 178.539C145.338 187.171 133.625 199.667 92.7594 202.573C73.4208 203.941 57.0745 241.547 64.3243 257.769C66.8036 263.308 71.3519 266.197 76.9944 267.632C89.5791 270.863 103.001 269.615 115.518 266.145C128.051 262.675 139.849 257.051 151.596 251.445C162.06 246.453 172.542 241.462 183.006 236.47C189.931 233.171 197.112 229.633 202.533 224.385C202.088 222.077 201.507 219.787 200.823 217.547C199.746 218.009 198.754 218.368 197.933 218.607Z" fill="#ED7E1C"/>
<path d="M177.212 105.615L130.72 71.4102C125.95 75.2392 121.162 79.0511 116.289 82.7263C116.734 95.3245 119.794 110.606 130.566 119.581L138.295 107.154C138.295 107.154 145.305 118.675 152.213 130.008C158.677 140.606 173.775 141.41 181.332 131.547C181.435 131.41 181.538 131.29 181.623 131.153C187.864 122.982 185.863 111.222 177.212 105.615Z" fill="#ED7E1C"/>
<path d="M150.313 77.1015C150.535 81.2553 147.338 84.8108 143.166 85.016C139.011 85.2382 135.454 82.0416 135.249 77.8707C135.027 73.7169 138.224 70.1614 142.396 69.9562C146.551 69.734 150.091 72.9306 150.313 77.1015Z" fill="#ED7E1C"/>
<path d="M142.416 81.0362C143.186 78.3866 143.955 75.72 144.776 73.0875C145.067 72.1302 143.562 71.7029 143.271 72.6772C142.451 75.3268 141.681 77.9764 140.912 80.6259C140.621 81.6003 142.143 82.0105 142.416 81.0362Z" fill="#4F3422"/>
<path d="M138.277 107.173L152.606 130.42L143.339 97.6172L138.277 107.173Z" fill="#4F3422"/>
<path d="M116.7 85.957C116.085 90.7604 115.794 95.8031 116.119 100.641C116.153 101.154 116.786 101.718 117.299 101.307C118.82 100.128 120.359 98.9484 121.881 97.7689C122.668 97.1706 121.881 95.8031 121.095 96.4185C119.573 97.598 118.034 98.7775 116.512 99.9569C116.905 100.179 117.299 100.401 117.692 100.641C117.384 95.8031 117.675 90.7604 118.273 85.957C118.376 84.9485 116.82 84.9656 116.7 85.957Z" fill="#4F3422"/>
<path d="M125.641 89.018C127.864 88.8129 130.086 88.6249 132.309 88.4198C133.301 88.3343 133.318 86.7616 132.309 86.8471C130.086 87.0522 127.864 87.2403 125.641 87.4454C124.649 87.548 124.632 89.1035 125.641 89.018Z" fill="#4F3422"/>
<path d="M123.916 84.0603C126.207 82.2825 128.344 80.3338 130.328 78.2312C131.012 77.4962 129.917 76.3851 129.216 77.1201C127.233 79.2227 125.095 81.1714 122.804 82.9492C122.018 83.5645 123.129 84.6756 123.916 84.0603Z" fill="#4F3422"/>
<path d="M127.745 104.334C127.848 104.317 127.728 104.317 127.694 104.317C127.591 104.283 127.557 104.249 127.489 104.18C127.403 104.095 127.506 104.249 127.472 104.146C127.455 104.078 127.455 104.078 127.472 104.146C127.472 104.112 127.455 104.078 127.455 104.044C127.455 103.839 127.643 103.668 127.831 103.633C127.899 103.616 127.968 103.616 128.019 103.65C128.07 103.668 128.173 103.77 128.087 103.685C128.121 103.736 128.156 103.77 128.173 103.839C128.173 103.873 128.19 103.907 128.19 103.941C128.104 104.095 128.019 104.249 127.916 104.386C127.745 104.522 127.489 104.471 127.352 104.317C127.249 104.197 127.215 104.044 127.266 103.873C127.352 103.77 127.437 103.65 127.523 103.548C127.574 103.514 127.677 103.497 127.728 103.497C127.762 103.497 127.797 103.514 127.831 103.514C127.762 103.497 127.762 103.497 127.831 103.514C127.916 103.531 127.968 103.599 128.002 103.702C128.104 103.89 128.139 103.924 128.121 103.821C128.036 103.411 127.54 103.172 127.164 103.274C126.736 103.394 126.531 103.821 126.617 104.232C126.856 105.411 128.805 105.257 128.805 104.027C128.805 102.83 126.942 102.454 126.634 103.685C126.36 104.779 127.814 105.719 128.634 104.881C129.353 104.18 128.771 102.676 127.711 102.796C127.301 102.847 126.907 103.121 126.925 103.582C126.993 103.941 127.318 104.386 127.745 104.334Z" fill="#4F3422"/>
<path d="M185.895 250.21C167.514 245.51 120.476 205.031 103.634 176.587C98.6581 168.194 94.5715 159.579 92.5197 150.04C91.4424 145.049 93.2036 139.647 96.4524 139.442C94.5715 135.716 96.6404 131.596 100.265 129.528C101.616 128.741 103.565 130.485 104.437 129.186C105.156 128.109 105.138 126.724 105.087 125.425C104.796 118.912 106.181 108.776 109.858 103.083C111.414 100.673 115.21 101.716 115.278 104.588C115.329 106.656 115.073 108.844 114.799 110.006C113.158 117.083 114.44 123.083 115.004 130.348C115.398 135.374 116.902 139.391 119.536 142.912C121.673 145.767 126.272 144.143 126.067 140.57C125.913 137.801 124.853 134.895 123.383 132.775C121.964 130.758 120.442 127.938 119.604 125.117C118.561 121.562 120.801 117.955 123.793 120.126C141.593 133.066 142.448 141.681 152.587 151.288C168.968 166.792 185.502 182.416 204.67 194.296C208.363 196.587 212.313 198.895 214.519 202.638C218.981 210.194 215.459 223.288 211.389 231.065C204.037 245.185 193.915 252.245 185.895 250.21Z" fill="#ED7E1C"/>
<path d="M186.102 249.442C179.724 247.75 173.842 243.921 168.404 240.28C160.471 234.964 152.999 228.964 145.817 222.69C130.993 209.733 116.39 195.289 105.772 178.588C101.976 172.622 98.6419 166.28 96.1626 159.648C94.8973 156.28 93.6833 152.691 93.1362 149.118C92.7087 146.298 92.9139 140.725 96.6414 140.178C97.1885 140.092 97.2911 139.426 97.103 139.033C95.7523 135.939 97.2398 131.187 100.848 130.366C102.301 130.041 103.891 130.998 105.02 129.631C106.217 128.195 105.823 125.836 105.789 124.144C105.755 121.563 105.943 118.964 106.319 116.417C106.644 114.144 107.106 111.87 107.773 109.665C108.354 107.751 109.5 103.118 111.774 102.571C115.535 101.665 114.356 107.87 114.014 109.785C113.484 112.64 113.124 115.392 113.193 118.298C113.295 123.631 113.637 129.511 114.851 134.708C115.604 137.939 117.416 143.562 120.87 144.845C123.555 145.836 126.513 143.99 126.821 141.152C127.333 136.161 123.486 132.212 121.537 128.024C120.836 126.503 120.015 124.691 120.152 122.981C120.22 122.007 120.477 120.605 121.657 120.281C122.392 120.075 123.657 121.067 124.204 121.392C126.872 122.999 129.351 125.409 131.625 127.528C134.84 130.52 137.747 133.819 140.38 137.34C142.483 140.161 144.432 143.067 146.604 145.836C149.459 149.46 152.793 152.554 156.128 155.716C164.797 163.887 173.551 172.007 182.801 179.511C187.23 183.101 191.761 186.554 196.429 189.819C201.217 193.152 206.859 195.819 211.151 199.784C220.145 208.109 214.742 223.682 209.629 232.69C205.218 240.434 196.515 251.869 186.102 249.442C185.127 249.22 184.699 250.724 185.691 250.946C194.035 252.878 201.576 246.468 206.363 240.382C212.758 232.263 217.597 221.511 217.375 210.998C217.272 206.092 215.682 201.699 211.955 198.383C207.56 194.485 202.037 191.784 197.216 188.434C185.965 180.622 175.586 171.596 165.498 162.315C157.769 155.186 150.194 148.332 144.056 139.768C141.525 136.229 138.909 132.742 135.917 129.58C134.139 127.699 132.241 125.922 130.274 124.229C128.291 122.537 125.829 119.939 123.367 118.981C119.383 117.443 118.1 122.383 118.835 125.306C119.502 127.973 120.973 130.554 122.477 132.828C123.948 135.067 126.957 140.537 124.307 142.845C121.298 145.426 118.887 140.81 117.827 138.554C116.322 135.306 115.929 131.904 115.604 128.383C115.313 125.323 114.92 122.281 114.8 119.204C114.663 115.699 115.228 112.434 115.758 108.982C116.065 106.999 116.613 104.195 115.313 102.452C114.304 101.118 112.423 100.606 110.885 101.238C109.089 101.973 108.234 104.178 107.533 105.836C106.353 108.605 105.584 111.546 105.071 114.503C104.592 117.255 104.302 120.041 104.25 122.828C104.233 123.99 104.712 125.973 104.284 126.998C104.028 127.306 103.772 127.597 103.515 127.904C103.259 128.742 102.797 128.998 102.164 128.674C101.651 128.759 101.138 128.486 100.591 128.605C98.4538 129.05 96.4362 131.614 95.6155 133.494C94.6921 135.648 94.846 137.751 95.7694 139.87C95.9232 139.494 96.0771 139.101 96.231 138.725C91.6144 139.409 91.0501 145.921 91.5973 149.494C92.6403 156.178 95.4616 162.776 98.4538 168.81C103.156 178.263 109.192 186.827 115.98 194.895C129.881 211.391 146.108 226.417 163.668 238.946C170.319 243.699 177.672 248.895 185.691 251.015C186.666 251.22 187.076 249.699 186.102 249.442Z" fill="#4F3422"/>
<path d="M103.002 129.698C103.601 137.698 105.789 145.202 109.876 152.125C110.389 152.997 111.74 152.21 111.227 151.339C107.277 144.655 105.157 137.424 104.575 129.698C104.507 128.689 102.934 128.689 103.002 129.698Z" fill="#4F3422"/>
<path d="M95.7365 139.665C96.1469 146.554 98.0107 153.135 101.259 159.221C101.738 160.11 103.089 159.323 102.61 158.435C99.4982 152.588 97.7029 146.281 97.3096 139.665C97.2412 138.674 95.6681 138.674 95.7365 139.665Z" fill="#4F3422"/>
<path d="M109.517 108.211C111.706 107.357 113.176 105.22 113.005 102.844C112.937 101.852 111.364 101.835 111.449 102.844C111.569 104.485 110.68 106.092 109.107 106.707C108.167 107.066 108.577 108.587 109.517 108.211Z" fill="#4F3422"/>
<path d="M123.57 120.162C122.869 123.461 125.195 126.641 128.512 127.085C129.504 127.222 129.504 125.649 128.512 125.513C126.221 125.205 124.613 122.778 125.075 120.572C125.28 119.598 123.776 119.171 123.57 120.162Z" fill="#4F3422"/>
<path d="M117.432 153.034C118.68 151.957 119.911 150.863 121.16 149.786C121.912 149.12 120.801 148.026 120.048 148.675C118.8 149.752 117.569 150.846 116.321 151.923C115.568 152.59 116.68 153.684 117.432 153.034Z" fill="#E1E1E0"/>
<path d="M108.798 161.852C109.875 160.775 110.952 159.698 112.029 158.621C112.747 157.904 111.636 156.81 110.918 157.51C109.841 158.587 108.763 159.664 107.686 160.741C106.985 161.459 108.079 162.57 108.798 161.852Z" fill="#E1E1E0"/>
<path d="M101.943 169.239C102.592 168.641 103.225 168.025 103.875 167.427C104.61 166.743 103.499 165.632 102.763 166.316C102.114 166.914 101.481 167.53 100.831 168.128C100.096 168.829 101.207 169.923 101.943 169.239Z" fill="#E1E1E0"/>
<path d="M135.591 140.827C136.89 140.246 138.275 139.99 139.694 139.99C140.703 139.99 140.703 138.434 139.694 138.434C137.984 138.417 136.36 138.793 134.804 139.477C133.898 139.887 134.684 141.238 135.591 140.827Z" fill="#E1E1E0"/>
<path d="M186.101 180.159C188.478 177.083 191.915 173.647 195.642 174.792C198.737 175.766 200.003 179.373 200.823 182.501C201.849 180.604 203.114 178.484 205.474 178.433C206.671 178.399 207.817 178.963 208.672 179.818C210.262 181.39 210.809 183.578 211.339 185.681C211.647 182.86 215.921 182.159 218.042 184.04C220.162 185.92 220.606 189.031 220.812 191.852C221.376 199.527 221.188 207.527 217.7 214.433C217.272 215.27 216.503 215.903 215.562 216.04C213.186 216.364 212.365 213.304 212.331 211.048C212.211 205.099 210.159 190.364 210.159 190.364C210.159 190.364 208.757 201.834 207.646 206.262C207.321 207.561 207.287 208.997 206.62 210.569C204.79 214.98 198.806 213.903 198.891 209.134C198.942 206.176 199.25 203.202 199.301 200.723C199.421 196.108 199.541 191.493 199.661 186.86C195.249 194.946 190.188 203.612 181.468 206.792C181.074 206.928 180.63 206.98 180.219 206.877C178.663 206.484 178.766 204.655 179.125 203.305C180.955 196.313 186.751 189.493 190.957 183.612L186.101 180.159Z" fill="#ED7E1C"/>
<path d="M186.649 180.724C188.547 178.331 191.368 174.861 194.788 175.459C198.173 176.058 199.268 179.852 200.054 182.724C200.225 183.357 201.166 183.511 201.491 182.912C202.619 180.844 204.312 178.211 207.133 179.647C209.373 180.793 210.04 183.681 210.587 185.904C210.775 186.639 211.938 186.673 212.092 185.904C212.485 184.023 214.657 183.408 216.349 183.989C218.128 184.605 219.034 186.502 219.495 188.194C220.333 191.322 220.282 194.895 220.265 198.109C220.248 201.579 219.957 205.083 219.085 208.451C218.726 209.835 218.128 213.134 217.016 214.057C216.093 214.331 215.152 214.587 214.229 214.861C213.921 214.519 213.699 214.126 213.579 213.681C213.272 212.929 213.186 212.16 213.118 211.356C212.605 204.263 211.887 197.22 210.895 190.177C210.758 189.22 209.459 189.596 209.356 190.382C208.587 196.553 207.954 202.998 206.278 209.015C205.646 211.288 203.577 213.784 201.029 212.092C198.84 210.639 199.695 206.98 199.832 204.775C200.208 198.827 200.242 192.844 200.396 186.895C200.413 186.126 199.302 185.818 198.943 186.502C195.096 193.51 190.838 201.237 183.469 205.083C182.408 205.647 180.015 207.305 179.656 204.587C179.536 203.613 180.254 202.126 180.596 201.237C181.434 199.032 182.597 196.963 183.845 194.963C186.221 191.169 188.991 187.681 191.608 184.058C192.189 183.237 190.838 182.451 190.257 183.271C188.513 185.699 172.337 206.382 180.203 207.715C182.049 208.023 184.426 206.433 185.897 205.493C187.966 204.177 189.812 202.536 191.454 200.707C195.062 196.707 197.729 191.989 200.311 187.288C199.832 187.152 199.336 187.032 198.857 186.895C198.755 190.861 198.652 194.81 198.55 198.775C198.464 202.348 197.729 206.211 198.105 209.767C198.464 213.151 202.021 215.322 205.098 213.527C207.202 212.297 207.714 209.938 208.142 207.715C208.569 205.459 209.065 203.203 209.441 200.929C210.006 197.425 210.484 193.921 210.929 190.399C210.416 190.468 209.903 190.536 209.39 190.604C209.92 194.399 210.399 198.194 210.809 201.989C211.083 204.553 211.357 207.117 211.493 209.698C211.596 211.664 211.527 213.903 212.793 215.562C213.904 217.015 215.819 217.254 217.29 216.143C219.513 214.468 220.35 210.126 220.898 207.596C221.65 204.057 221.872 200.399 221.821 196.792C221.77 193.493 221.821 189.835 220.658 186.69C219.786 184.365 218.042 182.416 215.443 182.263C213.22 182.126 211.066 183.254 210.604 185.528C211.1 185.528 211.613 185.528 212.109 185.528C211.339 182.434 210.074 178.434 206.415 177.801C203.32 177.254 201.473 179.784 200.157 182.177C200.636 182.246 201.114 182.297 201.593 182.365C200.687 179.015 199.285 174.929 195.506 174.023C191.334 173.015 187.897 176.758 185.589 179.664C184.922 180.399 186.033 181.511 186.649 180.724Z" fill="#4F3422"/>
<path d="M117.741 82.9495C107.585 79.8042 97.4451 76.6419 87.3056 73.4453C87.0833 75.6162 88.2118 77.6675 89.3061 79.5478C91.3751 83.1034 93.6321 86.8469 97.3083 88.6931C100.728 90.4025 104.849 90.129 108.44 88.8298C112.03 87.5307 115.176 85.2914 118.288 83.0863L117.741 82.9495Z" fill="#ED7E1C"/>
<path d="M105.295 195.579C100.764 191.579 95.2069 189.186 89.154 188.775C81.6477 188.28 74.1414 190.468 66.7719 188.314C66.8916 188.741 66.9942 189.186 67.1139 189.613C70.7217 186.399 76.0736 186.878 80.5705 187.049C85.5975 187.237 90.539 187.852 95.2582 189.63C95.395 189.134 95.5318 188.622 95.6686 188.126C90.3509 186.741 85.1187 185.083 79.972 183.152C77.356 182.16 74.5176 181.254 72.0725 179.87C71.6279 179.647 71.2175 179.374 70.8414 179.049C70.8585 178.126 70.8756 177.203 70.8927 176.28C71.1149 175.972 72.0896 175.801 72.4657 175.733C73.8849 175.459 75.5435 175.75 76.9285 175.989C87.1877 177.75 95.6173 184.707 103.38 191.169C104.15 191.801 105.261 190.707 104.492 190.058C99.3619 185.784 94.1468 181.493 88.2136 178.348C85.4265 176.878 82.4855 175.647 79.4078 174.895C76.843 174.263 73.6968 173.562 71.132 174.468C69.5419 175.032 68.2424 176.331 68.5672 178.143C68.9776 180.434 71.6792 181.442 73.5259 182.229C80.5705 185.237 87.8374 187.699 95.2582 189.63C96.25 189.887 96.609 188.468 95.6686 188.126C90.2141 186.075 84.4348 185.579 78.6555 185.442C74.1756 185.34 69.5077 185.391 65.9854 188.519C65.5408 188.929 65.7973 189.664 66.3273 189.818C72.5854 191.647 78.9461 190.485 85.3239 190.28C92.3515 190.075 98.849 191.972 104.167 196.656C104.936 197.34 106.047 196.246 105.295 195.579Z" fill="#4F3422"/>
<path d="M122.973 73.7524C123.947 68.6926 124.238 63.5645 123.657 58.4363C123.298 55.291 122.528 51.5475 119.946 49.4278C114.68 45.1202 108.285 53.9577 110.269 58.9833C113.09 66.1115 122.289 52.009 123.435 49.5304C124.324 47.6159 125.88 43.5475 122.682 42.8296C121.109 42.4706 119.348 43.4962 117.946 44.1116C115.843 45.0518 113.808 46.1629 111.876 47.4278C108.217 49.8381 104.917 52.7611 102.095 56.1115C100.232 58.3167 96.6068 62.0431 98.1798 65.2397C99.5477 68.026 103.104 67.1029 105.361 66.1798C109.277 64.573 113.021 62.4876 116.475 60.0431C123.571 55.0175 129.59 48.5218 134.138 41.1202C136.053 37.992 138.208 34.2826 135.934 30.7442C133.813 27.4451 129.812 27.069 126.307 27.9237C117.792 30.0091 109.123 34.7613 102.284 40.1629C94.9995 45.9236 89.4082 53.462 86.8092 62.4363C86.7408 62.6756 86.8092 63.0346 87.0144 63.2055C90.9642 66.4534 97.2907 62.1628 101.104 60.3166C106.592 57.6842 111.91 54.6586 116.817 51.0517C125.845 44.4193 135.215 34.5048 137.507 23.1374C140.345 9.37681 121.554 11.3255 113.517 13.958C107.601 15.9067 102.164 19.0861 97.2565 22.8981C92.144 26.8468 86.9631 31.5818 83.2698 36.9151C80.705 40.6245 78.5848 46.7099 83.133 49.8894C87.4077 52.8808 93.6829 50.2483 98.0088 48.727C110.662 44.2826 123.537 37.3253 132.856 27.5305C134.805 25.4793 136.6 23.2571 138.122 20.8639C139.593 18.5733 141.987 15.1545 141.388 12.2486C140.396 7.47938 133.728 8.62467 130.342 9.01783C117.467 10.5392 104.968 14.9836 93.8539 21.6844C88.16 25.1203 82.8081 29.1374 77.9179 33.6331C73.0961 38.0775 68.3085 43.0005 65.7095 49.1201C64.7349 51.4278 64.3416 53.5475 65.7266 55.7697C67.0945 57.9577 69.5054 59.6158 71.8479 60.5901C76.8407 62.6927 82.5688 62.026 87.6642 60.6414C94.2642 58.8637 100.676 55.8722 106.763 52.7953C112.987 49.6671 119.365 46.2484 124.563 41.5475C129.128 37.4108 132.634 32.0091 133.694 25.8724C134.155 23.2058 134.412 19.787 133.232 17.2571C132.138 14.8981 129.402 14.1118 127.094 13.4622C107.311 7.83836 71.5914 22.693 80.4143 48.0945C81.919 52.4193 84.9455 56.0261 89.4424 57.3423C95.256 59.0517 102.506 58.1115 108.405 57.2056C120.374 55.3936 132.822 50.2312 140.738 40.7441C144.295 36.4877 146.979 30.5732 144.603 25.1032C142.619 20.5391 137.746 18.1802 133.061 17.428C120.134 15.3768 107.191 21.4793 97.0342 28.9151C92.3834 32.3339 86.5356 36.2655 83.817 41.5133C81.5941 45.7868 82.9278 50.7099 88.2626 50.9492C94.5207 51.2227 101.565 48.6586 107.242 46.2825C113.569 43.633 119.536 40.1458 125.213 36.2997C130.753 32.539 136.053 28.4194 141.286 24.2314C141.952 23.7015 141.2 22.7955 140.516 22.9323C122.716 26.1972 106.387 34.7954 93.1357 47.0347C92.7254 47.4107 92.9134 47.9748 93.2896 48.2654C97.7011 51.5133 103.173 49.1543 107.652 47.2911C112.765 45.1543 117.775 42.7612 122.511 39.8723C127.265 36.9664 131.762 33.5818 135.677 29.5989C137.592 27.6502 139.388 25.5476 140.961 23.3254C142.021 21.8554 142.927 20.1289 141.764 18.4195C140.721 16.8981 138.652 16.6075 136.977 16.4537C133.66 16.1631 130.325 16.4708 127.059 17.0349C120.665 18.146 114.338 20.0605 108.234 22.2314C96.0938 26.5733 84.5009 32.539 73.9681 39.9407C69.5054 43.0689 65.2307 46.556 61.7255 50.7611C60.1182 52.6928 58.6648 54.7611 57.4508 56.9833C56.5275 58.6756 54.6809 61.5987 55.3306 63.65C55.912 65.4106 58.2716 66.2482 59.8447 66.7781C62.4436 67.6499 65.1965 67.7183 67.8981 67.3422C73.592 66.573 78.978 64.0431 84.176 61.7183C105.378 52.2483 125.435 39.257 139.593 20.5562C142.175 17.1545 145.27 12.8811 140.345 9.90672C135.951 7.24007 129.693 9.13749 124.991 9.83834C113.688 11.5135 102.386 13.4793 91.443 16.8297C80.5169 20.1631 69.9671 24.9323 60.8706 31.9066C53.7575 37.3595 43.2077 46.5048 50.4575 56.0261C57.7244 65.5816 73.4552 60.556 82.5004 56.7953C94.1616 51.9577 105.088 44.6415 115.159 37.086C120.134 33.3596 124.888 29.2741 128.992 24.6075C132.411 20.7272 135.626 16.1631 135.25 10.7443C135.147 9.25715 134.668 6.28281 133.318 5.37683C132.565 4.88111 131.42 5.05205 130.565 5.01786C128.94 4.94949 127.333 4.93239 125.709 4.96658C119.468 5.12042 113.244 6.0435 107.208 7.59904C95.1363 10.7101 83.7828 16.2486 73.4381 23.0861C68.6505 26.2485 62.9737 29.6673 59.7763 34.5732C57.2799 38.4023 56.4933 43.9407 59.6053 47.6672C62.7514 51.4449 68.4111 51.9577 72.9593 52.3509C79.2516 52.8979 85.6294 52.3851 91.802 51.0688C102.916 48.727 115.261 43.9065 123.486 35.8211C127.111 32.2655 129.658 27.9066 130.359 22.8468C130.411 22.4195 130.257 22.0263 129.812 21.8895C117.604 18.2144 104.352 20.1289 93.3922 26.522C87.7496 29.804 82.6201 34.2484 78.7558 39.5305C74.635 45.1373 80.0895 49.8723 85.4755 51.5988C92.0756 53.7184 99.7529 52.5902 106.285 50.8295C113.705 48.8295 120.699 45.3766 127.213 41.3253C132.565 37.992 140.328 33.8895 142.585 27.5476C144.637 21.7699 139.986 16.6246 134.207 16.5221C129.932 16.4537 125.503 18.3169 121.605 19.8896C117.741 21.4622 113.996 23.3254 110.491 25.5818C104.37 29.4792 97.6327 34.9493 97.8721 42.915C97.8892 43.3595 98.214 43.6672 98.6586 43.7014C114.919 44.727 130.154 36.0946 139.251 22.8639C139.593 22.3682 139.131 21.6844 138.567 21.6844C124.358 21.8554 111.141 28.5904 101.856 39.2228C101.377 39.7698 101.736 40.4706 102.403 40.5561C109.072 41.3424 115.757 39.445 121.263 35.6159C123.947 33.7527 126.324 31.4621 128.325 28.8639C130.257 26.3511 132.77 22.7955 133.044 19.5306C133.625 12.7956 121.519 14.4879 117.809 15.1204C113.945 15.7699 110.183 17.052 106.695 18.8468C104.882 19.7699 103.156 20.8468 101.497 22.0434C100.505 22.7784 99.1544 23.5477 98.727 24.7784C96.47 31.3083 111.175 26.71 112.885 26.163C116.903 24.881 120.818 23.24 124.546 21.24C127.743 19.5306 131.608 17.6161 133.848 14.6588C135.626 12.2999 135.899 9.30843 134.258 6.79563C132.497 4.11188 129.402 3.20591 126.341 3.06916C118.561 2.71018 110.303 3.77001 102.779 5.7529C95.1534 7.76998 87.8693 11.1717 81.8164 16.2656C77.405 19.975 72.4635 27.2912 77.4734 32.5903C81.8848 37.257 90.1777 35.4963 95.5637 34.0775C103.703 31.9408 111.192 27.8895 118.168 23.2741C121.861 20.8297 125.452 18.1973 128.975 15.4964C131.232 13.7699 135.027 11.6845 135.352 8.50502C136.053 1.78711 122.973 5.65034 119.964 6.41956C105.549 10.1289 89.1688 20.0947 83.7828 34.6929C82.5517 38.0262 82.2268 41.633 84.2786 44.7099C85.9714 47.2569 88.7414 48.8808 91.5798 49.8381C99.4109 52.4705 107.806 50.1287 115.107 46.9834C123.298 43.445 131.129 38.898 138.55 33.9407C145.184 29.4963 152.776 24.6246 157.769 18.2656C159.838 15.6503 161.137 12.7785 161.53 9.46228C161.565 9.1204 161.257 8.79561 160.949 8.71014C145.475 4.48795 129.334 10.3341 114.783 15.411C101.993 19.8896 89.6134 27.0177 85.0994 40.5903C84.7745 41.5475 86.2963 41.9578 86.604 41.0005C91.1523 27.2912 104.113 20.6588 116.937 16.3169C130.787 11.6332 145.868 6.21443 160.522 10.2144C160.333 9.958 160.145 9.71868 159.94 9.46228C159.137 16.2486 153.545 20.7443 148.535 24.7271C143.218 28.9322 137.661 32.8125 131.881 36.351C125.914 39.992 119.69 43.4621 113.21 46.1116C106.986 48.6586 99.9752 50.5047 93.2896 48.7441C90.1606 47.9065 86.8947 46.2825 85.2533 43.3424C83.2527 39.7698 84.8942 35.4963 86.6211 32.163C89.5621 26.4707 94.2642 21.8724 99.3596 18.0776C104.712 14.0947 110.696 10.9494 117.057 8.91527C119.81 8.04348 122.614 7.34263 125.452 6.8811C127.059 6.62469 128.735 6.36828 130.377 6.2999C131.693 6.24862 134.19 6.09478 133.728 8.74433C133.557 9.78706 132.565 10.6247 131.83 11.3084C129.316 13.6845 126.187 15.6845 123.4 17.7186C120.682 19.7015 117.929 21.616 115.09 23.4109C109.619 26.8639 103.857 29.8895 97.6669 31.8553C92.5373 33.4792 84.86 35.6843 79.8672 32.539C72.4464 27.8724 80.363 19.2058 84.7916 15.8896C94.8969 8.31699 107.601 5.44521 120.015 4.77855C123.144 4.60761 126.803 4.16317 129.778 5.27427C134.668 7.10332 134.685 12.2144 131.043 15.3084C126.016 19.599 119.109 22.522 112.902 24.5391C111.158 25.1032 109.397 25.5989 107.601 26.0092C106.011 26.3852 103.412 27.3596 101.788 26.8297C98.4021 25.7186 102.386 23.2912 103.72 22.4024C105.173 21.4451 106.678 20.5733 108.251 19.8212C111.534 18.2314 115.039 17.1203 118.647 16.5733C121.827 16.0776 126.393 15.5306 129.47 16.7443C136.361 19.4451 123.075 32.5049 120.169 34.4878C114.919 38.0433 108.73 39.7356 102.403 39.0005C102.591 39.445 102.779 39.8894 102.95 40.3339C111.961 29.9921 124.734 23.428 138.55 23.2571C138.327 22.8639 138.105 22.4707 137.883 22.0776C129.077 34.8638 114.338 43.1202 98.6415 42.1287C98.898 42.3851 99.1545 42.6586 99.428 42.915C99.2228 36.0262 104.865 31.2057 110.115 27.6844C115.364 24.1801 121.126 21.4964 127.111 19.5477C130.428 18.4708 134.343 17.24 137.695 18.8639C141.559 20.7272 142.448 25.1374 140.345 28.6758C137.267 33.8724 130.684 37.3937 125.657 40.4535C115.296 46.7783 102.814 52.1287 90.3999 50.9663C87.4932 50.6928 84.5864 49.9406 82.1413 48.2825C80.2946 47.0347 78.448 45.1885 78.7558 42.7441C78.9609 41.1031 80.9444 39.2228 81.9703 38.0262C85.5268 33.9066 89.7844 30.3852 94.5207 27.6844C105.088 21.6502 117.724 19.8725 129.419 23.3938C129.231 23.069 129.06 22.7442 128.872 22.4365C127.453 32.6245 118.544 38.7612 109.995 43.0176C99.941 48.0261 88.7927 51.0859 77.5247 51.0005C72.6173 50.9663 65.6924 50.9663 61.7255 47.5817C56.5104 43.1544 60.0156 35.7527 64.068 31.992C68.0178 28.3169 72.7712 25.2912 77.3366 22.4536C81.8506 19.6502 86.5185 17.1033 91.3746 14.8981C101.223 10.4195 111.807 7.37682 122.631 6.67597C125.127 6.52212 127.624 6.47084 130.12 6.55631C131.351 6.60759 132.172 6.47084 132.856 7.54776C133.694 8.8298 133.779 10.7956 133.694 12.2657C133.369 17.975 128.889 22.6246 125.093 26.4878C117.433 34.2484 108.2 40.4022 99.0177 46.18C89.8186 51.9748 79.9527 57.2568 69.1292 59.1713C63.7944 60.1115 57.3653 60.5218 53.0736 56.5902C48.0637 51.9919 49.1067 45.6501 53.2275 40.898C59.554 33.616 68.2572 28.0946 76.9091 24.0092C85.6807 19.8725 95.0337 17.1203 104.489 15.052C113.842 13.0007 123.588 11.0691 133.147 10.2657C135.694 10.0606 139.319 10.0606 140.909 12.4708C142.756 15.2571 138.687 19.24 137.062 21.3084C134.002 25.1887 130.65 28.8468 127.077 32.2655C119.878 39.1544 111.807 45.0689 103.258 50.1629C94.8114 55.2056 85.8688 59.6158 76.721 63.2397C71.7453 65.2055 66.0002 67.0345 60.6654 65.4277C59.1436 64.9662 56.8182 64.2311 56.8866 62.1457C56.9208 61.0175 57.9296 59.5303 58.4255 58.5389C59.7079 56.0432 61.2809 53.7355 63.0934 51.5988C69.6593 43.8723 78.7387 38.2313 87.5274 33.3596C97.0855 28.0433 107.242 23.8382 117.775 20.8639C123.366 19.2913 129.18 17.8041 135.045 17.9409C136.207 17.975 137.9 17.8383 138.943 18.3682C141.576 19.6844 140.106 21.9066 138.892 23.4964C137.302 25.5818 135.54 27.5476 133.66 29.3767C126.512 36.351 117.655 41.2911 108.542 45.2227C104.216 47.086 98.4363 50.1458 94.0761 46.915C94.1274 47.3253 94.1787 47.7355 94.23 48.1458C107.311 36.0775 123.383 27.6673 140.926 24.4536C140.67 24.0263 140.413 23.5818 140.157 23.1545C128.547 32.4536 116.253 41.821 101.959 46.6244C98.6928 47.7184 95.3415 48.5731 91.9217 49.0859C90.3828 49.3253 88.6046 49.6329 87.0486 49.2569C83.5776 48.4022 83.8683 44.8296 85.1507 42.3168C86.7579 39.1544 89.6989 36.8467 92.3492 34.5903C95.4611 31.9408 98.7441 29.4621 102.198 27.257C108.148 23.4622 114.697 20.4366 121.69 19.2058C127.863 18.1289 135.985 18.0092 140.892 22.5904C147.219 28.4878 142.38 37.1715 137.37 42.0262C132.172 47.0689 125.777 50.727 118.955 53.0517C112.628 55.2056 105.977 56.2483 99.3254 56.4705C92.4347 56.6927 85.7491 56.1115 82.5346 49.2227C80.1236 44.0603 80.2091 37.5305 82.4833 32.3168C85.2532 25.9921 90.9984 21.5306 97.1197 18.7101C103.737 15.6503 111.346 13.7528 118.647 13.8554C122.101 13.9067 127.641 14.2315 130.513 16.4708C133.796 19.0349 132.411 25.4964 131.334 28.7784C128.838 36.3852 122.733 41.7185 116.133 45.8039C109.414 49.9748 102.232 53.5133 94.8969 56.4705C88.9637 58.8637 82.3294 61.2055 75.8319 60.1286C72.549 59.5816 68.9069 57.9064 67.0603 54.9833C64.8375 51.4962 68.7189 46.2484 70.8049 43.4621C79.3371 32.1117 92.2979 23.2571 105.139 17.5648C111.431 14.7785 118.066 12.693 124.837 11.411C128.171 10.7785 131.659 10.1631 135.062 10.1289C136.583 10.1118 138.652 10.2828 139.559 11.7187C140.79 13.6674 138.635 16.8981 137.661 18.6075C130.325 31.257 115.894 39.7527 102.745 45.2227C99.3767 46.6244 95.9228 47.8894 92.4005 48.8637C89.5792 49.65 85.6807 50.4193 83.3895 48.0432C77.8324 42.2655 88.673 32.6758 92.5031 29.0348C102.078 19.9408 116.681 10.7614 130.565 14.0947C140.208 16.4024 135.062 27.1545 131.744 32.8296C128.427 38.4706 123.965 43.3595 118.903 47.4962C114.047 51.4791 108.644 54.7611 103.053 57.6158C100.591 58.8808 98.0943 60.0431 95.5637 61.1542C94.0249 61.8209 91.9559 63.0517 90.2119 62.8807C87.8864 62.6414 88.6046 61.8722 89.0491 60.6072C89.4424 59.4619 89.9041 58.3337 90.417 57.2226C95.786 45.6159 106.627 37.7185 118.048 32.6758C120.836 31.445 123.777 30.163 126.752 29.445C129.214 28.8639 131.83 28.7784 133.796 30.6074C136.327 32.9493 135.335 35.9407 133.882 38.5561C130.633 44.4535 126.205 49.821 121.195 54.3338C116.27 58.7611 110.422 62.744 104.164 65.0175C103.446 65.2739 102.66 65.5645 101.89 65.5816C99.77 65.6157 99.1886 63.3935 99.9923 61.7354C100.779 60.1115 102.095 58.6073 103.241 57.2397C105.703 54.3167 108.542 51.6842 111.671 49.4962C114.27 47.6842 117.091 46.0945 120.066 44.9492C120.989 44.5902 122.699 43.633 123.11 45.6672C123.264 46.4364 122.374 48.18 122.118 48.7612C121.314 50.5047 120.34 52.1799 119.177 53.7184C118.1 55.1714 116.852 56.5218 115.484 57.7013C114.646 58.4192 113.244 59.9919 111.944 58.8466C111.448 58.4021 111.5 57.1543 111.534 56.556C111.705 52.9834 116.048 47.3937 119.519 51.1714C121.896 53.7526 122.169 58.009 122.357 61.3081C122.58 65.3593 122.255 69.3935 121.485 73.3593C121.263 74.3165 122.768 74.7439 122.973 73.7524Z" fill="#4F3422"/>
<path d="M205.509 206.06C203.064 207.582 201.918 210.573 202.79 213.325C203.098 214.283 204.603 213.872 204.295 212.915C203.628 210.83 204.415 208.59 206.296 207.411C207.151 206.881 206.364 205.513 205.509 206.06Z" fill="#4F3422"/>
<path d="M218.316 207.938C215.478 209.049 213.597 211.647 213.477 214.707C213.443 215.715 215.016 215.715 215.05 214.707C215.136 212.399 216.572 210.297 218.726 209.459C219.667 209.083 219.256 207.579 218.316 207.938Z" fill="#4F3422"/>
<path d="M180.442 206.401C181.81 204.145 184.22 202.897 186.854 203.016C187.862 203.068 187.862 201.495 186.854 201.444C183.673 201.29 180.732 202.897 179.091 205.615C178.578 206.469 179.929 207.256 180.442 206.401Z" fill="#4F3422"/>
<path d="M222.437 193.377C227.43 190.676 232.884 188.967 238.527 188.249C241.433 187.873 244.357 187.753 247.281 187.89C248.734 187.958 250.171 188.078 251.607 188.266C252.633 188.402 255.437 188.471 256.292 189.12C258.002 190.437 254.121 190.556 253.18 190.659C251.795 190.813 250.427 190.915 249.042 191.018C246.118 191.223 243.195 191.377 240.271 191.599C234.816 192.043 229.379 192.796 224.249 194.813C223.446 195.137 223.531 196.3 224.454 196.351C231.379 196.71 238.253 194.642 245.144 195.787C251.316 196.813 257.079 199.855 261.063 204.693C261.063 204.317 261.063 203.958 261.063 203.582C259.096 205.787 255.112 204.642 252.616 204.214C249.538 203.684 246.477 203.086 243.434 202.419C237.364 201.086 231.379 199.462 225.446 197.616C224.489 197.308 224.078 198.83 225.036 199.12C232.217 201.377 239.501 203.257 246.871 204.744C249.948 205.36 253.095 206.078 256.207 206.351C258.361 206.539 260.635 206.402 262.157 204.71C262.465 204.368 262.431 203.941 262.157 203.599C258.19 198.778 252.479 195.65 246.375 194.437C239.04 192.984 231.79 195.189 224.437 194.796C224.506 195.308 224.574 195.821 224.642 196.334C231.824 193.496 239.552 193.206 247.161 192.71C248.615 192.608 261.422 192.847 258.429 188.59C257.25 186.915 253.488 186.949 251.675 186.71C248.153 186.249 244.58 186.146 241.04 186.42C234.252 186.932 227.635 188.778 221.633 192.026C220.761 192.505 221.548 193.855 222.437 193.377Z" fill="#4F3422"/>
</svg>
