<svg width="375" height="511" viewBox="0 0 375 511" fill="none" xmlns="http://www.w3.org/2000/svg">
<path d="M207.501 70.0806C214.302 56.4044 224.63 44.9652 237.546 36.8561C238.815 36.0681 237.647 34.0599 236.379 34.8479C223.132 43.1604 212.474 54.8792 205.496 68.9113C204.811 70.2585 206.816 71.4279 207.501 70.0806Z" fill="white"/>
<path d="M285.454 248.15C287.89 214.494 265.255 181.269 236.631 167.161C233.611 165.687 230.414 168.813 231.505 172.169C232.343 174.711 233.916 177.177 235.591 179.21C237.824 181.93 242.112 185.972 244.574 189.912C245.843 191.946 244.066 194.564 241.859 193.903C223.613 188.362 206.967 178.499 206.967 178.499C198.72 172.576 188.595 167.339 181.134 165.839C177.429 165.102 174.815 169.525 177.023 172.804C180.297 177.685 184.534 183.278 187.376 184.422C182.834 183.71 178.419 178.778 173.521 180.431C171.491 181.117 169.969 183.074 169.943 185.388C169.867 192.2 181.667 192.988 184.205 199.191C181.109 198.377 174.536 197.183 171.466 196.318C171.39 196.293 171.314 196.267 171.212 196.242C164.716 194.488 161.747 204.504 167.939 207.275L198.39 220.925C201.968 222.527 200.496 228.272 196.664 227.636L178.064 224.56C175.78 224.23 173.496 225.501 172.684 227.814C171.111 232.212 176.287 234.754 180.119 236.254C190.498 240.321 198.72 250.337 201.13 261.903C201.587 264.089 212.905 433.035 213.032 435.196C215.722 476.885 274.289 501.162 297.001 456.498L285.454 248.15Z" fill="#F6A460"/>
<path d="M229.324 224.539C235.237 228.81 242.976 232.852 246.732 239.308C250.31 245.46 250.919 252.908 251.503 259.823C251.63 261.297 253.939 261.322 253.812 259.823C253.203 252.476 252.492 244.647 248.711 238.139C244.727 231.276 236.709 227.056 230.466 222.531C229.299 221.641 228.132 223.649 229.324 224.539Z" fill="#4F3422"/>
<path d="M243.942 172.221C240.947 171.839 238.486 169.882 237.039 167.264C236.304 165.967 234.299 167.137 235.035 168.433C236.913 171.814 240.11 174.051 243.942 174.534C245.439 174.737 245.413 172.399 243.942 172.221Z" fill="#4F3422"/>
<path d="M212.117 197.186C202.829 191.593 193.542 186.001 184.254 180.408C182.96 179.646 181.793 181.654 183.087 182.416C192.375 188.009 201.662 193.601 210.95 199.194C212.218 199.956 213.411 197.948 212.117 197.186Z" fill="#4F3422"/>
<path d="M208.005 209.083C198.921 205.575 190.115 201.482 181.563 196.83C180.244 196.118 179.077 198.126 180.396 198.838C189.125 203.592 198.134 207.761 207.396 211.32C208.792 211.853 209.375 209.616 208.005 209.083Z" fill="#4F3422"/>
<path d="M232.163 197.139C230.108 199.248 228.585 201.689 227.494 204.409C226.936 205.807 229.194 206.392 229.727 205.019C230.666 202.68 232.037 200.57 233.813 198.765C234.853 197.723 233.204 196.071 232.163 197.139Z" fill="white"/>
<path d="M221.583 209.437C219.858 211.42 218.157 213.402 216.432 215.36C215.467 216.478 217.092 218.131 218.081 217.012C219.807 215.029 221.507 213.047 223.232 211.089C224.197 209.945 222.547 208.293 221.583 209.437Z" fill="white"/>
<path d="M204.912 233.076C204.303 235.135 203.364 237.016 202.095 238.77C201.207 239.99 203.237 241.134 204.1 239.939C205.47 238.033 206.485 235.923 207.145 233.686C207.576 232.262 205.343 231.652 204.912 233.076Z" fill="white"/>
<path d="M173.928 257.914C188.9 230.079 182.277 192.99 163.22 169.934C161.215 167.494 157.256 168.968 156.926 172.247C156.673 174.738 157.079 177.458 157.713 179.848C158.576 183.025 160.682 188.135 161.291 192.456C161.596 194.693 159.083 196.244 157.459 194.821C143.985 183.076 133.53 168.231 133.53 168.231C128.734 159.995 122.085 151.631 116.3 147.488C113.432 145.429 109.473 148.2 110.108 151.86C111.047 157.3 112.519 163.706 114.523 165.765C110.92 163.426 109.042 157.503 104.221 157.02C102.216 156.817 100.16 157.936 99.2723 159.867C96.5825 165.663 106.378 170.875 106.175 177.153C103.84 175.272 98.6887 171.739 96.3795 169.807C96.3287 169.756 96.2526 169.705 96.2018 169.654C91.3297 165.663 84.9349 173.086 89.1727 177.84L109.956 201.226C112.392 203.972 108.941 208.319 105.921 206.311L91.2028 196.549C89.3757 195.38 86.9396 195.609 85.3663 197.261C82.3466 200.413 85.7977 204.582 88.4875 207.327C95.8212 214.801 98.9932 226.52 96.6078 237.323C96.1511 239.382 -6.22757 463.421 -6.9381 465.302C-20.6157 501.958 33.4857 526.464 70.0016 497.001L173.928 257.914Z" fill="#4F3422"/>
<path d="M134.875 216.097C138.326 222.096 143.502 228.655 144.162 235.696C144.797 242.28 142.437 248.864 140.305 254.965C139.797 256.388 142.056 256.999 142.538 255.575C144.898 248.839 147.334 241.645 146.344 234.425C145.355 227.358 140.356 220.978 136.879 214.928C136.143 213.631 134.139 214.801 134.875 216.097Z" fill="#4F3422"/>
<path d="M167.687 177.049C165.302 175.575 163.855 173.083 163.601 170.287C163.475 168.813 161.14 168.787 161.292 170.287C161.597 173.897 163.398 177.125 166.52 179.057C167.789 179.845 168.956 177.837 167.687 177.049Z" fill="#4F3422"/>
<path d="M130.891 186.2C125.08 177.862 119.295 169.499 113.484 161.161C112.646 159.94 110.616 161.11 111.479 162.33C117.29 170.668 123.076 179.031 128.887 187.369C129.724 188.589 131.729 187.445 130.891 186.2Z" fill="#4F3422"/>
<path d="M122.819 194.746C116.399 188.263 110.436 181.4 104.904 174.13C104.016 172.96 101.986 174.104 102.899 175.299C108.533 182.722 114.623 189.763 121.17 196.372C122.235 197.466 123.885 195.813 122.819 194.746Z" fill="#4F3422"/>
<path d="M147.992 193.729C145.429 194.746 143.145 196.195 141.141 198.127C140.075 199.169 141.699 200.821 142.79 199.779C144.465 198.152 146.419 196.83 148.601 195.991C149.997 195.432 149.388 193.17 147.992 193.729Z" fill="white"/>
<path d="M133.961 200.287C131.728 201.329 129.521 202.346 127.288 203.388C125.943 204.024 127.11 206.032 128.455 205.396C130.688 204.354 132.896 203.337 135.129 202.295C136.474 201.659 135.306 199.651 133.961 200.287Z" fill="white"/>
<path d="M110.869 213.937C109.55 215.462 108.053 216.733 106.302 217.75C105.008 218.487 106.175 220.495 107.469 219.758C109.372 218.665 111.072 217.267 112.494 215.589C113.483 214.445 111.834 212.793 110.869 213.937Z" fill="white"/>
<path d="M89.8573 248.432C85.3404 247.288 81.1787 249.931 79.2502 254.075C77.144 258.651 78.7426 263.76 81.1026 267.904C87.0659 278.402 96.5819 287.681 106.098 294.926C115.868 302.399 127.008 308.119 138.934 311.169C143.806 312.415 149.846 313.61 154.134 310.178C158.068 307.051 158.474 301.687 158.677 297.035C158.753 295.536 156.418 295.536 156.368 297.035C156.114 302.73 155.124 309.288 148.222 310.025C143.629 310.508 138.604 308.78 134.291 307.382C125.688 304.56 117.593 300.315 110.234 295.078C102.799 289.816 96.1251 283.512 90.2887 276.521C87.0406 272.632 83.4118 268.361 81.5848 263.557C79.5801 258.269 81.6609 248.711 89.2483 250.643C90.6947 251.05 91.3037 248.813 89.8573 248.432Z" fill="#ED7E1C"/>
<path d="M88.2076 257.125C80.7725 257.1 69.1757 260.837 72.0939 270.7C73.2612 274.589 76.687 277.36 79.9097 279.52C84.5535 282.622 89.5779 285.291 94.6785 287.579C114.319 296.4 137.031 299.933 158.347 296.273C162.432 295.586 167.127 294.112 168.979 289.994C170.476 286.689 169.664 282.723 166.442 280.868C165.147 280.131 163.98 282.139 165.274 282.876C168.446 284.706 167.685 289.028 165.249 291.138C163.346 292.815 160.707 293.451 158.271 293.908C153.17 294.849 147.866 295.179 142.69 295.256C132.59 295.383 122.49 294.112 112.746 291.519C102.976 288.926 93.5873 285.011 84.8834 279.851C80.9248 277.487 75.2913 274.462 74.1748 269.556C72.3477 261.472 82.5234 259.413 88.2076 259.438C89.7048 259.464 89.7048 257.125 88.2076 257.125Z" fill="#ED7E1C"/>
<path d="M303.574 30.1222C301.29 26.7159 298.93 23.7163 296.545 21.098C256.933 -30.3529 200.979 23.6654 184.738 62.457C182.15 58.3643 179.13 54.2208 178.42 53.0768C172.253 43.0612 165.58 33.6302 157.028 25.8516C148.984 18.5305 139.62 12.4296 129.622 8.81995C115.538 1.93102 99.8306 -0.458494 84.6812 5.41362C64.482 13.2431 52.7583 33.7065 55.9557 56.7374C60.3711 88.64 79.5045 117.848 96.7094 143.37C117.619 174.434 175.831 221.741 175.831 221.741C176.72 221.284 177.582 220.826 178.471 220.343C179.46 221.182 179.993 221.639 179.993 221.639C211.84 205.726 242.849 178.959 266.728 148.378C288.069 121.051 326.158 63.7534 303.574 30.1222Z" fill="#C2B1FF"/>
<path d="M364.805 355.605C362.217 351.359 300.959 250.059 298.396 245.814C285.582 224.715 276.218 202.015 267.159 179.035C257.998 155.775 262.946 128.067 279.847 110.044C280.608 109.23 283.755 107.756 284.846 107.502C287.104 106.993 289.185 109.408 289.21 111.721C289.236 114.035 287.891 116.145 286.521 118C284.237 121.127 281.724 124.203 280.506 127.889C279.288 131.575 279.694 136.1 282.613 138.642C286.825 138.921 288.754 133.557 289.413 129.389C291.824 114.314 293.803 98.6044 298.32 84.0131C299.386 80.5814 303.7 77.0734 306.999 78.4715C309.08 79.3612 309.663 82.0049 309.917 84.2673C311.414 97.8927 309.486 111.416 308.293 125.092C308.775 113.882 311.338 102.926 311.82 91.7155C311.947 88.6905 311.643 84.547 313.013 81.8524C314.383 79.1578 317.352 77.0225 320.296 77.5818C322.935 78.0902 324.813 80.5814 325.447 83.1743C326.107 85.7672 326.234 89.5294 325.955 92.1985C324.635 104.4 324.381 116.729 325.193 128.982C325.346 119.144 326.437 109.332 328.492 99.7229C329.177 96.5708 330.269 93.012 333.187 91.6647C336.689 90.0632 340.901 92.7578 342.424 96.2658C343.972 99.7738 343.591 103.79 343.388 107.629C341.713 137.574 343.769 186.076 456.285 333.184L364.805 355.605Z" fill="#4F3422"/>
<path d="M319.156 77.8637C317.785 83.2274 319.46 88.8453 323.698 92.455C324.84 93.4209 326.489 91.794 325.347 90.8026C321.744 87.7014 320.221 83.1003 321.414 78.4738C321.769 77.0248 319.536 76.4147 319.156 77.8637Z" fill="white"/>
<path d="M304.639 79.1831C302.229 84.0384 303.599 89.7071 307.888 93.0118C309.08 93.9269 310.222 91.8933 309.055 91.0036C305.832 88.5124 304.868 83.9876 306.644 80.3524C307.304 79.0052 305.299 77.8358 304.639 79.1831Z" fill="white"/>
<path d="M334.735 91.2575C333.872 94.613 334.177 98.0448 335.674 101.197C336.435 102.798 337.501 104.298 338.795 105.518C339.658 106.357 342.17 107.247 342.601 108.111C342.728 107.577 342.88 107.044 343.007 106.51C342.931 106.561 342.83 106.611 342.754 106.662C343.286 106.789 343.819 106.942 344.352 107.069C344.302 107.018 344.276 106.942 344.225 106.891C343.388 105.671 341.358 106.84 342.221 108.06C342.271 108.111 342.297 108.188 342.348 108.238C342.703 108.747 343.363 109.001 343.946 108.645C344.022 108.594 344.124 108.543 344.2 108.493C344.758 108.162 344.911 107.476 344.606 106.891C344.225 106.128 343.642 106.001 342.931 105.595C341.256 104.603 339.835 103.434 338.744 101.807C336.74 98.8582 336.131 95.274 336.993 91.8168C337.349 90.4187 335.115 89.8086 334.735 91.2575Z" fill="white"/>
<path d="M325.017 110.02C324.991 117.316 325.473 124.561 326.463 131.805C326.666 133.28 328.899 132.644 328.696 131.195C327.757 124.179 327.3 117.138 327.326 110.046C327.351 108.52 325.017 108.52 325.017 110.02Z" fill="white"/>
<path d="M309.054 99.0589C308.192 110.879 307.329 122.7 306.441 134.52C306.339 136.02 308.648 135.995 308.775 134.52C309.638 122.7 310.501 110.879 311.389 99.0589C311.491 97.5845 309.156 97.5845 309.054 99.0589Z" fill="white"/>
<path d="M340.167 140.978C337.578 141.08 335.117 141.588 332.706 142.554C331.336 143.088 331.945 145.351 333.315 144.791C335.523 143.902 337.781 143.393 340.141 143.292C341.664 143.241 341.664 140.902 340.167 140.978Z" fill="white"/>
<path d="M322.63 143.825C320.093 144.359 317.555 144.588 314.967 144.512C313.469 144.461 313.469 146.8 314.967 146.825C317.758 146.901 320.524 146.647 323.239 146.062C324.686 145.757 324.077 143.52 322.63 143.825Z" fill="white"/>
<path d="M304.282 144.009C301.262 144.289 298.242 144.568 295.223 144.848C293.751 144.975 293.726 147.314 295.223 147.161C298.242 146.881 301.262 146.602 304.282 146.322C305.754 146.195 305.754 143.882 304.282 144.009Z" fill="white"/>
<path d="M272.613 151.554C270.583 152.545 268.401 153.104 266.142 153.206C264.645 153.282 264.645 155.595 266.142 155.519C268.832 155.392 271.37 154.731 273.781 153.536C275.126 152.901 273.958 150.893 272.613 151.554Z" fill="white"/>
<path d="M276.068 116.628C281.396 118.992 287.157 114.29 285.406 108.545C284.974 107.121 282.716 107.731 283.173 109.155C284.264 112.764 280.838 116.222 277.26 114.62C275.89 114.035 274.697 116.018 276.068 116.628Z" fill="white"/>
<path d="M409.233 436L308.852 274.588L391.146 225.934L503.449 392.4L409.233 436Z" fill="#C2B1FF"/>
<path d="M292.078 217.927C292.687 221.587 290.2 225.07 286.546 225.68C282.892 226.29 279.416 223.799 278.807 220.138C278.198 216.478 280.684 212.995 284.339 212.385C287.993 211.775 291.469 214.266 292.078 217.927Z" fill="white"/>
<path d="M305.781 215.08C306.39 218.74 303.904 222.223 300.249 222.833C296.595 223.443 293.119 220.952 292.51 217.291C291.901 213.631 294.388 210.148 298.042 209.538C301.721 208.928 305.172 211.394 305.781 215.08Z" fill="white"/>
<path d="M328.16 205.93C328.769 209.591 326.282 213.074 322.628 213.684C318.974 214.294 315.498 211.803 314.889 208.142C314.28 204.481 316.766 200.999 320.421 200.389C324.1 199.779 327.551 202.27 328.16 205.93Z" fill="white"/>
<path d="M347.399 197.818C348.008 201.478 345.521 204.961 341.867 205.571C338.212 206.181 334.736 203.69 334.127 200.029C333.518 196.369 336.005 192.886 339.659 192.276C343.338 191.666 346.79 194.132 347.399 197.818Z" fill="white"/>
<path d="M363.918 186.583C364.527 190.243 362.04 193.726 358.386 194.336C354.732 194.946 351.255 192.455 350.646 188.794C350.037 185.134 352.524 181.651 356.178 181.041C359.833 180.431 363.309 182.922 363.918 186.583Z" fill="white"/>
<path d="M1.37079 355.605C3.95913 351.359 65.2166 250.059 67.7796 245.814C80.5944 224.715 89.9581 202.015 99.0173 179.035C108.178 155.775 103.23 128.067 86.3293 110.044C85.5681 109.23 82.4215 107.756 81.3303 107.502C79.0718 106.993 76.991 109.408 76.9656 111.721C76.9403 114.035 78.2852 116.145 79.6555 118C81.9393 121.127 84.4515 124.203 85.6696 127.889C86.8876 131.575 86.4816 136.1 83.5634 138.642C79.351 138.921 77.4224 133.557 76.7626 129.389C74.3519 114.314 72.3726 98.6044 67.8557 84.0131C66.7899 80.5814 62.476 77.0734 59.1771 78.4715C57.0963 79.3612 56.5126 82.0049 56.2589 84.2673C54.7617 97.8927 56.6903 111.416 57.8829 125.092C57.4008 113.882 54.8378 102.926 54.3557 91.7155C54.2288 88.6905 54.5333 84.547 53.163 81.8524C51.7927 79.1578 48.8237 77.0225 45.8801 77.5818C43.241 78.0902 41.3632 80.5814 40.7288 83.1743C40.0691 85.7672 39.9422 89.5294 40.2213 92.1985C41.5409 104.4 41.7946 116.729 40.9826 128.982C40.8303 119.144 39.7392 109.332 37.6837 99.7229C36.9986 96.5708 35.9074 93.012 32.9892 91.6647C29.4873 90.0632 25.2749 92.7578 23.7523 96.2658C22.2044 99.7738 22.5851 103.79 22.7881 107.629C24.4629 137.574 22.4074 186.076 -90.1094 333.184L1.37079 355.605Z" fill="#C0A091"/>
<path d="M44.7875 78.4738C45.9801 83.1003 44.4576 87.7014 40.8542 90.8026C39.7123 91.7686 41.3617 93.4209 42.5036 92.455C46.7414 88.8453 48.4162 83.2274 47.0459 77.8637C46.6653 76.4147 44.4068 77.0248 44.7875 78.4738Z" fill="#4F3422"/>
<path d="M59.5309 80.3524C61.3326 83.9621 60.343 88.5124 57.1202 91.0036C55.9529 91.8933 57.1202 93.9269 58.2875 93.0118C62.5507 89.7071 63.921 84.0384 61.5356 79.1831C60.8759 77.8358 58.8712 79.0052 59.5309 80.3524Z" fill="#4F3422"/>
<path d="M29.1834 91.8691C30.0716 95.3263 29.4372 98.8852 27.4325 101.859C26.4428 103.334 25.1233 104.528 23.6007 105.444C22.7887 105.927 22.002 106.079 21.5453 106.943C21.2661 107.503 21.393 108.189 21.9513 108.545C22.0274 108.596 22.1289 108.647 22.205 108.697C22.7633 109.053 23.4485 108.799 23.8037 108.291C23.8545 108.24 23.8798 108.164 23.9306 108.113C24.7934 106.893 22.7633 105.723 21.9259 106.943C21.8751 106.994 21.8498 107.071 21.799 107.121C22.3319 106.994 22.8648 106.842 23.3977 106.715C23.3216 106.664 23.2201 106.613 23.1439 106.562C23.2708 107.096 23.4231 107.63 23.55 108.164C23.9814 107.299 26.4682 106.41 27.3563 105.571C28.6505 104.351 29.7163 102.851 30.4776 101.249C31.9748 98.0971 32.2793 94.6654 31.4165 91.3099C31.0612 89.8101 28.8281 90.4202 29.1834 91.8691Z" fill="#4F3422"/>
<path d="M38.8521 110.019C38.8775 117.111 38.4461 124.152 37.4818 131.168C37.2788 132.643 39.5119 133.253 39.7149 131.779C40.6792 124.559 41.1867 117.314 41.1613 109.993C41.1613 108.519 38.8267 108.519 38.8521 110.019Z" fill="#4F3422"/>
<path d="M54.8118 99.0589C55.6746 110.879 56.5374 122.7 57.4256 134.52C57.5271 135.995 59.8616 136.02 59.7348 134.52C58.872 122.7 58.0092 110.879 57.121 99.0589C57.0195 97.5845 54.7103 97.5845 54.8118 99.0589Z" fill="#4F3422"/>
<path d="M26.0096 143.292C28.3696 143.393 30.6534 143.902 32.8611 144.791C34.2568 145.351 34.8404 143.088 33.4701 142.554C31.0594 141.588 28.5979 141.08 26.0096 140.978C24.5124 140.902 24.5124 143.241 26.0096 143.292Z" fill="white"/>
<path d="M42.9364 146.062C45.677 146.647 48.4176 146.901 51.209 146.825C52.7062 146.774 52.7062 144.461 51.209 144.512C48.6206 144.588 46.083 144.385 43.5455 143.825C42.099 143.52 41.49 145.757 42.9364 146.062Z" fill="white"/>
<path d="M61.8929 146.344C64.9126 146.624 67.9324 146.903 70.9521 147.183C72.4493 147.31 72.4239 144.997 70.9521 144.87C67.9324 144.59 64.9126 144.31 61.8929 144.031C60.4211 143.878 60.4211 146.191 61.8929 146.344Z" fill="white"/>
<path d="M92.3684 153.565C94.7791 154.76 97.3167 155.421 100.007 155.548C101.504 155.624 101.504 153.286 100.007 153.235C97.748 153.133 95.5657 152.574 93.5356 151.582C92.2161 150.896 91.0234 152.904 92.3684 153.565Z" fill="white"/>
<path d="M88.9423 114.619C85.3389 116.221 81.9131 112.764 83.0297 109.154C83.4611 107.73 81.228 107.095 80.7966 108.544C79.0456 114.289 84.806 118.992 90.1349 116.628C91.4798 116.017 90.2872 114.035 88.9423 114.619Z" fill="#4F3422"/>
<path d="M57.3242 274.588L-24.9699 225.934L-40.3984 247.973C-12.7641 264.801 14.4135 282.316 42.2001 298.661L57.3242 274.588Z" fill="white"/>
<path d="M-40.3722 248L-128 370.85L-40.3722 427.48L42.2265 298.688C14.4398 282.343 -12.7632 264.828 -40.3722 248Z" fill="#C2B1FF"/>
<path d="M25.4281 302.656C25.4281 305.249 23.3219 307.359 20.7336 307.359C18.1453 307.359 16.0391 305.249 16.0391 302.656C16.0391 300.063 18.1453 297.953 20.7336 297.953C23.3219 297.953 25.4281 300.063 25.4281 302.656Z" fill="#4F3422"/>
<path d="M16.0375 320.297C16.0375 322.889 13.9313 324.999 11.343 324.999C8.75464 324.999 6.64844 322.889 6.64844 320.297C6.64844 317.704 8.75464 315.594 11.343 315.594C13.9313 315.594 16.0375 317.704 16.0375 320.297Z" fill="#4F3422"/>
<path d="M207.423 62.8365C213.615 48.8807 223.004 36.7552 234.981 27.2988C236.149 26.3837 234.499 24.7314 233.332 25.6465C221.228 35.2046 211.661 47.5334 205.419 61.6418C204.809 63.0145 206.814 64.2092 207.423 62.8365Z" fill="white"/>
<path d="M247.213 20.0293C251.35 18.1736 255.664 16.928 260.13 16.2417C261.602 16.0129 260.967 13.7759 259.521 14.0047C254.826 14.7165 250.36 16.0892 246.046 18.0465C244.676 18.6312 245.843 20.6394 247.213 20.0293Z" fill="white"/>
<path d="M83.0823 28.3657C92.7252 18.7314 105.971 13.9015 119.548 15.02C121.045 15.1471 121.019 12.8085 119.548 12.7068C105.413 11.5374 91.4818 16.6724 81.4329 26.7134C80.3925 27.7811 82.0419 29.408 83.0823 28.3657Z" fill="white"/>
</svg>
