<svg width="375" height="597" viewBox="0 0 375 597" fill="none" xmlns="http://www.w3.org/2000/svg">
<path d="M309.648 393.59C317.79 402.555 330.381 394.916 334.294 385.888C337.387 378.786 337.955 370.61 339.028 363.034C340.258 354.512 341.363 345.989 342.373 337.466C346.065 306.059 350.357 273.23 343.004 242.012C341.395 235.257 334.61 206.027 322.397 213.508C320.819 214.487 322.271 216.98 323.849 216.002C335.02 209.184 342.467 253.944 343.099 260.036C344.74 276.04 344.014 292.201 342.625 308.205C341.079 325.661 339.028 343.085 336.566 360.415C335.493 368.022 334.957 376.166 332.243 383.394C329.403 391.002 319.147 399.745 311.731 391.57C310.437 390.181 308.418 392.201 309.648 393.59Z" fill="#FFCE5C"/>
<path d="M-5.76545 314.204C-12.9289 299.747 -11.5404 283.396 -7.43796 268.244C-3.46179 253.566 2.59714 239.141 9.98145 225.852C24.403 199.936 47.7551 177.114 78.3337 173.232C80.164 173.011 80.164 170.107 78.3337 170.359C46.6821 174.4 22.478 197.506 7.48845 224.431C-0.527003 238.825 -7.15395 254.703 -11.0354 270.706C-14.696 285.732 -15.2641 301.546 -8.22689 315.687C-7.43796 317.329 -4.94497 315.845 -5.76545 314.204Z" fill="#FFCE5C"/>
<path d="M567.972 339.043C555.917 338.223 543.263 337.181 534.048 338.254C514.136 340.559 495.517 349.176 476.173 354.384C456.292 359.719 435.654 361.487 415.142 363.191C400.184 364.454 385.226 365.716 370.236 365.716C356.509 365.748 342.782 364.769 329.118 363.538C307.438 361.613 285.348 359.561 263.195 356.815C213.115 350.628 162.876 340.969 117.15 321.651C106.042 316.948 95.0602 311.929 84.2361 306.594C33.2402 281.468 -14.4107 249.397 -57.0126 211.487C-73.0435 197.219 -88.3486 182.162 -102.865 166.317L-102.928 166.253C-105.831 163.065 -102.36 158.141 -98.4468 159.877L-77.1459 169.315C-73.7693 170.799 -69.73 170.325 -67.0161 167.8C-63.7342 164.738 -64.8702 160.919 -66.164 157.573C-70.3927 146.588 -76.2623 136.266 -80.2069 125.187C-82.4159 118.937 -84.0884 109.12 -84.3724 99.7447C-84.5302 94.4732 -77.3983 92.9265 -75.4418 97.7876C-71.7496 106.942 -61.7776 123.892 -52.6261 135.698C-51.1114 137.655 -48.1451 135.635 -49.3442 133.457C-57.1388 119.505 -65.8485 101.386 -66.4796 91.2851C-66.669 88.1601 -64.46 85.2877 -61.3674 85.0036C-57.4228 84.6248 -55.7187 88.9808 -54.5827 92.4846C-50.3856 105.269 -43.664 117.485 -32.9977 125.471C-37.9206 117.863 -43.2537 107.194 -45.9361 98.4505C-47.4508 93.5263 -41.0132 90.1803 -38.0153 94.3154C-34.8596 98.6715 -31.8617 105.174 -29.7158 108.93C-17.4718 130.269 -1.28307 149.271 17.7773 164.612C29.5165 174.082 42.297 182.131 55.0145 190.18C78.8083 205.174 106.358 219.094 134.38 229.669C150.348 235.635 166.442 240.559 182.063 243.999C203.774 248.766 225.927 251.796 248.269 253.753C282.382 256.752 316.874 257.289 350.766 257.762C398.133 258.425 446.856 258.52 491.068 241.222C500.282 237.623 518.554 231.215 534.995 227.27C539.886 226.102 542.221 233.172 537.614 235.224C524.77 241.001 510.002 247.219 497.821 251.575C496.054 252.206 494.665 253.69 494.35 255.552C493.624 259.877 500.377 258.993 504.7 257.888L557.684 244.378C563.27 242.958 566.962 250.06 562.67 253.943C560.209 256.152 557.148 258.015 554.276 259.309C543.326 264.233 526.096 269.946 511.169 275.376C506.341 277.143 508.235 284.498 513.284 283.583C528.021 280.963 549.511 274.65 567.53 269.725C573.147 268.179 576.461 275.881 571.569 279.069C559.01 287.181 545.819 293.747 532.029 299.365C515.524 306.121 518.806 319.852 530.419 321.84C537.015 322.977 543.2 323.576 547.271 323.608C553.172 323.671 562.26 325.407 570.212 328.532C575.956 330.836 574.031 339.454 567.972 339.043Z" fill="#F6A460"/>
<path d="M142.838 270.137C149.401 290.339 169.85 296.115 185.408 289.392C201.597 282.763 214.219 267.517 223.371 251.103C207.813 249.177 190.993 247.946 175.815 244C164.833 241.159 153.598 237.277 142.364 232.637C138.956 244.789 139.619 258.047 142.838 270.137Z" fill="#F6A460"/>
<path d="M265.151 362.97C264.488 360.95 263.825 358.898 263.162 356.815C257.419 338.791 251.991 319.536 250.666 300.912C249.246 280.963 248.52 265.559 248.236 253.753C244.228 253.406 227.314 251.512 223.338 251.07C212.608 267.484 206.644 280.584 187.615 287.181C169.344 293.905 150.978 290.306 143.278 270.104C139.491 258.014 138.702 244.757 142.741 232.636C139.933 231.657 137.156 230.647 134.347 229.605C118.001 243.21 105.252 261.139 95.7846 280.016C91.4298 288.665 87.5799 297.535 84.2033 306.594C69.8133 344.946 63.5019 386.36 61.861 427.017C59.5889 483.488 62.1134 541.347 72.0854 596.997L421.673 583.55C354.677 520.23 294.183 452.269 265.151 362.97Z" fill="#FFCE5C"/>
<path d="M189.288 200.88C182.63 194.504 183.072 182.509 190.172 176.512C194.053 173.229 199.355 171.714 202.858 168.084C210.968 159.687 205.414 146.303 205.572 134.845C205.698 123.734 212.988 113.98 222.139 107.193C238.77 94.7882 249.72 101.638 263.037 96.9347C294.815 85.7289 289.481 68.0206 302.199 54.6999C314.916 41.4108 334.419 36.4234 353.037 36.3919C366.859 36.3919 379.829 43.7151 393.651 43.3047C409.776 42.8313 411.07 24.681 441.87 22.9134C463.297 21.7139 484.061 33.2669 494.033 51.6696C504.037 70.0724 498.862 100.533 481.411 112.812C468.693 121.745 442.911 125.502 427.417 123.608C411.196 121.619 401.729 109.34 388.286 118.431C372.855 128.847 372.476 152.332 357.676 163.538C346.095 172.313 329.811 170.64 315.263 168.936C300.747 167.231 284.085 166.568 273.545 176.512C266.382 183.298 262.942 194.346 253.57 197.692C240.442 202.364 225.042 188.349 212.924 195.167C209.674 196.998 207.37 200.091 204.341 202.269C201.311 204.447 196.736 205.52 193.99 203.058L189.288 200.88Z" fill="#4F3422"/>
<path d="M191.97 181.438C200.458 174.872 202.162 163.982 201.374 153.818C200.269 139.361 195.914 124.146 207.401 112.498C225.357 94.3166 254.768 99.3671 274.554 84.3419C285.41 76.1033 288.849 62.4354 297.938 52.6816C307.279 42.6437 320.375 36.2675 334.07 35.289C356.823 33.6791 388.569 46.7157 405.673 24.7145C410.974 17.8648 413.909 2.14509 401.981 0.15646C398.289 -0.443286 393.808 1.0403 392.293 4.73347C390.747 8.52134 394.88 10.9835 398.226 9.91023C399.993 9.34205 399.235 6.56427 397.468 7.13246C396.711 6.53271 395.985 5.9014 395.228 5.30165C396.017 4.19686 397.058 3.50241 398.352 3.15519C399.74 2.71327 401.413 2.7764 402.77 3.28145C406.178 4.54408 407.566 8.36351 407.598 11.7095C407.661 17.3597 404.379 22.6312 400.245 26.2612C392.04 33.4266 380.364 35.2258 369.856 34.8155C356.854 34.3104 343.916 31.0907 330.883 32.7006C321.321 33.9001 312.107 37.5933 304.312 43.2435C296.013 49.2725 290.459 57.0061 285.473 65.876C282.475 71.179 279.414 76.4505 274.775 80.4593C270.199 84.405 264.74 87.1197 259.091 89.1398C240.851 95.7055 218.446 96.0843 204.498 111.362C196.545 120.106 195.82 131.059 197.145 142.328C198.533 154.354 201.721 170.327 190.55 178.912C189.066 180.049 190.486 182.542 191.97 181.438Z" fill="#4F3422"/>
<path d="M235.268 191.695C244.766 196.367 256.032 195.735 264.647 189.391C269.318 185.95 272.947 181.057 278.059 178.185C285.222 174.176 293.427 175.502 301.032 177.459C313.055 180.521 324.479 183.867 337.039 182.257C347.673 180.9 357.077 176.228 364.272 168.21C371.846 159.751 377.021 148.924 386.394 142.2C397.754 134.056 412.681 134.845 425.714 137.529C448.529 142.169 476.52 154.037 495.738 134.246C500.914 128.911 509.15 113.854 499.367 109.183C496.18 107.667 491.952 107.825 489.806 110.95C487.786 113.917 488.48 117.989 491.604 119.757C493.214 120.673 494.665 118.179 493.056 117.263C488.701 114.801 493.719 110.477 497.032 111.361C499.02 111.897 500.251 113.191 500.661 115.401C501.071 117.737 500.409 120.546 499.651 122.724C497.916 127.933 494.16 132.352 489.806 135.603C480.875 142.263 469.925 143.368 459.132 142.042C438.273 139.454 417.509 128.564 396.176 134.435C377.4 139.612 371.72 158.236 358.34 170.073C350.229 177.238 339.5 179.953 328.865 179.826C318.01 179.669 308.259 175.849 297.75 173.703C287.242 171.556 278.532 173.103 270.517 180.331C266.067 184.309 262.091 188.602 256.285 190.59C249.815 192.8 242.841 192.2 236.751 189.201C235.047 188.381 233.595 190.874 235.268 191.695Z" fill="#4F3422"/>
<path d="M83.762 320.358C72.6856 308.995 54.2248 310.478 38.6988 313.824C23.1728 317.17 5.97427 321.337 -7.72143 313.319C-8.66814 309.563 -5.29155 305.996 -1.72562 304.481C1.87187 302.966 5.91115 302.587 9.22462 300.535C20.0486 293.78 15.3467 275.598 24.1195 266.318C31.1882 258.869 44.9155 259.563 50.0593 250.662C56.1497 240.119 45.1364 224.02 53.8776 215.561C56.1182 213.383 59.2108 212.373 61.9878 211.015C76.6617 203.913 84.2354 184.91 78.5236 169.633C85.2137 169.412 91.2726 173.957 95.091 179.45C98.9093 184.942 101.024 191.413 103.769 197.505C109.512 210.163 123.492 220.958 134.348 229.639C135.768 230.775 132.076 232.448 132.707 234.153C133.306 235.794 132.991 237.593 132.644 239.298C129.204 257.038 125.701 274.904 118.885 291.634C112.069 308.363 101.56 324.052 86.6021 334.216L83.762 320.358Z" fill="#FFCE5C"/>
<path d="M241.043 260.132C262.375 236.268 292.417 219.507 324.889 213.352C313.781 222.379 301.664 233.774 303.368 247.506C303.873 251.514 305.577 255.46 305.103 259.5C303.683 271.653 283.865 277.524 285.159 289.677C286.011 297.758 296.394 303.25 295.826 311.363C295.258 319.317 284.181 324.81 285.727 332.638C286.706 337.594 292.386 340.371 295.131 344.696C299.171 351.041 296.267 359.121 296.835 366.476C297.593 376.64 307.091 391.95 317.568 394.349C286.358 395.296 254.076 372.632 238.928 346.937C223.75 321.243 225.201 287.594 242.526 263.13L241.043 260.132Z" fill="#FFCE5C"/>
<path d="M270.518 376.828C248.712 362.623 227.38 346.967 221.7 319.978C216.335 294.536 227.001 268.21 247.986 253.059C249.091 252.238 248.018 250.376 246.882 251.197C225.991 266.285 214.852 291.885 219.017 317.453C223.751 346.556 246.188 363.602 269.414 378.69C270.613 379.447 271.686 377.585 270.518 376.828Z" fill="#4F3422"/>
<path d="M80.8593 320.927C92.5353 287.909 110.081 255.965 134.222 230.396C135.169 229.386 133.654 227.84 132.676 228.881C108.282 254.765 90.5788 286.994 78.7765 320.358C78.3032 321.653 80.3859 322.221 80.8593 320.927Z" fill="#4F3422"/>
<path d="M64.5453 300.347C66.8805 300.22 68.9633 300.852 70.8882 302.177C72.0243 302.967 73.1288 301.104 71.9927 300.315C69.8153 298.8 67.2276 298.042 64.5768 298.2C63.1568 298.232 63.1568 300.41 64.5453 300.347Z" fill="#4F3422"/>
<path d="M70.7623 284.213C73.1922 286.581 75.7799 288.727 78.5253 290.684C79.6614 291.505 80.7343 289.611 79.6298 288.822C77.0106 286.96 74.5807 284.908 72.3086 282.667C71.2672 281.72 69.7525 283.235 70.7623 284.213Z" fill="#4F3422"/>
<path d="M102.823 239.708C106.042 241.129 109.292 242.518 112.511 243.938C113.773 244.475 114.878 242.612 113.615 242.076C110.397 240.655 107.146 239.267 103.928 237.846C102.665 237.309 101.561 239.172 102.823 239.708Z" fill="#4F3422"/>
<path d="M112.1 233.362C113.015 236.171 114.877 238.507 117.465 239.927C118.695 240.59 119.768 238.728 118.569 238.065C116.487 236.897 114.94 235.066 114.183 232.794C113.773 231.468 111.69 232.036 112.1 233.362Z" fill="#4F3422"/>
<path d="M116.93 222.601C118.287 226.042 120.465 228.851 123.431 231.029C124.567 231.85 125.64 229.987 124.535 229.167C122.074 227.336 120.149 224.874 119.045 222.033C118.508 220.739 116.394 221.307 116.93 222.601Z" fill="#4F3422"/>
<path d="M238.865 269.097C241.799 268.371 244.734 267.645 247.669 266.919C249.026 266.572 248.458 264.489 247.101 264.836C244.166 265.562 241.231 266.288 238.297 267.014C236.94 267.329 237.508 269.413 238.865 269.097Z" fill="#4F3422"/>
<path d="M234.604 280.741C237.854 280.331 241.01 280.583 244.166 281.562C245.491 281.972 246.059 279.889 244.734 279.478C241.42 278.437 238.043 278.153 234.604 278.563C233.247 278.752 233.215 280.931 234.604 280.741Z" fill="#4F3422"/>
<path d="M227.819 327.65C230.059 329.986 232.3 332.322 234.541 334.689C235.519 335.7 237.034 334.153 236.087 333.174C233.846 330.838 231.606 328.503 229.365 326.135C228.387 325.093 226.872 326.64 227.819 327.65Z" fill="#4F3422"/>
<path d="M228.388 322.155C231.355 322.692 234.321 323.229 237.287 323.797C238.644 324.049 239.244 321.966 237.855 321.713C234.889 321.177 231.923 320.64 228.956 320.072C227.599 319.819 227 321.903 228.388 322.155Z" fill="#4F3422"/>
<path d="M227.22 312.909C229.839 314.33 232.648 315.087 235.583 315.15C236.971 315.182 236.971 313.036 235.583 312.972C232.995 312.909 230.565 312.246 228.293 311.015C227.062 310.384 225.989 312.246 227.22 312.909Z" fill="#4F3422"/>
<path d="M217.471 135.571C219.743 123.797 228.358 114.359 239.94 111.171C241.738 110.666 240.981 107.888 239.182 108.393C226.686 111.834 217.155 122.061 214.694 134.814C214.347 136.644 217.124 137.402 217.471 135.571Z" fill="#251404"/>
<path d="M281.436 103.787C288.094 99.62 294.974 95.2008 298.918 88.1616C301.127 84.2475 302.611 79.9862 305.104 76.2299C307.881 72.0632 311.32 68.5279 315.202 65.4029C316.653 64.2349 314.602 62.2147 313.151 63.3511C306.713 68.4963 301.979 74.8094 298.54 82.2905C294.469 91.192 288.094 96.2109 279.953 101.293C278.406 102.271 279.858 104.765 281.436 103.787Z" fill="#251404"/>
<path d="M333.092 56.1207C344.926 46.9667 360.231 51.6384 372.98 55.8997C374.747 56.4995 375.505 53.6902 373.738 53.122C359.726 48.4818 343.822 44.1889 331.041 54.1005C329.558 55.2053 331.641 57.2255 333.092 56.1207Z" fill="#251404"/>
<path d="M193.801 254.924L207.055 168.023C207.055 168.023 164.074 176.988 156.501 209.185L174.393 210.826L155.617 241.035C148.738 252.114 153.944 266.761 166.283 270.99C166.504 271.054 166.693 271.148 166.914 271.211C179.001 275.283 191.876 267.518 193.801 254.924Z" fill="#F6A460"/>
<path d="M214.03 207.514C209.58 210.039 203.931 208.461 201.407 204.01C198.882 199.559 200.46 193.909 204.91 191.384C209.359 188.859 215.008 190.437 217.532 194.888C220.025 199.338 218.479 204.989 214.03 207.514Z" fill="#F6A460"/>
<path d="M205.447 201.106C208.792 200.475 212.137 199.875 215.482 199.307C216.839 199.086 216.271 197.002 214.914 197.223C211.569 197.792 208.224 198.391 204.879 199.023C203.522 199.275 204.09 201.359 205.447 201.106Z" fill="#4F3422"/>
<path d="M174.363 210.828L156.691 239.332L187.649 211.112L174.363 210.828Z" fill="#4F3422"/>
<path d="M168.936 192.582C168.936 192.582 180.517 195.612 190.268 196.37C190.268 196.37 172.092 206.313 162.277 202.683L168.936 192.582Z" fill="white"/>
<path d="M185.942 175.253C180.23 177.241 174.424 179.735 169.217 182.797C168.554 183.176 168.459 184.312 169.217 184.659C171.363 185.701 173.477 186.711 175.623 187.753C176.885 188.352 177.958 186.49 176.727 185.89C174.581 184.848 172.467 183.838 170.321 182.797C170.321 183.428 170.321 184.028 170.321 184.659C175.37 181.692 180.987 179.293 186.51 177.336C187.835 176.894 187.267 174.811 185.942 175.253Z" fill="#4F3422"/>
<path d="M189.73 187.595C192.223 185.922 196.736 188.132 197.966 190.531C198.598 191.762 200.459 190.689 199.828 189.426C198.061 186.017 192.065 183.366 188.626 185.701C187.49 186.491 188.594 188.385 189.73 187.595Z" fill="#4F3422"/>
</svg>
