<svg width="375" height="430" viewBox="0 0 375 430" fill="none" xmlns="http://www.w3.org/2000/svg">
<path d="M217.008 29.9573C219.436 38.5819 229.3 42.6686 237.11 38.281C247.124 32.6399 259.216 40.9637 257.588 52.3462C256.312 61.2216 263.647 68.9687 272.559 68.1162C284 67.0382 291.66 79.574 285.552 89.3018C280.77 96.8984 284.35 106.952 292.837 109.81C303.702 113.496 305.654 128.062 296.091 134.456C288.656 139.445 287.83 150.075 294.414 156.168C302.85 163.965 298.695 178.055 287.379 180.011C278.567 181.54 273.485 190.917 277.015 199.165C281.571 209.721 272.033 220.903 260.918 218.095C252.231 215.888 243.795 222.407 243.669 231.357C243.544 242.865 230.301 249.208 221.264 242.088C214.229 236.547 203.865 239.054 200.135 247.203C195.353 257.657 180.658 258.059 175.301 247.88C171.12 239.957 160.631 238.001 153.921 243.943C145.31 251.54 131.741 245.924 130.965 234.441C130.364 225.491 121.577 219.448 113.04 222.131C102.075 225.566 91.9616 214.885 95.942 204.105C99.0463 195.681 93.4636 186.58 84.5514 185.552C73.1608 184.223 68.2291 170.358 76.24 162.11C82.4736 155.691 81.0717 145.086 73.3861 140.523C63.5226 134.656 64.6492 119.989 75.3138 115.727C83.6252 112.393 86.6543 102.163 81.4722 94.8426C74.8381 85.4658 81.8227 72.5288 93.2884 72.9801C102.226 73.3311 109.16 65.2079 107.383 56.4078C105.13 45.1256 116.771 36.175 127.06 41.2395C135.096 45.2008 144.709 40.5876 146.687 31.8376C149.215 20.6306 163.485 17.1708 170.82 25.996C176.552 32.8907 187.217 32.5898 192.549 25.3942C199.434 16.218 213.879 18.9007 217.008 29.9573Z" fill="#4F3422"/>
<path d="M358.203 300.532C348.815 267.638 319.9 244.171 285.828 241.764C207.847 236.223 74.6892 234.218 46.4255 264.454C37.1878 274.332 56.0387 256.381 46.4255 264.454C3.19126 300.732 -3.54297 388.734 -3.54297 388.734L97.4454 388.032L378.706 388.834C380.258 380.811 368.617 337.086 358.203 300.532Z" fill="#9BB168"/>
<path d="M226.674 205.234L219.714 183.071C225.547 184.45 231.956 182.996 236.687 178.608C244.273 171.588 244.748 159.754 237.739 152.158C230.729 144.561 218.913 144.085 211.328 151.105C210.877 151.531 210.451 151.957 210.051 152.408L201.84 126.284C200.813 123.05 197.609 121.044 194.254 121.545C177.631 124.027 131.218 135.686 127.838 188.336C127.588 192.322 130.717 195.732 134.723 195.732L155.201 195.707L153.574 209.948C178.257 214.686 202.841 212.104 226.674 205.234Z" fill="#CFD9B5"/>
<path d="M226.672 205.234C202.864 212.129 178.256 214.686 153.597 209.948L148.74 252.494C146.287 273.931 158.754 294.64 179.157 301.585C180.108 301.91 181.084 302.211 182.061 302.512C217.409 312.792 249.779 278.769 238.713 243.594L226.672 205.234Z" fill="#9BB168"/>
<path d="M163.26 137.793C153.146 143.033 143.007 148.248 132.894 153.488C131.567 154.165 131.442 156.096 132.418 157.099C135.422 160.157 138.401 163.191 141.405 166.25C143.483 168.356 146.713 165.122 144.635 163.015C141.631 159.957 138.651 156.923 135.647 153.864C135.497 155.068 135.347 156.271 135.172 157.475C145.286 152.235 155.424 147.02 165.538 141.78C168.192 140.401 165.864 136.44 163.26 137.793Z" fill="#4F3422"/>
<path d="M160.382 173.294C160.657 175.65 157.904 177.807 155.751 176.478C153.222 174.948 150.919 178.91 153.447 180.439C158.329 183.423 165.639 179.16 164.988 173.294C164.838 172.065 164.037 171.012 162.685 171.012C161.559 170.987 160.257 172.04 160.382 173.294Z" fill="#4F3422"/>
<path d="M227.524 160.43C223.593 161.759 219.663 163.088 215.733 164.416C212.954 165.369 214.155 169.782 216.959 168.829C220.89 167.5 224.82 166.171 228.75 164.843C231.529 163.915 230.328 159.477 227.524 160.43Z" fill="#4F3422"/>
<path d="M172.2 151.504C176.581 161.407 190.25 163.94 198.286 157.07C200.539 155.139 197.285 151.905 195.057 153.836C189.049 158.975 179.285 156.217 176.181 149.197C174.979 146.49 171.024 148.821 172.2 151.504Z" fill="#4F3422"/>
<path d="M175.954 153.335C174.276 155.04 172.574 156.72 170.897 158.425C168.819 160.506 172.048 163.765 174.126 161.659C175.803 159.954 177.506 158.274 179.183 156.569C181.286 154.488 178.057 151.254 175.954 153.335Z" fill="#4F3422"/>
<path d="M183.188 159.956C183.213 161.66 183.238 163.34 183.263 165.045C183.288 168.004 187.894 168.004 187.844 165.045C187.819 163.34 187.794 161.66 187.769 159.956C187.719 157.022 183.138 156.997 183.188 159.956Z" fill="#4F3422"/>
<path d="M192.2 159.906C192.751 161.411 193.277 162.94 193.827 164.444C194.253 165.597 195.38 166.4 196.656 166.049C197.783 165.748 198.684 164.394 198.259 163.216C197.708 161.711 197.182 160.182 196.631 158.678C196.206 157.499 195.079 156.722 193.802 157.073C192.676 157.399 191.8 158.753 192.2 159.906Z" fill="#4F3422"/>
<path d="M207.973 328.336C207.973 332.724 204.418 336.309 200.012 336.309C195.631 336.309 192.051 332.749 192.051 328.336C192.051 323.949 195.606 320.363 200.012 320.363C204.418 320.363 207.973 323.923 207.973 328.336Z" fill="#4F3422"/>
<path d="M92.7646 303.167C67.2546 316.279 41.7447 329.392 16.2097 342.504C10.3517 345.513 4.49365 348.521 -1.36438 351.53C-10.9775 356.494 -18.7882 363.038 -23.019 373.317C-26.7742 382.418 -27.2248 394.979 -22.969 404.055C-18.5629 413.457 -11.278 422.081 -1.2392 425.742C8.29886 429.202 20.065 430.505 29.4528 425.692C45.4498 417.468 61.4717 409.245 77.4686 400.996C100.475 389.162 123.482 377.354 146.488 365.52C133.32 342.354 120.252 319.112 107.91 295.395C102.853 298.002 97.7965 300.584 92.7646 303.167Z" fill="#9BB168"/>
<path d="M171.574 352.631C181.187 347.692 188.998 341.148 193.229 330.869C196.984 321.768 197.434 309.207 193.179 300.131C188.773 290.729 181.488 282.105 171.449 278.444C161.911 274.984 170.247 261.22 160.859 266.059C149.894 271.7 118.852 289.777 107.887 295.393C120.229 319.135 133.272 342.377 146.465 365.518C148.968 364.239 151.496 362.935 154 361.657C159.858 358.648 165.716 355.64 171.574 352.631Z" fill="#CFD9B5"/>
<path d="M175.878 296.568C178.907 276.235 181.936 255.877 184.966 235.544C185.842 229.627 181.586 223.109 175.427 222.432C169.294 221.755 163.286 225.641 162.335 231.984C159.305 252.317 156.276 272.675 153.247 293.008C152.371 298.925 156.627 305.444 162.785 306.121C168.919 306.823 174.927 302.911 175.878 296.568Z" fill="#CFD9B5"/>
<path d="M176.981 296.869C179.26 281.501 181.563 266.107 183.841 250.738C185.193 241.612 190.049 227.221 178.759 222.181C174.778 220.401 169.872 221.128 166.342 223.585C161.961 226.619 161.285 231.182 160.559 236.146C158.281 251.54 155.978 266.909 153.7 282.303C153.474 283.757 155.702 284.359 155.903 282.905C157.755 270.494 159.583 258.084 161.435 245.673C161.886 242.69 162.311 239.706 162.762 236.748C163.163 234.065 163.263 231.132 164.64 228.7C167.468 223.736 174.578 221.855 179.335 225.115C185.017 229.026 183.866 235.269 182.99 241.16C182.113 247.102 181.212 253.069 180.336 259.011C178.484 271.422 176.656 283.807 174.803 296.218C174.553 297.722 176.756 298.324 176.981 296.869Z" fill="#4F3422"/>
<path d="M181.36 335.153C186.542 301.983 191.725 268.789 196.907 235.619C197.833 229.702 193.627 223.158 187.444 222.431C181.31 221.704 175.277 225.565 174.276 231.908C169.094 265.078 163.911 298.273 158.729 331.443C157.803 337.359 162.009 343.903 168.192 344.63C174.326 345.357 180.359 341.496 181.36 335.153Z" fill="#CFD9B5"/>
<path d="M188.272 302.386C190.175 289.549 192.103 276.713 194.005 263.901C194.956 257.483 195.908 251.065 196.859 244.646C197.535 240.033 199.162 234.843 197.785 230.205C195.632 222.934 187.997 219.324 181.037 222.107C177.533 223.511 174.754 226.419 173.677 230.055C171.95 235.896 171.7 242.565 170.798 248.608C168.62 263.174 166.467 277.716 164.289 292.282C164.064 293.736 166.292 294.338 166.492 292.884C168.545 279.07 170.598 265.255 172.651 251.441C173.602 245.047 174.228 238.529 175.505 232.186C176.731 226.093 182.965 221.756 189.174 223.862C196.609 226.394 196.108 234.066 195.157 240.309C194.155 246.978 193.179 253.647 192.178 260.291C190.125 274.105 188.072 287.92 186.019 301.759C185.844 303.213 188.047 303.84 188.272 302.386Z" fill="#4F3422"/>
<path d="M182.639 243.918C178.959 268.638 175.279 293.359 171.599 318.079C170.722 323.996 174.978 330.515 181.137 331.192C187.27 331.869 193.278 327.983 194.23 321.639C197.91 296.919 201.59 272.198 205.27 247.478C206.146 241.561 201.89 235.042 195.732 234.365C189.598 233.688 183.59 237.574 182.639 243.918Z" fill="#CFD9B5"/>
<path d="M193.403 334.953C197.484 307.6 201.539 280.247 205.62 252.894C206.396 247.754 207.322 242.941 204.143 238.378C201.239 234.216 196.357 232.386 191.401 233.464C179.835 235.971 180.561 250.136 179.184 259.413C177.131 273.277 175.053 287.142 173 301.032C172.775 302.486 175.003 303.087 175.203 301.633C176.73 291.304 178.283 280.974 179.81 270.645C180.636 265.004 181.487 259.363 182.313 253.747C182.989 249.184 182.864 242.84 185.993 239.205C190.7 233.765 199.437 234.391 202.916 240.81C205.645 245.874 203.292 252.869 202.491 258.234C200.663 270.519 198.836 282.83 197.008 295.115C195.056 308.177 193.128 321.264 191.175 334.327C190.975 335.781 193.178 336.408 193.403 334.953Z" fill="#4F3422"/>
<path d="M293.239 304.344C318.749 317.457 344.259 330.569 369.794 343.681C375.652 346.69 381.51 349.699 387.368 352.707C396.981 357.646 404.792 364.19 409.023 374.469C412.778 383.57 413.229 396.131 408.973 405.207C404.567 414.609 397.282 423.259 387.243 426.894C377.705 430.354 365.939 431.658 356.551 426.844C340.554 418.62 324.532 410.397 308.535 402.148C285.529 390.315 262.522 378.506 239.516 366.672C252.684 343.506 265.752 320.265 278.093 296.547C283.15 299.154 288.207 301.762 293.239 304.344Z" fill="#9BB168"/>
<path d="M214.433 353.783C204.819 348.844 197.009 342.301 192.778 332.021C189.023 322.92 188.572 310.359 192.828 301.283C197.234 291.882 204.519 283.232 214.558 279.597C224.096 276.137 215.759 262.372 225.147 267.211C236.112 272.852 267.155 290.929 278.12 296.57C265.778 320.313 252.735 343.554 239.542 366.695C237.038 365.417 234.51 364.113 232.007 362.834C226.149 359.826 220.291 356.817 214.433 353.783Z" fill="#CFD9B5"/>
<path d="M210.124 297.748C207.094 277.415 204.065 257.057 201.036 236.724C200.16 230.807 204.416 224.288 210.574 223.611C216.708 222.934 222.716 226.821 223.667 233.164C226.696 253.497 229.725 273.855 232.755 294.188C233.631 300.105 229.375 306.623 223.217 307.3C217.083 307.977 211.075 304.091 210.124 297.748Z" fill="#CFD9B5"/>
<path d="M211.227 297.444C209.375 285.034 207.547 272.648 205.695 260.238C204.819 254.296 203.917 248.329 203.041 242.387C202.165 236.495 200.988 230.252 206.696 226.341C211.453 223.057 218.537 224.962 221.391 229.926C222.768 232.308 222.868 235.292 223.269 237.974C223.72 240.958 224.145 243.941 224.596 246.9C226.448 259.31 228.276 271.721 230.128 284.131C230.354 285.585 232.557 284.959 232.331 283.529C230.053 268.136 227.75 252.767 225.472 237.373C224.721 232.408 224.07 227.845 219.689 224.812C216.159 222.355 211.252 221.628 207.272 223.408C195.957 228.447 200.838 242.813 202.19 251.964C204.468 267.333 206.771 282.727 209.049 298.096C209.225 299.5 211.453 298.873 211.227 297.444Z" fill="#4F3422"/>
<path d="M204.643 336.333C199.461 303.163 194.279 269.968 189.097 236.799C188.17 230.882 192.376 224.338 198.56 223.611C204.693 222.884 210.726 226.745 211.728 233.088C216.91 266.258 222.092 299.452 227.274 332.622C228.2 338.539 223.994 345.083 217.811 345.81C211.677 346.537 205.644 342.676 204.643 336.333Z" fill="#CFD9B5"/>
<path d="M199.935 302.937C197.882 289.122 195.829 275.308 193.776 261.468C192.825 255.05 191.873 248.631 190.922 242.213C189.971 235.795 189.045 227.672 196.805 225.039C202.638 223.058 209.072 226.945 210.374 232.836C211.776 239.305 212.377 246.049 213.328 252.593C215.381 266.407 217.433 280.222 219.486 294.036C219.712 295.49 221.915 294.863 221.689 293.434C219.787 280.598 217.859 267.761 215.956 254.949C215.005 248.531 214.054 242.113 213.103 235.694C212.477 231.558 211.676 227.972 208.296 225.215C202.388 220.376 193.426 221.679 189.495 228.323C187.142 232.31 187.693 236.221 188.344 240.583C189.295 247.002 190.246 253.42 191.198 259.838C193.376 274.405 195.528 288.947 197.706 303.513C197.932 305.017 200.16 304.391 199.935 302.937Z" fill="#4F3422"/>
<path d="M203.366 245.097C207.046 269.818 210.726 294.538 214.407 319.259C215.283 325.176 211.027 331.694 204.868 332.371C198.735 333.048 192.727 329.162 191.776 322.819C188.095 298.099 184.415 273.378 180.735 248.657C179.859 242.74 184.115 236.222 190.273 235.545C196.407 234.868 202.415 238.754 203.366 245.097Z" fill="#CFD9B5"/>
<path d="M194.804 335.505C191.249 311.662 187.695 287.794 184.165 263.951C183.364 258.511 181.786 252.644 181.786 247.153C181.761 239.807 188.871 234.743 195.756 237.375C201.814 239.707 202.29 245.423 203.116 251.014C203.917 256.43 204.718 261.845 205.544 267.261C207.296 279.094 209.074 290.928 210.826 302.787C211.052 304.241 213.255 303.614 213.029 302.185C211.202 289.975 209.399 277.766 207.572 265.531C206.696 259.589 205.794 253.647 204.918 247.705C204.142 242.565 202.64 238.127 197.683 235.695C187.544 230.731 178.357 239.682 179.784 249.936C181.661 263.324 183.764 276.662 185.742 290.026C188.02 305.394 190.323 320.738 192.601 336.107C192.802 337.586 195.03 336.96 194.804 335.505Z" fill="#4F3422"/>
<path d="M5.64479 349.246C35.0351 333.551 64.4503 317.856 93.8406 302.161C97.9963 299.93 102.152 297.724 106.308 295.492C107.609 294.79 106.458 292.81 105.156 293.512C75.7658 309.206 46.3506 324.901 16.9603 340.596C12.8046 342.827 8.64891 345.034 4.49321 347.265C3.1664 347.967 4.34301 349.948 5.64479 349.246Z" fill="#4F3422"/>
<path d="M365.288 340.093C339.979 326.931 314.694 313.743 289.384 300.58C285.854 298.75 282.325 296.895 278.77 295.065C277.468 294.388 276.291 296.368 277.618 297.045C302.928 310.208 328.213 323.396 353.522 336.558C357.052 338.388 360.582 340.244 364.137 342.074C365.439 342.751 366.59 340.77 365.288 340.093Z" fill="#4F3422"/>
<path d="M22.8198 326.731C28.2272 328.211 33.6346 329.665 39.0671 331.144C40.494 331.52 41.0949 329.314 39.6679 328.938C34.2605 327.458 28.8531 326.004 23.4207 324.525C21.9937 324.124 21.3929 326.33 22.8198 326.731Z" fill="#4F3422"/>
<path d="M342.282 329.138C346.612 327.784 350.843 326.155 354.974 324.249C356.301 323.648 355.149 321.667 353.822 322.269C349.867 324.074 345.811 325.628 341.681 326.932C340.279 327.358 340.88 329.59 342.282 329.138Z" fill="#4F3422"/>
<path d="M292.965 115.88C297.17 125.031 308.736 124.53 315.771 119.215C323.306 113.498 330.892 101.238 327.587 91.4856C325.134 84.2399 314.069 79.8524 309.888 88.2263C308.085 91.8115 309.512 96.0987 312.291 98.7814C315.846 102.191 321.278 102.768 325.96 102.918C337.05 103.294 350.018 98.305 351.72 85.8946C352.121 83.0114 347.715 81.7578 347.314 84.6661C346.062 93.6668 337.551 97.929 329.214 98.305C325.259 98.4805 320.352 98.5056 316.822 96.4247C314.895 95.2965 313.292 93.2155 313.843 90.934C314.394 88.5773 317.123 87.8 319.226 88.477C323.532 89.881 324.157 95.2965 323.431 99.0572C322.555 103.57 320.027 108.033 317.123 111.543C312.391 117.234 301.251 122.95 296.945 113.524C295.668 110.891 291.738 113.223 292.965 115.88Z" fill="#4F3422"/>
<path d="M46.0487 54.7528C45.2226 65.5837 54.2349 74.9605 65.1499 73.8824C75.8145 72.8043 83.0744 62.2993 80.3457 51.8946C79.3443 48.1088 76.165 43.646 71.809 46.1031C67.4531 48.5601 66.5268 55.1038 67.1276 59.5414C68.8049 71.8265 80.2205 78.1195 91.0354 81.3286C93.8642 82.1811 95.0659 77.7434 92.262 76.916C85.5028 74.9103 78.2679 71.9519 74.2624 65.8093C72.2596 62.7255 71.058 58.7893 71.6588 55.0787C71.784 54.3516 71.9592 53.5995 72.2346 52.9225C72.535 52.0952 73.8118 50.1145 75.0134 50.6912C76.1149 51.2177 76.3402 55.4798 76.3402 56.2821C76.3903 63.7033 70.3821 69.5951 62.9719 69.3946C55.2363 69.194 50.0792 62.1739 50.63 54.7528C50.8553 51.8194 46.274 51.8194 46.0487 54.7528Z" fill="#4F3422"/>
<path d="M50.0311 229.3C55.8641 234.816 65.1268 235.844 71.9612 231.482C75.6913 229.1 77.9444 225.339 79.4965 221.303C81.0486 217.166 82.9512 211.6 80.4728 207.413C78.7455 204.48 74.6899 202.574 71.5356 204.379C68.3312 206.209 67.8806 210.346 68.8819 213.555C71.3353 221.503 80.5479 225.464 88.2835 225.063C99.2736 224.487 107.585 216.163 113.518 207.639C115.195 205.207 111.24 202.925 109.563 205.332C105.232 211.55 99.6241 217.667 92.1138 219.823C86.0054 221.578 77.9944 220.049 74.3394 214.408C73.6635 213.355 72.587 211.449 72.9625 210.121C74.064 206.184 76.3672 209.494 76.7928 210.873C77.1933 212.177 76.9931 213.38 76.7177 214.684C75.9666 218.444 74.4646 222.782 71.811 225.64C66.9793 230.83 58.2924 230.805 53.2605 226.016C51.1326 224.01 47.8782 227.27 50.0311 229.3Z" fill="#4F3422"/>
<path d="M241.166 49.589C237.011 42.9701 237.586 33.7688 243.57 28.3784C248.727 23.7402 261.069 21.584 265.224 28.8297C266.626 31.2867 265.6 34.6212 262.245 33.8942C259.642 33.3175 258.465 30.6349 258.265 28.2029C257.939 24.392 259.391 20.4307 261.319 17.2215C265.224 10.7531 272.109 6.3154 279.619 5.58833C282.523 5.31254 282.548 0.72444 279.619 1.00023C270.431 1.85266 262.145 6.9422 257.364 14.8899C253.358 21.5339 250.629 34.5962 260.167 38.031C263.522 39.2344 267.552 38.4572 269.505 35.2731C271.959 31.3118 270.106 26.473 266.801 23.6649C259.767 17.7481 248.576 18.7008 241.592 24.0912C233.155 30.6098 231.653 43.0453 237.211 51.8956C238.788 54.4027 242.743 52.0961 241.166 49.589Z" fill="#4F3422"/>
</svg>
